<svg width="215" height="14" viewBox="0 0 215 14" fill="none" xmlns="http://www.w3.org/2000/svg">
<path fill-rule="evenodd" clip-rule="evenodd" d="M3.56934 6.93652V7.0643V7.06363C3.56934 7.04252 3.5711 7.02141 3.57228 7.00052C3.5711 6.97941 3.56934 6.9583 3.56934 6.93719V6.93652ZM4.99853 6.87766C4.9556 6.81699 4.8662 6.76388 4.73975 6.72566C4.61389 6.68744 4.46038 6.66699 4.30158 6.66699C4.14337 6.66699 3.98928 6.68744 3.86341 6.72566C3.73696 6.76388 3.64756 6.81699 3.60463 6.87766C3.58404 6.90655 3.57522 6.93566 3.57051 6.96521C3.56875 6.97699 3.56993 6.98855 3.56934 7.00033C3.56993 7.01188 3.56875 7.02366 3.57051 7.03521C3.57522 7.06499 3.58404 7.09388 3.60463 7.12277C3.64756 7.18344 3.73696 7.23655 3.86341 7.27477C3.98928 7.31299 4.14337 7.33366 4.30158 7.33366C4.46038 7.33366 4.61389 7.31299 4.73975 7.27477C4.8662 7.23655 4.9556 7.18344 4.99853 7.12277C5.01912 7.09388 5.02794 7.06499 5.03265 7.03521C5.03441 7.02366 5.03324 7.01188 5.03382 7.00033C5.03324 6.98855 5.03441 6.97699 5.03265 6.96521C5.02794 6.93566 5.01912 6.90655 4.99853 6.87766ZM5.03907 7.00052C5.04024 7.02141 5.04201 7.04252 5.04201 7.06363V7.0643V6.93652V6.93719C5.04201 6.9583 5.04024 6.97941 5.03907 7.00052ZM8.56401 6.87766C8.52107 6.81699 8.43168 6.76388 8.30522 6.72566C8.17936 6.68744 8.02586 6.66699 7.86706 6.66699C7.70884 6.66699 7.55475 6.68744 7.42889 6.72566C7.30243 6.76388 7.21304 6.81699 7.1701 6.87766C7.14952 6.90655 7.14069 6.93566 7.13599 6.96521C7.13422 6.97699 7.1354 6.98855 7.13481 7.00033C7.1354 7.01188 7.13422 7.02366 7.13599 7.03521C7.14069 7.06499 7.14952 7.09388 7.1701 7.12277C7.21304 7.18344 7.30243 7.23655 7.42889 7.27477C7.55475 7.31299 7.70884 7.33366 7.86706 7.33366C8.02586 7.33366 8.17936 7.31299 8.30522 7.27477C8.43168 7.23655 8.52107 7.18344 8.56401 7.12277C8.58459 7.09388 8.59342 7.06499 8.59812 7.03521C8.59989 7.02366 8.59871 7.01188 8.5993 7.00033C8.59871 6.98855 8.59989 6.97699 8.59812 6.96521C8.59342 6.93566 8.58459 6.90655 8.56401 6.87766ZM8.60748 7.06297V6.93652C8.60748 6.95763 8.60572 6.97875 8.60454 6.99986C8.60572 7.02075 8.60748 7.04186 8.60748 7.06297ZM7.13481 6.93652V7.0643V7.06363C7.13481 7.04252 7.13658 7.02141 7.13775 7.00052C7.13658 6.97941 7.13481 6.9583 7.13481 6.93719V6.93652ZM11.9604 6.74256C11.9557 6.713 11.9469 6.68389 11.9263 6.655C11.8834 6.59434 11.794 6.54122 11.6675 6.503C11.5417 6.46478 11.3882 6.44434 11.2294 6.44434C11.0712 6.44434 10.9171 6.46478 10.7912 6.503C10.6648 6.54122 10.5754 6.59434 10.5324 6.655C10.5118 6.68389 10.503 6.713 10.4983 6.74256C10.4942 6.77545 10.4942 6.80811 10.4942 6.84078V6.84145V7.15811V7.15878C10.4942 7.19145 10.4942 7.22411 10.4983 7.257C10.503 7.28678 10.5118 7.31567 10.5324 7.34456C10.5754 7.40522 10.6648 7.45834 10.7912 7.49656C10.9171 7.53478 11.0712 7.55545 11.2294 7.55545C11.3882 7.55545 11.5417 7.53478 11.6675 7.49656C11.794 7.45834 11.8834 7.40522 11.9263 7.34456C11.9469 7.31567 11.9557 7.28678 11.9604 7.257C11.9646 7.22411 11.9646 7.19145 11.9646 7.15878V7.15811V6.84145V6.84078C11.9646 6.80811 11.9646 6.77545 11.9604 6.74256ZM14.0635 6.8252V7.17386C14.0635 7.1412 14.0635 7.10853 14.0676 7.07564C14.0718 7.04986 14.0818 7.02475 14.0971 6.99964C14.0818 6.97431 14.0718 6.9492 14.0676 6.92342C14.0635 6.89053 14.0635 6.85786 14.0635 6.8252ZM15.2034 6.83699C15.0775 6.79876 14.924 6.77832 14.7652 6.77832C14.607 6.77832 14.4529 6.79876 14.327 6.83699C14.2006 6.87521 14.1112 6.92832 14.0682 6.98899C14.0659 6.99276 14.0659 6.99676 14.0635 7.00054C14.0659 7.00432 14.0659 7.0081 14.0682 7.01188C14.1112 7.07254 14.2006 7.12565 14.327 7.16388C14.4529 7.2021 14.607 7.22276 14.7652 7.22276C14.924 7.22276 15.0775 7.2021 15.2034 7.16388C15.3298 7.12565 15.4192 7.07254 15.4621 7.01188C15.4645 7.0081 15.4645 7.00432 15.4668 7.00054C15.4645 6.99676 15.4645 6.99276 15.4621 6.98899C15.4192 6.92832 15.3298 6.87521 15.2034 6.83699ZM15.5333 6.99964C15.5485 7.02475 15.5585 7.04986 15.5627 7.07564C15.5668 7.10853 15.5668 7.1412 15.5668 7.17386V6.8252C15.5668 6.85786 15.5668 6.89053 15.5627 6.92342C15.5585 6.9492 15.5485 6.97431 15.5333 6.99964ZM18.855 6.655C18.8121 6.59434 18.7227 6.54122 18.5963 6.503C18.4704 6.46478 18.3169 6.44434 18.1581 6.44434C17.9999 6.44434 17.8458 6.46478 17.7199 6.503C17.5935 6.54122 17.5041 6.59434 17.4611 6.655C17.4406 6.68389 17.4317 6.713 17.427 6.74256C17.4229 6.77545 17.4229 6.80811 17.4229 6.84078V7.15878C17.4229 7.19145 17.4229 7.22411 17.427 7.257C17.4317 7.28678 17.4406 7.31567 17.4611 7.34456C17.5041 7.40522 17.5935 7.45834 17.7199 7.49656C17.8458 7.53478 17.9999 7.55545 18.1581 7.55545C18.3169 7.55545 18.4704 7.53478 18.5963 7.49656C18.7227 7.45834 18.8121 7.40522 18.855 7.34456C18.8756 7.31567 18.8845 7.28678 18.8892 7.257C18.8933 7.22411 18.8933 7.19145 18.8933 7.15878V6.84078C18.8933 6.80811 18.8933 6.77545 18.8892 6.74256C18.8845 6.713 18.8756 6.68389 18.855 6.655ZM22.2485 6.63123C22.2438 6.60167 22.235 6.57256 22.2144 6.54367C22.1715 6.48301 22.0821 6.4299 21.9556 6.39167C21.8298 6.35345 21.6763 6.33301 21.5175 6.33301C21.3593 6.33301 21.2052 6.35345 21.0793 6.39167C20.9528 6.4299 20.8634 6.48301 20.8205 6.54367C20.7999 6.57256 20.7911 6.60167 20.7864 6.63123C20.7823 6.66412 20.7823 6.69679 20.7823 6.72945V6.73012V7.26901V7.26967C20.7823 7.30234 20.7823 7.33501 20.7864 7.3679C20.7911 7.39767 20.7999 7.42656 20.8205 7.45545C20.8634 7.51612 20.9528 7.56923 21.0793 7.60745C21.2052 7.64567 21.3593 7.66634 21.5175 7.66634C21.6763 7.66634 21.8298 7.64567 21.9556 7.60745C22.0821 7.56923 22.1715 7.51612 22.2144 7.45545C22.235 7.42656 22.2438 7.39767 22.2485 7.3679C22.2526 7.33501 22.2526 7.30234 22.2526 7.26967V7.26901V6.73012V6.72945C22.2526 6.69679 22.2526 6.66412 22.2485 6.63123ZM25.7838 5.32199C25.7408 5.26133 25.6514 5.20822 25.525 5.16999C25.3991 5.13177 25.2456 5.11133 25.0868 5.11133C24.9286 5.11133 24.7745 5.13177 24.6486 5.16999C24.5222 5.20822 24.4328 5.26133 24.3899 5.32199C24.3693 5.35088 24.3604 5.37999 24.3557 5.40955C24.3516 5.44244 24.3516 5.47511 24.3516 5.50777V8.49244C24.3516 8.52511 24.3516 8.55777 24.3557 8.59066C24.3604 8.62044 24.3693 8.64933 24.3899 8.67799C24.4328 8.73888 24.5222 8.792 24.6486 8.83022C24.7745 8.86844 24.9286 8.88911 25.0868 8.88911C25.2456 8.88911 25.3991 8.86844 25.525 8.83022C25.6514 8.792 25.7408 8.73888 25.7838 8.67799C25.8043 8.64933 25.8132 8.62044 25.8179 8.59066C25.822 8.55777 25.822 8.52511 25.822 8.49244V5.50777C25.822 5.47511 25.822 5.44244 25.8179 5.40955C25.8132 5.37999 25.8043 5.35088 25.7838 5.32199ZM29.3872 6.40955C29.3825 6.37999 29.3737 6.35088 29.3531 6.32199C29.3102 6.26133 29.2208 6.20822 29.0943 6.16999C28.9685 6.13177 28.8149 6.11133 28.6561 6.11133C28.4979 6.11133 28.3438 6.13177 28.218 6.16999C28.0915 6.20822 28.0021 6.26133 27.9592 6.32199C27.9386 6.35088 27.9298 6.37999 27.9251 6.40955C27.921 6.44244 27.921 6.47511 27.921 6.50777V6.50844V7.38066V7.38133C27.921 7.41399 27.921 7.55777 27.9251 7.59066C27.9298 7.62044 27.9386 7.64933 27.9592 7.67822C28.0021 7.73888 28.0915 7.792 28.218 7.83022C28.3438 7.86844 28.4979 7.88911 28.6561 7.88911C28.8149 7.88911 28.9685 7.86844 29.0943 7.83022C29.2208 7.792 29.3102 7.73888 29.3531 7.67822C29.3737 7.64933 29.3825 7.62044 29.3872 7.59066C29.3913 7.55777 29.3913 7.41399 29.3913 7.38133V7.38066V6.50844V6.50777C29.3913 6.47511 29.3913 6.44244 29.3872 6.40955ZM32.9536 5.07654C32.9489 5.04699 32.9401 5.01788 32.9195 4.98899C32.8766 4.92832 32.7872 4.87521 32.6607 4.83699C32.5349 4.79876 32.3814 4.77832 32.2226 4.77832C32.0643 4.77832 31.9103 4.79876 31.7844 4.83699C31.6579 4.87521 31.5685 4.92832 31.5256 4.98899C31.505 5.01788 31.4962 5.04699 31.4915 5.07654C31.4874 5.10943 31.4874 5.1421 31.4874 5.17476V5.17543V8.82543V8.8261C31.4874 8.85899 31.4874 8.89143 31.4915 8.92432C31.4962 8.9541 31.505 8.98299 31.5256 9.01165C31.5685 9.07254 31.6579 9.12565 31.7844 9.16388C31.9103 9.2021 32.0643 9.22276 32.2226 9.22276C32.3814 9.22276 32.5349 9.2021 32.6607 9.16388C32.7872 9.12565 32.8766 9.07254 32.9195 9.01165C32.9401 8.98299 32.9489 8.9541 32.9536 8.92432C32.9577 8.89143 32.9577 8.85899 32.9577 8.8261V8.82543V5.17543V5.17476C32.9577 5.1421 32.9577 5.10943 32.9536 5.07654ZM36.523 4.74256C36.5183 4.713 36.5094 4.68389 36.4889 4.655C36.4459 4.59434 36.3565 4.54122 36.2301 4.503C36.1042 4.46478 35.9507 4.44434 35.7919 4.44434C35.6337 4.44434 35.4796 4.46478 35.3537 4.503C35.2273 4.54122 35.1379 4.59434 35.095 4.655C35.0744 4.68389 35.0655 4.713 35.0608 4.74256C35.0567 4.77545 35.0567 4.80811 35.0567 4.84078V4.84145V9.15811V9.15878C35.0567 9.19167 35.0567 9.22411 35.0608 9.257C35.0655 9.28678 35.0744 9.31567 35.095 9.34434C35.1379 9.40522 35.2273 9.45834 35.3537 9.49656C35.4796 9.53478 35.6337 9.55545 35.7919 9.55545C35.9507 9.55545 36.1042 9.53478 36.2301 9.49656C36.3565 9.45834 36.4459 9.40522 36.4889 9.34434C36.5094 9.31567 36.5183 9.28678 36.523 9.257C36.5271 9.22411 36.5271 9.19167 36.5271 9.15878V9.15811V4.84145V4.84078C36.5271 4.80811 36.5271 4.77545 36.523 4.74256ZM40.0923 6.40955C40.0876 6.37999 40.0788 6.35088 40.0582 6.32199C40.0153 6.26133 39.9259 6.20822 39.7994 6.16999C39.6736 6.13177 39.52 6.11133 39.3612 6.11133C39.203 6.11133 39.0489 6.13177 38.9231 6.16999C38.7966 6.20822 38.7072 6.26133 38.6643 6.32199C38.6437 6.35088 38.6349 6.37999 38.6302 6.40955C38.6261 6.44244 38.6261 6.47511 38.6261 6.50777V6.50844V7.49177V7.49244C38.6261 7.52511 38.6261 7.55777 38.6302 7.59066C38.6349 7.62044 38.6437 7.64933 38.6643 7.67822C38.7072 7.73888 38.7966 7.792 38.9231 7.83022C39.0489 7.86844 39.203 7.88911 39.3612 7.88911C39.52 7.88911 39.6736 7.86844 39.7994 7.83022C39.9259 7.792 40.0153 7.73888 40.0582 7.67822C40.0788 7.64933 40.0876 7.62044 40.0923 7.59066C40.0964 7.55777 40.0964 7.52511 40.0964 7.49244V7.49177V6.50844V6.50777C40.0964 6.47511 40.0964 6.44244 40.0923 6.40955ZM43.4176 3.76633C43.3746 3.70566 43.2853 3.65255 43.1588 3.61433C43.0329 3.57611 42.8794 3.55566 42.7206 3.55566C42.5624 3.55566 42.4083 3.57611 42.2825 3.61433C42.156 3.65255 42.0666 3.70566 42.0237 3.76633C42.0031 3.79522 41.9943 3.82433 41.9896 3.85389C41.9854 3.88678 41.9854 3.91944 41.9854 3.95211V10.0479C41.9854 10.0808 41.9854 10.1132 41.9896 10.1461C41.9943 10.1759 42.0031 10.2048 42.0237 10.2334C42.0666 10.2943 42.156 10.3474 42.2825 10.3857C42.4083 10.4239 42.5624 10.4446 42.7206 10.4446C42.8794 10.4446 43.0329 10.4239 43.1588 10.3857C43.2853 10.3474 43.3746 10.2943 43.4176 10.2334C43.4382 10.2048 43.447 10.1759 43.4517 10.1461C43.4558 10.1132 43.4558 10.0808 43.4558 10.0479V3.95211C43.4558 3.91944 43.4558 3.88678 43.4517 3.85389C43.447 3.82433 43.4382 3.79522 43.4176 3.76633ZM47.021 5.96521C47.0163 5.93566 47.0075 5.90655 46.9869 5.87766C46.944 5.81699 46.8546 5.76388 46.7281 5.72566C46.6023 5.68744 46.4488 5.66699 46.29 5.66699C46.1318 5.66699 45.9777 5.68744 45.8518 5.72566C45.7254 5.76388 45.636 5.81699 45.593 5.87766C45.5724 5.90655 45.5636 5.93566 45.5589 5.96521C45.5548 5.9981 45.5548 6.03077 45.5548 6.06344V6.0641V7.93633V7.93699C45.5548 7.96966 45.5548 8.00233 45.5589 8.03521C45.5636 8.06499 45.5724 8.09388 45.593 8.12277C45.636 8.18344 45.7254 8.23655 45.8518 8.27477C45.9777 8.31299 46.1318 8.33366 46.29 8.33366C46.4488 8.33366 46.6023 8.31299 46.7281 8.27477C46.8546 8.23655 46.944 8.18344 46.9869 8.12277C47.0075 8.09388 47.0163 8.06499 47.021 8.03521C47.0252 8.00233 47.0252 7.96966 47.0252 7.93699V7.93633V6.0641V6.06344C47.0252 6.03077 47.0252 5.9981 47.021 5.96521ZM50.5563 5.09934C50.5133 5.03867 50.4239 4.98556 50.2975 4.94734C50.1716 4.90912 50.0181 4.88867 49.8593 4.88867C49.7011 4.88867 49.547 4.90912 49.4211 4.94734C49.2947 4.98556 49.2053 5.03867 49.1624 5.09934C49.1418 5.12823 49.133 5.15734 49.1283 5.18689C49.1241 5.21978 49.1241 5.25245 49.1241 5.28512V8.71423C49.1241 8.74712 49.1241 8.77956 49.1283 8.81245C49.133 8.84223 49.1418 8.87112 49.1624 8.89978C49.2053 8.96067 49.2947 9.01378 49.4211 9.05201C49.547 9.09023 49.7011 9.11089 49.8593 9.11089C50.0181 9.11089 50.1716 9.09023 50.2975 9.05201C50.4239 9.01378 50.5133 8.96067 50.5563 8.89978C50.5769 8.87112 50.5857 8.84223 50.5904 8.81245C50.5945 8.77956 50.5945 8.74712 50.5945 8.71423V5.28512C50.5945 5.25245 50.5945 5.21978 50.5904 5.18689C50.5857 5.15734 50.5769 5.12823 50.5563 5.09934ZM53.7057 6.76633C53.6628 6.70566 53.5734 6.65255 53.4469 6.61433C53.321 6.57611 53.1675 6.55566 53.0087 6.55566C52.8505 6.55566 52.6964 6.57611 52.5706 6.61433C52.4441 6.65255 52.3547 6.70566 52.3118 6.76633C52.2912 6.79522 52.2824 6.82433 52.2777 6.85389C52.2736 6.88678 52.2736 6.91944 52.2736 6.95211V7.04789C52.2736 7.08055 52.2736 7.11322 52.2777 7.14611C52.2824 7.17589 52.2912 7.20478 52.3118 7.23366C52.3547 7.29433 52.4441 7.34744 52.5706 7.38566C52.6964 7.42389 52.8505 7.44455 53.0087 7.44455C53.1675 7.44455 53.321 7.42389 53.4469 7.38566C53.5734 7.34744 53.6628 7.29433 53.7057 7.23366C53.7263 7.20478 53.7351 7.17589 53.7398 7.14611C53.7439 7.11322 53.7439 7.08055 53.7439 7.04789V6.95211C53.7439 6.91944 53.7439 6.88678 53.7398 6.85389C53.7351 6.82433 53.7263 6.79522 53.7057 6.76633ZM57.3052 4.18689C57.3005 4.15734 57.2917 4.12823 57.2711 4.09934C57.2282 4.03867 57.1388 3.98556 57.0123 3.94734C56.8865 3.90912 56.733 3.88867 56.5742 3.88867C56.416 3.88867 56.2619 3.90912 56.136 3.94734C56.0096 3.98556 55.9202 4.03867 55.8772 4.09934C55.8566 4.12823 55.8478 4.15734 55.8431 4.18689C55.839 4.21978 55.839 4.25245 55.839 4.28512V4.28578V9.71356V9.71423C55.839 9.74712 55.839 9.77956 55.8431 9.81245C55.8478 9.84223 55.8566 9.87112 55.8772 9.89978C55.9202 9.96067 56.0096 10.0138 56.136 10.052C56.2619 10.0902 56.416 10.1109 56.5742 10.1109C56.733 10.1109 56.8865 10.0902 57.0123 10.052C57.1388 10.0138 57.2282 9.96067 57.2711 9.89978C57.2917 9.87112 57.3005 9.84223 57.3052 9.81245C57.3094 9.77956 57.3094 9.74712 57.3094 9.71423V9.71356V4.28578V4.28512C57.3094 4.25245 57.3094 4.21978 57.3052 4.18689ZM60.8402 2.76633C60.7973 2.70566 60.7079 2.65255 60.5814 2.61433C60.4556 2.57611 60.3021 2.55566 60.1433 2.55566C59.9851 2.55566 59.831 2.57611 59.7051 2.61433C59.5786 2.65255 59.4892 2.70566 59.4463 2.76633C59.4257 2.79522 59.4169 2.82433 59.4122 2.85389C59.4081 2.88678 59.4081 2.91944 59.4081 2.95211V2.95278V11.0472V11.0479C59.4081 11.0808 59.4081 11.1132 59.4122 11.1461C59.4169 11.1759 59.4257 11.2048 59.4463 11.2334C59.4892 11.2943 59.5786 11.3474 59.7051 11.3857C59.831 11.4239 59.9851 11.4446 60.1433 11.4446C60.3021 11.4446 60.4556 11.4239 60.5814 11.3857C60.7079 11.3474 60.7973 11.2943 60.8402 11.2334C60.8608 11.2048 60.8696 11.1759 60.8743 11.1461C60.8784 11.1132 60.8784 11.0808 60.8784 11.0479V2.95211C60.8784 2.91944 60.8784 2.88678 60.8743 2.85389C60.8696 2.82433 60.8608 2.79522 60.8402 2.76633ZM64.4437 3.52088C64.4389 3.49132 64.4301 3.46221 64.4095 3.43332C64.3666 3.37266 64.2772 3.31955 64.1508 3.28132C64.0249 3.2431 63.8714 3.22266 63.7126 3.22266C63.5544 3.22266 63.4003 3.2431 63.2744 3.28132C63.148 3.31955 63.0586 3.37266 63.0156 3.43332C62.9951 3.46221 62.9862 3.49132 62.9815 3.52088C62.9774 3.55377 62.9774 3.58643 62.9774 3.6191V3.61977V10.3809V10.3815C62.9774 10.4144 62.9774 10.4469 62.9815 10.4798C62.9862 10.5095 62.9951 10.5384 63.0156 10.5671C63.0586 10.628 63.148 10.6811 63.2744 10.7193C63.4003 10.7575 63.5544 10.7782 63.7126 10.7782C63.8714 10.7782 64.0249 10.7575 64.1508 10.7193C64.2772 10.6811 64.3666 10.628 64.4095 10.5671C64.4301 10.5384 64.4389 10.5095 64.4437 10.4798C64.4478 10.4469 64.4478 10.4144 64.4478 10.3815V10.3809V3.61977V3.6191C64.4478 3.58643 64.4478 3.55377 64.4437 3.52088ZM68.013 5.07654C68.0083 5.04699 67.9995 5.01788 67.9789 4.98899C67.9359 4.92832 67.8465 4.87521 67.7201 4.83699C67.5942 4.79876 67.4407 4.77832 67.2819 4.77832C67.1237 4.77832 66.9696 4.79876 66.8438 4.83699C66.7173 4.87521 66.6279 4.92832 66.585 4.98899C66.5644 5.01788 66.5556 5.04699 66.5509 5.07654C66.5467 5.10943 66.5467 5.1421 66.5467 5.17476V5.17543V8.82543V8.8261C66.5467 8.85899 66.5467 8.89143 66.5509 8.92432C66.5556 8.9541 66.5644 8.98299 66.585 9.01165C66.6279 9.07254 66.7173 9.12565 66.8438 9.16388C66.9696 9.2021 67.1237 9.22276 67.2819 9.22276C67.4407 9.22276 67.5942 9.2021 67.7201 9.16388C67.8465 9.12565 67.9359 9.07254 67.9789 9.01165C67.9995 8.98299 68.0083 8.9541 68.013 8.92432C68.0171 8.89143 68.0171 8.85899 68.0171 8.8261V8.82543V5.17543V5.17476C68.0171 5.1421 68.0171 5.10943 68.013 5.07654ZM71.3382 3.43332C71.2953 3.37266 71.2059 3.31955 71.0795 3.28132C70.9536 3.2431 70.8001 3.22266 70.6413 3.22266C70.4831 3.22266 70.329 3.2431 70.2031 3.28132C70.0767 3.31955 69.9873 3.37266 69.9443 3.43332C69.9238 3.46221 69.9149 3.49132 69.9102 3.52088C69.9061 3.55377 69.9061 3.58643 69.9061 3.6191V3.61977V10.3809V10.3815C69.9061 10.4144 69.9061 10.4469 69.9102 10.4798C69.9149 10.5095 69.9238 10.5384 69.9443 10.5671C69.9873 10.628 70.0767 10.6811 70.2031 10.7193C70.329 10.7575 70.4831 10.7782 70.6413 10.7782C70.8001 10.7782 70.9536 10.7575 71.0795 10.7193C71.2059 10.6811 71.2953 10.628 71.3382 10.5671C71.3588 10.5384 71.3676 10.5095 71.3724 10.4798C71.3765 10.4469 71.3765 10.4144 71.3765 10.3815V3.6191C71.3765 3.58643 71.3765 3.55377 71.3724 3.52088C71.3676 3.49132 71.3588 3.46221 71.3382 3.43332ZM74.9427 3.96521C74.938 3.93566 74.9291 3.90655 74.9085 3.87766C74.8656 3.81699 74.7762 3.76388 74.6498 3.72566C74.5239 3.68744 74.3704 3.66699 74.2116 3.66699C74.0534 3.66699 73.8993 3.68744 73.7734 3.72566C73.647 3.76388 73.5576 3.81699 73.5146 3.87766C73.4941 3.90655 73.4852 3.93566 73.4805 3.96521C73.4764 3.9981 73.4764 4.03077 73.4764 4.06344V4.0641V9.93633V9.93699C73.4764 9.96988 73.4764 10.0023 73.4805 10.0352C73.4852 10.065 73.4941 10.0939 73.5146 10.1225C73.5576 10.1834 73.647 10.2365 73.7734 10.2748C73.8993 10.313 74.0534 10.3337 74.2116 10.3337C74.3704 10.3337 74.5239 10.313 74.6498 10.2748C74.7762 10.2365 74.8656 10.1834 74.9085 10.1225C74.9291 10.0939 74.938 10.065 74.9427 10.0352C74.9468 10.0023 74.9468 9.96988 74.9468 9.93699V9.93633V4.0641V4.06344C74.9468 4.03077 74.9468 3.9981 74.9427 3.96521ZM78.4779 5.87766C78.4349 5.81699 78.3455 5.76388 78.2191 5.72566C78.0932 5.68744 77.9397 5.66699 77.7809 5.66699C77.6227 5.66699 77.4686 5.68744 77.3428 5.72566C77.2163 5.76388 77.1269 5.81699 77.084 5.87766C77.0634 5.90655 77.0546 5.93566 77.0499 5.96521C77.0457 5.9981 77.0457 6.03077 77.0457 6.06344V7.93699C77.0457 7.96966 77.0457 8.00233 77.0499 8.03521C77.0546 8.06499 77.0634 8.09388 77.084 8.12277C77.1269 8.18344 77.2163 8.23655 77.3428 8.27477C77.4686 8.31299 77.6227 8.33366 77.7809 8.33366C77.9397 8.33366 78.0932 8.31299 78.2191 8.27477C78.3455 8.23655 78.4349 8.18344 78.4779 8.12277C78.4985 8.09388 78.5073 8.06499 78.512 8.03521C78.5161 8.00233 78.5161 7.96966 78.5161 7.93699V6.06344C78.5161 6.03077 78.5161 5.9981 78.512 5.96521C78.5073 5.93566 78.4985 5.90655 78.4779 5.87766ZM82.0784 5.52088C82.0737 5.49132 82.0649 5.46221 82.0443 5.43332C82.0013 5.37266 81.9119 5.31955 81.7855 5.28132C81.6596 5.2431 81.5061 5.22266 81.3473 5.22266C81.1891 5.22266 81.035 5.2431 80.9091 5.28132C80.7827 5.31955 80.6933 5.37266 80.6504 5.43332C80.6298 5.46221 80.621 5.49132 80.6163 5.52088C80.6121 5.55377 80.6121 5.58643 80.6121 5.6191V5.61977V8.38088V8.38155C80.6121 8.41421 80.6121 8.44688 80.6163 8.47977C80.621 8.50954 80.6298 8.53843 80.6504 8.5671C80.6933 8.62799 80.7827 8.6811 80.9091 8.71932C81.035 8.75755 81.1891 8.77821 81.3473 8.77821C81.5061 8.77821 81.6596 8.75755 81.7855 8.71932C81.9119 8.6811 82.0013 8.62799 82.0443 8.5671C82.0649 8.53843 82.0737 8.50954 82.0784 8.47977C82.0825 8.44688 82.0825 8.41421 82.0825 8.38155V8.38088V5.61977V5.6191C82.0825 5.58643 82.0825 5.55377 82.0784 5.52088ZM85.6136 6.09934C85.5707 6.03867 85.4813 5.98556 85.3548 5.94734C85.229 5.90912 85.0754 5.88867 84.9166 5.88867C84.7584 5.88867 84.6043 5.90912 84.4785 5.94734C84.352 5.98556 84.2626 6.03867 84.2197 6.09934C84.1991 6.12823 84.1903 6.15734 84.1856 6.18689C84.1815 6.21978 84.1815 6.25245 84.1815 6.28512V7.71423C84.1815 7.74689 84.1815 7.77956 84.1856 7.81245C84.1903 7.84223 84.1991 7.87112 84.2197 7.90001C84.2626 7.96067 84.352 8.01378 84.4785 8.05201C84.6043 8.09023 84.7584 8.11089 84.9166 8.11089C85.0754 8.11089 85.229 8.09023 85.3548 8.05201C85.4813 8.01378 85.5707 7.96067 85.6136 7.90001C85.6342 7.87112 85.643 7.84223 85.6477 7.81245C85.6518 7.77956 85.6518 7.74689 85.6518 7.71423V6.28512C85.6518 6.25245 85.6518 6.21978 85.6477 6.18689C85.643 6.15734 85.6342 6.12823 85.6136 6.09934ZM89.0071 6.63123C89.0024 6.60167 88.9936 6.57256 88.973 6.54367C88.93 6.48301 88.8406 6.4299 88.7142 6.39167C88.5883 6.35345 88.4348 6.33301 88.276 6.33301C88.1178 6.33301 87.9637 6.35345 87.8378 6.39167C87.7114 6.4299 87.622 6.48301 87.5791 6.54367C87.5585 6.57256 87.5497 6.60167 87.545 6.63123C87.5408 6.66412 87.5408 6.69679 87.5408 6.72945V6.73012V7.26901V7.26967C87.5408 7.30234 87.5408 7.33501 87.545 7.3679C87.5497 7.39767 87.5585 7.42656 87.5791 7.45545C87.622 7.51612 87.7114 7.56923 87.8378 7.60745C87.9637 7.64567 88.1178 7.66634 88.276 7.66634C88.4348 7.66634 88.5883 7.64567 88.7142 7.60745C88.8406 7.56923 88.93 7.51612 88.973 7.45545C88.9936 7.42656 89.0024 7.39767 89.0071 7.3679C89.0112 7.33501 89.0112 7.30234 89.0112 7.26967V7.26901V6.73012V6.72945C89.0112 6.69679 89.0112 6.66412 89.0071 6.63123ZM92.3694 2.85389C92.3647 2.82433 92.3559 2.79522 92.3353 2.76633C92.2923 2.70566 92.2029 2.65255 92.0765 2.61433C91.9506 2.57611 91.7971 2.55566 91.6383 2.55566C91.4801 2.55566 91.326 2.57611 91.2001 2.61433C91.0737 2.65255 90.9843 2.70566 90.9414 2.76633C90.9208 2.79522 90.9119 2.82433 90.9072 2.85389C90.9031 2.88678 90.9031 2.91944 90.9031 2.95211V2.95278V11.0472V11.0479C90.9031 11.0808 90.9031 11.1132 90.9072 11.1461C90.9119 11.1759 90.9208 11.2048 90.9414 11.2334C90.9843 11.2943 91.0737 11.3474 91.2001 11.3857C91.326 11.4239 91.4801 11.4446 91.6383 11.4446C91.7971 11.4446 91.9506 11.4239 92.0765 11.3857C92.2029 11.3474 92.2923 11.2943 92.3353 11.2334C92.3559 11.2048 92.3647 11.1759 92.3694 11.1461C92.3735 11.1132 92.3735 11.0808 92.3735 11.0479V11.0472V2.95278V2.95211C92.3735 2.91944 92.3735 2.88678 92.3694 2.85389ZM95.9358 1.29822C95.9311 1.26867 95.9223 1.23956 95.9017 1.21067C95.8587 1.15 95.7693 1.09689 95.6429 1.05867C95.517 1.02044 95.3635 1 95.2047 1C95.0465 1 94.8924 1.02044 94.7665 1.05867C94.6401 1.09689 94.5507 1.15 94.5078 1.21067C94.4872 1.23956 94.4784 1.26867 94.4737 1.29822C94.4695 1.33111 94.4695 1.36378 94.4695 1.39644V1.39711V12.6027V12.6033C94.4695 12.6362 94.4695 12.6687 94.4737 12.7016C94.4784 12.7313 94.4872 12.7602 94.5078 12.7889C94.5507 12.8498 94.6401 12.9029 94.7665 12.9411C94.8924 12.9793 95.0465 13 95.2047 13C95.3635 13 95.517 12.9793 95.6429 12.9411C95.7693 12.9029 95.8587 12.8498 95.9017 12.7889C95.9223 12.7602 95.9311 12.7313 95.9358 12.7016C95.9399 12.6687 95.9399 12.6362 95.9399 12.6033V12.6027V1.39711V1.39644C95.9399 1.36378 95.9399 1.33111 95.9358 1.29822ZM99.261 3.32199C99.2181 3.26133 99.1287 3.20822 99.0023 3.16999C98.8764 3.13177 98.7229 3.11133 98.5641 3.11133C98.4059 3.11133 98.2518 3.13177 98.1259 3.16999C97.9995 3.20822 97.9101 3.26133 97.8671 3.32199C97.8465 3.35088 97.8377 3.37999 97.833 3.40955C97.8289 3.44244 97.8289 3.47511 97.8289 3.50777V3.50844V10.4918V10.4924C97.8289 10.5253 97.8289 10.5578 97.833 10.5907C97.8377 10.6204 97.8465 10.6493 97.8671 10.678C97.9101 10.7389 97.9995 10.792 98.1259 10.8302C98.2518 10.8684 98.4059 10.8891 98.5641 10.8891C98.7229 10.8891 98.8764 10.8684 99.0023 10.8302C99.1287 10.792 99.2181 10.7389 99.261 10.678C99.2816 10.6493 99.2904 10.6204 99.2952 10.5907C99.2993 10.5578 99.2993 10.5253 99.2993 10.4924V3.50777C99.2993 3.47511 99.2993 3.44244 99.2952 3.40955C99.2904 3.37999 99.2816 3.35088 99.261 3.32199ZM102.864 4.07654C102.86 4.04699 102.851 4.01788 102.83 3.98899C102.787 3.92832 102.698 3.87521 102.572 3.83699C102.446 3.79876 102.292 3.77832 102.133 3.77832C101.975 3.77832 101.821 3.79876 101.695 3.83699C101.569 3.87521 101.479 3.92832 101.436 3.98899C101.416 4.01788 101.407 4.04699 101.402 4.07654C101.398 4.10943 101.398 4.1421 101.398 4.17476V4.17543V9.82543V9.8261C101.398 9.85899 101.398 9.89143 101.402 9.92432C101.407 9.9541 101.416 9.98299 101.436 10.0117C101.479 10.0725 101.569 10.1257 101.695 10.1639C101.821 10.2021 101.975 10.2228 102.133 10.2228C102.292 10.2228 102.446 10.2021 102.572 10.1639C102.698 10.1257 102.787 10.0725 102.83 10.0117C102.851 9.98299 102.86 9.9541 102.864 9.92432C102.869 9.89143 102.869 9.85899 102.869 9.8261V9.82543V4.17543V4.17476C102.869 4.1421 102.869 4.10943 102.864 4.07654ZM106.399 1.43332C106.357 1.37266 106.267 1.31955 106.141 1.28132C106.015 1.2431 105.861 1.22266 105.702 1.22266C105.544 1.22266 105.39 1.2431 105.264 1.28132C105.138 1.31955 105.048 1.37266 105.006 1.43332C104.985 1.46221 104.976 1.49132 104.971 1.52088C104.967 1.55377 104.967 1.58643 104.967 1.6191V12.3815C104.967 12.4144 104.967 12.4469 104.971 12.4798C104.976 12.5095 104.985 12.5384 105.006 12.5671C105.048 12.628 105.138 12.6811 105.264 12.7193C105.39 12.7575 105.544 12.7782 105.702 12.7782C105.861 12.7782 106.015 12.7575 106.141 12.7193C106.267 12.6811 106.357 12.628 106.399 12.5671C106.42 12.5384 106.429 12.5095 106.434 12.4798C106.438 12.4469 106.438 12.4144 106.438 12.3815V1.6191C106.438 1.58643 106.438 1.55377 106.434 1.52088C106.429 1.49132 106.42 1.46221 106.399 1.43332ZM109.999 1.29822C109.994 1.26867 109.985 1.23956 109.965 1.21067C109.922 1.15 109.833 1.09689 109.706 1.05867C109.58 1.02044 109.427 1 109.268 1C109.11 1 108.956 1.02044 108.83 1.05867C108.703 1.09689 108.614 1.15 108.571 1.21067C108.55 1.23956 108.542 1.26867 108.537 1.29822C108.533 1.33111 108.533 1.36378 108.533 1.39644V12.6027C108.533 12.6356 108.533 12.6687 108.537 12.7016C108.542 12.7313 108.55 12.7602 108.571 12.7889C108.614 12.8498 108.703 12.9029 108.83 12.9411C108.956 12.9793 109.11 13 109.268 13C109.427 13 109.58 12.9793 109.706 12.9411C109.833 12.9029 109.922 12.8498 109.965 12.7889C109.985 12.7602 109.994 12.7313 109.999 12.7016C110.003 12.6687 110.003 12.6362 110.003 12.6033V1.39711C110.003 1.36444 110.003 1.33111 109.999 1.29822ZM113.534 5.32199C113.491 5.26133 113.402 5.20822 113.275 5.16999C113.15 5.13177 112.996 5.11133 112.837 5.11133C112.679 5.11133 112.525 5.13177 112.399 5.16999C112.273 5.20822 112.183 5.26133 112.14 5.32199C112.12 5.35088 112.111 5.37999 112.106 5.40955C112.102 5.44244 112.102 5.47511 112.102 5.50777V8.49244C112.102 8.52511 112.102 8.55777 112.106 8.59066C112.111 8.62044 112.12 8.64933 112.14 8.67799C112.183 8.73888 112.273 8.792 112.399 8.83022C112.525 8.86844 112.679 8.88911 112.837 8.88911C112.996 8.88911 113.15 8.86844 113.275 8.83022C113.402 8.792 113.491 8.73888 113.534 8.67799C113.555 8.64933 113.564 8.62044 113.568 8.59066C113.572 8.55777 113.572 8.52511 113.572 8.49244V5.50777C113.572 5.47511 113.572 5.44244 113.568 5.40955C113.564 5.37999 113.555 5.35088 113.534 5.32199ZM117.138 2.07654C117.133 2.04699 117.124 2.01788 117.104 1.98899C117.061 1.92832 116.971 1.87521 116.845 1.83699C116.719 1.79876 116.565 1.77832 116.407 1.77832C116.248 1.77832 116.094 1.79876 115.968 1.83699C115.842 1.87521 115.753 1.92832 115.71 1.98899C115.689 2.01788 115.68 2.04699 115.676 2.07654C115.671 2.10943 115.671 2.1421 115.671 2.17476V2.17543V11.8254V11.8261C115.671 11.859 115.671 11.8914 115.676 11.9243C115.68 11.9541 115.689 11.983 115.71 12.0117C115.753 12.0725 115.842 12.1257 115.968 12.1639C116.094 12.2021 116.248 12.2228 116.407 12.2228C116.565 12.2228 116.719 12.2021 116.845 12.1639C116.971 12.1257 117.061 12.0725 117.104 12.0117C117.124 11.983 117.133 11.9541 117.138 11.9243C117.142 11.8914 117.142 11.859 117.142 11.8261V11.8254V2.17543V2.17476C117.142 2.1421 117.142 2.10943 117.138 2.07654ZM120.463 4.87766C120.42 4.81699 120.331 4.76388 120.204 4.72566C120.078 4.68744 119.925 4.66699 119.766 4.66699C119.608 4.66699 119.454 4.68744 119.328 4.72566C119.201 4.76388 119.112 4.81699 119.069 4.87766C119.048 4.90655 119.04 4.93566 119.035 4.96521C119.031 4.9981 119.031 5.03077 119.031 5.06344V8.93699C119.031 8.96988 119.031 9.00233 119.035 9.03521C119.04 9.06499 119.048 9.09388 119.069 9.12255C119.112 9.18344 119.201 9.23655 119.328 9.27477C119.454 9.31299 119.608 9.33366 119.766 9.33366C119.925 9.33366 120.078 9.31299 120.204 9.27477C120.331 9.23655 120.42 9.18344 120.463 9.12255C120.483 9.09388 120.492 9.06499 120.497 9.03521C120.501 9.00233 120.501 8.96988 120.501 8.93699V5.06344C120.501 5.03077 120.501 4.9981 120.497 4.96521C120.492 4.93566 120.483 4.90655 120.463 4.87766ZM124.066 5.29822C124.062 5.26867 124.053 5.23956 124.032 5.21067C123.989 5.15 123.9 5.09689 123.773 5.05867C123.648 5.02044 123.494 5 123.335 5C123.177 5 123.023 5.02044 122.897 5.05867C122.771 5.09689 122.681 5.15 122.638 5.21067C122.618 5.23956 122.609 5.26867 122.604 5.29822C122.6 5.33111 122.6 5.36378 122.6 5.39644V5.39711V8.60267V8.60333C122.6 8.63622 122.6 8.66867 122.604 8.70156C122.609 8.73133 122.618 8.76022 122.638 8.78889C122.681 8.84978 122.771 8.90289 122.897 8.94111C123.023 8.97933 123.177 9 123.335 9C123.494 9 123.648 8.97933 123.773 8.94111C123.9 8.90289 123.989 8.84978 124.032 8.78889C124.053 8.76022 124.062 8.73133 124.066 8.70156C124.07 8.66867 124.07 8.63622 124.07 8.60333V8.60267V5.39711V5.39644C124.07 5.36378 124.07 5.33111 124.066 5.29822ZM127.426 3.29822C127.421 3.26867 127.412 3.23956 127.392 3.21067C127.349 3.15 127.259 3.09689 127.133 3.05867C127.007 3.02044 126.853 3 126.695 3C126.536 3 126.382 3.02044 126.256 3.05867C126.13 3.09689 126.041 3.15 125.998 3.21067C125.977 3.23956 125.968 3.26867 125.964 3.29822C125.959 3.33111 125.959 3.36378 125.959 3.39644V3.39711V10.6027V10.6033C125.959 10.6362 125.959 10.6687 125.964 10.7016C125.968 10.7313 125.977 10.7602 125.998 10.7889C126.041 10.8498 126.13 10.9029 126.256 10.9411C126.382 10.9793 126.536 11 126.695 11C126.853 11 127.007 10.9793 127.133 10.9411C127.259 10.9029 127.349 10.8498 127.392 10.7889C127.412 10.7602 127.421 10.7313 127.426 10.7016C127.43 10.6687 127.43 10.6362 127.43 10.6033V10.6027V3.39711V3.39644C127.43 3.36378 127.43 3.33111 127.426 3.29822ZM130.785 3.52088C130.78 3.49132 130.772 3.46221 130.751 3.43332C130.708 3.37266 130.619 3.31955 130.492 3.28132C130.366 3.2431 130.213 3.22266 130.054 3.22266C129.896 3.22266 129.742 3.2431 129.616 3.28132C129.489 3.31955 129.4 3.37266 129.357 3.43332C129.336 3.46221 129.328 3.49132 129.323 3.52088C129.319 3.55377 129.319 3.58643 129.319 3.6191V3.61977V10.3809V10.3815C129.319 10.4144 129.319 10.4469 129.323 10.4798C129.328 10.5095 129.336 10.5384 129.357 10.5671C129.4 10.628 129.489 10.6811 129.616 10.7193C129.742 10.7575 129.896 10.7782 130.054 10.7782C130.213 10.7782 130.366 10.7575 130.492 10.7193C130.619 10.6811 130.708 10.628 130.751 10.5671C130.772 10.5384 130.78 10.5095 130.785 10.4798C130.789 10.4469 130.789 10.4144 130.789 10.3815V10.3809V3.61977V3.6191C130.789 3.58643 130.789 3.55377 130.785 3.52088ZM134.316 4.98899C134.273 4.92832 134.184 4.87521 134.058 4.83699C133.932 4.79876 133.778 4.77832 133.619 4.77832C133.461 4.77832 133.307 4.79876 133.181 4.83699C133.055 4.87521 132.965 4.92832 132.922 4.98899C132.902 5.01788 132.893 5.04699 132.888 5.07654C132.884 5.10943 132.884 5.1421 132.884 5.17476V8.8261C132.884 8.85899 132.884 8.89143 132.888 8.92432C132.893 8.9541 132.902 8.98299 132.922 9.01165C132.965 9.07254 133.055 9.12565 133.181 9.16388C133.307 9.2021 133.461 9.22276 133.619 9.22276C133.778 9.22276 133.932 9.2021 134.058 9.16388C134.184 9.12565 134.273 9.07254 134.316 9.01165C134.337 8.98299 134.346 8.9541 134.35 8.92432C134.355 8.89143 134.355 8.85899 134.355 8.8261V5.17476C134.355 5.1421 134.355 5.10943 134.35 5.07654C134.346 5.04699 134.337 5.01788 134.316 4.98899ZM137.92 3.74256C137.915 3.713 137.906 3.68389 137.886 3.655C137.843 3.59434 137.753 3.54122 137.627 3.503C137.501 3.46478 137.348 3.44434 137.189 3.44434C137.031 3.44434 136.876 3.46478 136.751 3.503C136.624 3.54122 136.535 3.59434 136.492 3.655C136.471 3.68389 136.462 3.713 136.458 3.74256C136.454 3.77545 136.454 3.80811 136.454 3.84078V3.84145V10.1581V10.1588C136.454 10.1917 136.454 10.2241 136.458 10.257C136.462 10.2868 136.471 10.3157 136.492 10.3443C136.535 10.4052 136.624 10.4583 136.751 10.4966C136.876 10.5348 137.031 10.5554 137.189 10.5554C137.348 10.5554 137.501 10.5348 137.627 10.4966C137.753 10.4583 137.843 10.4052 137.886 10.3443C137.906 10.3157 137.915 10.2868 137.92 10.257C137.924 10.2241 137.924 10.1917 137.924 10.1588V10.1581V3.84145V3.84078C137.924 3.80811 137.924 3.77545 137.92 3.74256ZM141.455 0.766331C141.412 0.705664 141.323 0.652553 141.196 0.614331C141.07 0.576109 140.917 0.555664 140.758 0.555664C140.6 0.555664 140.446 0.576109 140.32 0.614331C140.193 0.652553 140.104 0.705664 140.061 0.766331C140.04 0.79522 140.032 0.824331 140.027 0.853886C140.023 0.886775 140.023 0.919442 140.023 0.952109V13.0479C140.023 13.0808 140.023 13.1132 140.027 13.1461C140.032 13.1759 140.04 13.2048 140.061 13.2334C140.104 13.2943 140.193 13.3474 140.32 13.3857C140.446 13.4239 140.6 13.4446 140.758 13.4446C140.917 13.4446 141.07 13.4239 141.196 13.3857C141.323 13.3474 141.412 13.2943 141.455 13.2334C141.476 13.2048 141.484 13.1759 141.489 13.1461C141.493 13.1132 141.493 13.0808 141.493 13.0479V0.952109C141.493 0.919442 141.493 0.886775 141.489 0.853886C141.484 0.824331 141.476 0.79522 141.455 0.766331ZM145.058 4.85389C145.054 4.82433 145.045 4.79522 145.024 4.76633C144.981 4.70566 144.892 4.65255 144.766 4.61433C144.64 4.57611 144.486 4.55566 144.327 4.55566C144.169 4.55566 144.015 4.57611 143.889 4.61433C143.763 4.65255 143.673 4.70566 143.63 4.76633C143.61 4.79522 143.601 4.82433 143.596 4.85389C143.592 4.88678 143.592 4.91944 143.592 4.95211V4.95278V9.04722V9.04789C143.592 9.08078 143.592 9.11322 143.596 9.14611C143.601 9.17589 143.61 9.20477 143.63 9.23344C143.673 9.29433 143.763 9.34744 143.889 9.38566C144.015 9.42389 144.169 9.44455 144.327 9.44455C144.486 9.44455 144.64 9.42389 144.766 9.38566C144.892 9.34744 144.981 9.29433 145.024 9.23344C145.045 9.20477 145.054 9.17589 145.058 9.14611C145.063 9.11322 145.063 9.08078 145.063 9.04789V9.04722V4.95278V4.95211C145.063 4.91944 145.063 4.88678 145.058 4.85389ZM148.384 5.43332C148.341 5.37266 148.251 5.31955 148.125 5.28132C147.999 5.2431 147.846 5.22266 147.687 5.22266C147.529 5.22266 147.374 5.2431 147.249 5.28132C147.122 5.31955 147.033 5.37266 146.99 5.43332C146.969 5.46221 146.96 5.49132 146.956 5.52088C146.952 5.55377 146.952 5.58643 146.952 5.6191V8.38155C146.952 8.41421 146.952 8.44688 146.956 8.47977C146.96 8.50954 146.969 8.53843 146.99 8.5671C147.033 8.62799 147.122 8.6811 147.249 8.71932C147.374 8.75755 147.529 8.77821 147.687 8.77821C147.846 8.77821 147.999 8.75755 148.125 8.71932C148.251 8.6811 148.341 8.62799 148.384 8.5671C148.404 8.53843 148.413 8.50954 148.418 8.47977C148.422 8.44688 148.422 8.41421 148.422 8.38155V5.6191C148.422 5.58643 148.422 5.55377 148.418 5.52088C148.413 5.49132 148.404 5.46221 148.384 5.43332ZM151.987 4.85389C151.982 4.82433 151.974 4.79522 151.953 4.76633C151.91 4.70566 151.821 4.65255 151.694 4.61433C151.568 4.57611 151.415 4.55566 151.256 4.55566C151.098 4.55566 150.944 4.57611 150.818 4.61433C150.691 4.65255 150.602 4.70566 150.559 4.76633C150.539 4.79522 150.53 4.82433 150.525 4.85389C150.521 4.88678 150.521 4.91944 150.521 4.95211V4.95278V9.04722V9.04789C150.521 9.08078 150.521 9.11322 150.525 9.14611C150.53 9.17589 150.539 9.20477 150.559 9.23344C150.602 9.29433 150.691 9.34744 150.818 9.38566C150.944 9.42389 151.098 9.44455 151.256 9.44455C151.415 9.44455 151.568 9.42389 151.694 9.38566C151.821 9.34744 151.91 9.29433 151.953 9.23344C151.974 9.20477 151.982 9.17589 151.987 9.14611C151.991 9.11322 151.991 9.08078 151.991 9.04789V9.04722V4.95278V4.95211C151.991 4.91944 151.991 4.88678 151.987 4.85389ZM155.522 5.87766C155.479 5.81699 155.39 5.76388 155.264 5.72566C155.138 5.68744 154.984 5.66699 154.825 5.66699C154.667 5.66699 154.513 5.68744 154.387 5.72566C154.261 5.76388 154.171 5.81699 154.128 5.87766C154.108 5.90655 154.099 5.93566 154.094 5.96521C154.09 5.9981 154.09 6.03077 154.09 6.06344V7.93699C154.09 7.96966 154.09 8.00233 154.094 8.03521C154.099 8.06499 154.108 8.09388 154.128 8.12277C154.171 8.18344 154.261 8.23655 154.387 8.27477C154.513 8.31299 154.667 8.33366 154.825 8.33366C154.984 8.33366 155.138 8.31299 155.264 8.27477C155.39 8.23655 155.479 8.18344 155.522 8.12277C155.543 8.09388 155.552 8.06499 155.556 8.03521C155.561 8.00233 155.561 7.96966 155.561 7.93699V6.06344C155.561 6.03077 155.561 5.9981 155.556 5.96521C155.552 5.93566 155.543 5.90655 155.522 5.87766ZM159.123 1.74256C159.118 1.713 159.109 1.68389 159.089 1.655C159.046 1.59434 158.956 1.54122 158.83 1.503C158.704 1.46478 158.551 1.44434 158.392 1.44434C158.234 1.44434 158.079 1.46478 157.954 1.503C157.827 1.54122 157.738 1.59434 157.695 1.655C157.674 1.68389 157.665 1.713 157.661 1.74256C157.657 1.77545 157.657 1.80811 157.657 1.84078V1.84145V12.1581V12.1588C157.657 12.1917 157.657 12.2241 157.661 12.257C157.665 12.2868 157.674 12.3157 157.695 12.3443C157.738 12.4052 157.827 12.4583 157.954 12.4966C158.079 12.5348 158.234 12.5554 158.392 12.5554C158.551 12.5554 158.704 12.5348 158.83 12.4966C158.956 12.4583 159.046 12.4052 159.089 12.3443C159.109 12.3157 159.118 12.2868 159.123 12.257C159.127 12.2241 159.127 12.1917 159.127 12.1588V12.1581V1.84145V1.84078C159.127 1.80811 159.127 1.77545 159.123 1.74256ZM162.658 4.43332C162.615 4.37266 162.526 4.31955 162.399 4.28132C162.273 4.2431 162.12 4.22266 161.961 4.22266C161.803 4.22266 161.649 4.2431 161.523 4.28132C161.396 4.31955 161.307 4.37266 161.264 4.43332C161.243 4.46221 161.235 4.49132 161.23 4.52088C161.226 4.55377 161.226 4.58643 161.226 4.6191V4.61977V9.38088V9.38155C161.226 9.41443 161.226 9.44688 161.23 9.47977C161.235 9.50954 161.243 9.53843 161.264 9.5671C161.307 9.62799 161.396 9.6811 161.523 9.71932C161.649 9.75754 161.803 9.77821 161.961 9.77821C162.12 9.77821 162.273 9.75754 162.399 9.71932C162.526 9.6811 162.615 9.62799 162.658 9.5671C162.679 9.53843 162.687 9.50954 162.692 9.47977C162.696 9.44688 162.696 9.41443 162.696 9.38155V4.6191C162.696 4.58643 162.696 4.55377 162.692 4.52088C162.687 4.49132 162.679 4.46221 162.658 4.43332ZM166.051 6.18689C166.047 6.15734 166.038 6.12823 166.017 6.09934C165.974 6.03867 165.885 5.98556 165.759 5.94734C165.633 5.90912 165.479 5.88867 165.32 5.88867C165.162 5.88867 165.008 5.90912 164.882 5.94734C164.756 5.98556 164.666 6.03867 164.623 6.09934C164.603 6.12823 164.594 6.15734 164.589 6.18689C164.585 6.21978 164.585 6.25245 164.585 6.28512V6.28578V7.71356V7.71423C164.585 7.74689 164.585 7.77956 164.589 7.81245C164.594 7.84223 164.603 7.87112 164.623 7.90001C164.666 7.96067 164.756 8.01378 164.882 8.05201C165.008 8.09023 165.162 8.11089 165.32 8.11089C165.479 8.11089 165.633 8.09023 165.759 8.05201C165.885 8.01378 165.974 7.96067 166.017 7.90001C166.038 7.87112 166.047 7.84223 166.051 7.81245C166.056 7.77956 166.056 7.74689 166.056 7.71423V7.71356V6.28578V6.28512C166.056 6.25245 166.056 6.21978 166.051 6.18689ZM169.373 6.32199C169.33 6.26133 169.24 6.20822 169.114 6.16999C168.988 6.13177 168.835 6.11133 168.676 6.11133C168.518 6.11133 168.364 6.13177 168.238 6.16999C168.111 6.20822 168.022 6.26133 167.979 6.32199C167.958 6.35088 167.95 6.37999 167.945 6.40955C167.941 6.44244 167.941 6.47511 167.941 6.50777V7.49244C167.941 7.52511 167.941 7.55777 167.945 7.59066C167.95 7.62044 167.958 7.64933 167.979 7.67822C168.022 7.73888 168.111 7.792 168.238 7.83022C168.364 7.86844 168.518 7.88911 168.676 7.88911C168.835 7.88911 168.988 7.86844 169.114 7.83022C169.24 7.792 169.33 7.73888 169.373 7.67822C169.393 7.64933 169.402 7.62044 169.407 7.59066C169.411 7.55777 169.411 7.52511 169.411 7.49244V6.50777C169.411 6.47511 169.411 6.44244 169.407 6.40955C169.402 6.37999 169.393 6.35088 169.373 6.32199ZM172.976 4.40955C172.972 4.37999 172.963 4.35088 172.942 4.32199C172.899 4.26133 172.81 4.20822 172.683 4.16999C172.558 4.13177 172.404 4.11133 172.245 4.11133C172.087 4.11133 171.933 4.13177 171.807 4.16999C171.681 4.20822 171.591 4.26133 171.548 4.32199C171.528 4.35088 171.519 4.37999 171.514 4.40955C171.51 4.44244 171.51 4.47511 171.51 4.50777V4.50844V9.49177V9.49244C171.51 9.52533 171.51 9.55777 171.514 9.59066C171.519 9.62044 171.528 9.64933 171.548 9.67799C171.591 9.73888 171.681 9.792 171.807 9.83022C171.933 9.86844 172.087 9.88911 172.245 9.88911C172.404 9.88911 172.558 9.86844 172.683 9.83022C172.81 9.792 172.899 9.73888 172.942 9.67799C172.963 9.64933 172.972 9.62044 172.976 9.59066C172.98 9.55777 172.98 9.52533 172.98 9.49244V9.49177V4.50844V4.50777C172.98 4.47511 172.98 4.44244 172.976 4.40955ZM176.301 4.76633C176.258 4.70566 176.168 4.65255 176.042 4.61433C175.916 4.57611 175.762 4.55566 175.604 4.55566C175.445 4.55566 175.291 4.57611 175.165 4.61433C175.039 4.65255 174.95 4.70566 174.907 4.76633C174.886 4.79522 174.877 4.82433 174.873 4.85389C174.868 4.88678 174.868 4.91944 174.868 4.95211V9.04789C174.868 9.08078 174.868 9.11322 174.873 9.14611C174.877 9.17589 174.886 9.20477 174.907 9.23344C174.95 9.29433 175.039 9.34744 175.165 9.38566C175.291 9.42389 175.445 9.44455 175.604 9.44455C175.762 9.44455 175.916 9.42389 176.042 9.38566C176.168 9.34744 176.258 9.29433 176.301 9.23344C176.321 9.20477 176.33 9.17589 176.335 9.14611C176.339 9.11322 176.339 9.08078 176.339 9.04789V4.95211C176.339 4.91944 176.339 4.88678 176.335 4.85389C176.33 4.82433 176.321 4.79522 176.301 4.76633ZM179.904 5.07654C179.899 5.04699 179.89 5.01788 179.87 4.98899C179.827 4.92832 179.738 4.87521 179.611 4.83699C179.485 4.79876 179.332 4.77832 179.173 4.77832C179.015 4.77832 178.861 4.79876 178.735 4.83699C178.608 4.87521 178.519 4.92832 178.476 4.98899C178.455 5.01788 178.447 5.04699 178.442 5.07654C178.438 5.10943 178.438 5.1421 178.438 5.17476V5.17543V8.82543V8.8261C178.438 8.85899 178.438 8.89143 178.442 8.92432C178.447 8.9541 178.455 8.98299 178.476 9.01165C178.519 9.07254 178.608 9.12565 178.735 9.16388C178.861 9.2021 179.015 9.22276 179.173 9.22276C179.332 9.22276 179.485 9.2021 179.611 9.16388C179.738 9.12565 179.827 9.07254 179.87 9.01165C179.89 8.98299 179.899 8.9541 179.904 8.92432C179.908 8.89143 179.908 8.85899 179.908 8.8261V8.82543V5.17543V5.17476C179.908 5.1421 179.908 5.10943 179.904 5.07654ZM183.436 5.54367C183.393 5.48301 183.304 5.4299 183.177 5.39167C183.052 5.35345 182.898 5.33301 182.739 5.33301C182.581 5.33301 182.427 5.35345 182.301 5.39167C182.175 5.4299 182.085 5.48301 182.042 5.54367C182.022 5.57256 182.013 5.60167 182.008 5.63123C182.004 5.66412 182.004 5.69679 182.004 5.72945V8.26967C182.004 8.30234 182.004 8.33501 182.008 8.3679C182.013 8.39767 182.022 8.42656 182.042 8.45545C182.085 8.51612 182.175 8.56923 182.301 8.60745C182.427 8.64567 182.581 8.66634 182.739 8.66634C182.898 8.66634 183.052 8.64567 183.177 8.60745C183.304 8.56923 183.393 8.51612 183.436 8.45545C183.457 8.42656 183.466 8.39767 183.47 8.3679C183.475 8.33501 183.475 8.30234 183.475 8.26967V5.72945C183.475 5.69679 183.475 5.66412 183.47 5.63123C183.466 5.60167 183.457 5.57256 183.436 5.54367ZM187.039 5.96521C187.035 5.93566 187.026 5.90655 187.006 5.87766C186.963 5.81699 186.874 5.76388 186.747 5.72566C186.621 5.68744 186.467 5.66699 186.309 5.66699C186.15 5.66699 185.996 5.68744 185.87 5.72566C185.744 5.76388 185.655 5.81699 185.612 5.87766C185.591 5.90655 185.582 5.93566 185.578 5.96521C185.573 5.9981 185.573 6.03077 185.573 6.06344V6.0641V7.93633V7.93699C185.573 7.96966 185.573 8.00233 185.578 8.03521C185.582 8.06499 185.591 8.09388 185.612 8.12277C185.655 8.18344 185.744 8.23655 185.87 8.27477C185.996 8.31299 186.15 8.33366 186.309 8.33366C186.467 8.33366 186.621 8.31299 186.747 8.27477C186.874 8.23655 186.963 8.18344 187.006 8.12277C187.026 8.09388 187.035 8.06499 187.039 8.03521C187.044 8.00233 187.044 7.96966 187.044 7.93699V7.93633V6.0641V6.06344C187.044 6.03077 187.044 5.9981 187.039 5.96521ZM190.576 6.76633C190.532 6.70566 190.443 6.65255 190.316 6.61433C190.19 6.57611 190.037 6.55566 189.878 6.55566C189.719 6.55566 189.566 6.57611 189.44 6.61433C189.313 6.65255 189.224 6.70566 189.18 6.76633C189.16 6.79522 189.152 6.82433 189.148 6.85389C189.142 6.88678 189.143 6.91944 189.143 6.95211V6.95278V7.04722V7.04789C189.143 7.08055 189.142 7.11322 189.148 7.14611C189.152 7.17589 189.16 7.20478 189.18 7.23366C189.224 7.29433 189.313 7.34744 189.44 7.38566C189.566 7.42389 189.719 7.44455 189.878 7.44455C190.037 7.44455 190.19 7.42389 190.316 7.38566C190.443 7.34744 190.532 7.29433 190.576 7.23366C190.596 7.20478 190.604 7.17589 190.608 7.14611C190.614 7.11322 190.613 7.08055 190.613 7.04789V6.95211C190.613 6.91944 190.614 6.88678 190.608 6.85389C190.604 6.82433 190.596 6.79522 190.576 6.76633ZM194.175 6.40955C194.171 6.37999 194.162 6.35088 194.142 6.32199C194.098 6.26133 194.01 6.20822 193.883 6.16999C193.757 6.13177 193.603 6.11133 193.444 6.11133C193.286 6.11133 193.132 6.13177 193.006 6.16999C192.879 6.20822 192.79 6.26133 192.747 6.32199C192.727 6.35088 192.718 6.37999 192.714 6.40955C192.709 6.44244 192.709 6.47511 192.709 6.50777V6.50844V7.49177V7.49244C192.709 7.52511 192.709 7.55777 192.714 7.59066C192.718 7.62044 192.727 7.64933 192.747 7.67822C192.79 7.73888 192.879 7.792 193.006 7.83022C193.132 7.86844 193.286 7.88911 193.444 7.88911C193.603 7.88911 193.757 7.86844 193.883 7.83022C194.01 7.792 194.098 7.73888 194.142 7.67822C194.162 7.64933 194.171 7.62044 194.175 7.59066C194.18 7.55777 194.18 7.52511 194.18 7.49244V7.49177V6.50844V6.50777C194.18 6.47511 194.18 6.44244 194.175 6.40955ZM197.534 6.40955C197.53 6.37999 197.521 6.35088 197.501 6.32199C197.458 6.26133 197.369 6.20822 197.242 6.16999C197.116 6.13177 196.963 6.11133 196.804 6.11133C196.645 6.11133 196.491 6.13177 196.366 6.16999C196.239 6.20822 196.15 6.26133 196.106 6.32199C196.086 6.35088 196.077 6.37999 196.073 6.40955C196.068 6.44244 196.069 6.47511 196.069 6.50777V6.50844V7.49177V7.49244C196.069 7.52511 196.068 7.55777 196.073 7.59066C196.077 7.62044 196.086 7.64933 196.106 7.67822C196.15 7.73888 196.239 7.792 196.366 7.83022C196.491 7.86844 196.645 7.88911 196.804 7.88911C196.963 7.88911 197.116 7.86844 197.242 7.83022C197.369 7.792 197.458 7.73888 197.501 7.67822C197.521 7.64933 197.53 7.62044 197.534 7.59066C197.54 7.55777 197.539 7.52511 197.539 7.49244V7.49177V6.50844V6.50777C197.539 6.47511 197.54 6.44244 197.534 6.40955ZM201.071 6.655C201.027 6.59434 200.938 6.54122 200.811 6.503C200.685 6.46478 200.532 6.44434 200.373 6.44434C200.214 6.44434 200.061 6.46478 199.935 6.503C199.808 6.54122 199.719 6.59434 199.675 6.655C199.656 6.68389 199.647 6.713 199.643 6.74256C199.637 6.77545 199.638 6.80811 199.638 6.84078V6.84145V7.15811V7.15878C199.638 7.19145 199.637 7.22411 199.643 7.257C199.647 7.28678 199.656 7.31567 199.675 7.34456C199.719 7.40522 199.808 7.45834 199.935 7.49656C200.061 7.53478 200.214 7.55545 200.373 7.55545C200.532 7.55545 200.685 7.53478 200.811 7.49656C200.938 7.45834 201.027 7.40522 201.071 7.34456C201.091 7.31567 201.099 7.28678 201.104 7.257C201.109 7.22411 201.108 7.19145 201.108 7.15878V6.84078C201.108 6.80811 201.109 6.77545 201.104 6.74256C201.099 6.713 201.091 6.68389 201.071 6.655ZM204.43 6.76633C204.386 6.70566 204.298 6.65255 204.171 6.61433C204.045 6.57611 203.891 6.55566 203.732 6.55566C203.574 6.55566 203.42 6.57611 203.294 6.61433C203.167 6.65255 203.078 6.70566 203.035 6.76633C203.015 6.79522 203.006 6.82433 203.002 6.85389C202.997 6.88678 202.997 6.91944 202.997 6.95211V7.04789C202.997 7.08055 202.997 7.11322 203.002 7.14611C203.006 7.17589 203.015 7.20478 203.035 7.23366C203.078 7.29433 203.167 7.34744 203.294 7.38566C203.42 7.42389 203.574 7.44455 203.732 7.44455C203.891 7.44455 204.045 7.42389 204.171 7.38566C204.298 7.34744 204.386 7.29433 204.43 7.23366C204.45 7.20478 204.459 7.17589 204.463 7.14611C204.468 7.11322 204.468 7.08055 204.468 7.04789V6.95211C204.468 6.91944 204.468 6.88678 204.463 6.85389C204.459 6.82433 204.45 6.79522 204.43 6.76633ZM207.706 6.83699C207.58 6.79876 207.426 6.77832 207.268 6.77832C207.109 6.77832 206.955 6.79876 206.829 6.83699C206.702 6.87521 206.614 6.92832 206.57 6.98899C206.568 6.99276 206.569 6.99676 206.567 7.00054C206.569 7.00432 206.568 7.0081 206.57 7.01188C206.614 7.07254 206.702 7.12565 206.829 7.16388C206.955 7.2021 207.109 7.22276 207.268 7.22276C207.426 7.22276 207.58 7.2021 207.706 7.16388C207.833 7.12565 207.922 7.07254 207.965 7.01188C207.967 7.0081 207.966 7.00432 207.969 7.00054C207.966 6.99676 207.967 6.99276 207.965 6.98899C207.922 6.92832 207.833 6.87521 207.706 6.83699ZM206.357 6.82586V6.8252V7.1752V7.17453C206.357 7.14186 206.356 7.1092 206.361 7.07631C206.365 7.05053 206.375 7.02542 206.391 7.00031C206.375 6.97497 206.365 6.94986 206.361 6.92408C206.356 6.8912 206.357 6.85853 206.357 6.82586ZM207.856 6.92408C207.852 6.94986 207.842 6.97497 207.826 7.00031C207.842 7.02542 207.852 7.05053 207.856 7.07631C207.861 7.1092 207.86 7.14186 207.86 7.17453V7.1752V6.8252V6.82586C207.86 6.85853 207.861 6.8912 207.856 6.92408ZM211.065 6.83699C210.939 6.79876 210.786 6.77832 210.627 6.77832C210.468 6.77832 210.315 6.79876 210.189 6.83699C210.062 6.87521 209.973 6.92832 209.929 6.98899C209.928 6.99276 209.928 6.99676 209.926 7.00054C209.928 7.00432 209.928 7.0081 209.929 7.01188C209.973 7.07254 210.062 7.12565 210.189 7.16388C210.315 7.2021 210.468 7.22276 210.627 7.22276C210.786 7.22276 210.939 7.2021 211.065 7.16388C211.192 7.12565 211.281 7.07254 211.325 7.01188C211.326 7.0081 211.326 7.00432 211.328 7.00054C211.326 6.99676 211.326 6.99276 211.325 6.98899C211.281 6.92832 211.192 6.87521 211.065 6.83699ZM211.396 6.99964C211.411 7.02475 211.421 7.04986 211.425 7.07564C211.43 7.10853 211.43 7.1412 211.43 7.17386V6.8252C211.43 6.85786 211.43 6.89053 211.425 6.92342C211.421 6.9492 211.411 6.97431 211.396 6.99964ZM209.926 6.8252V7.17386C209.926 7.1412 209.925 7.10853 209.931 7.07564C209.934 7.04986 209.944 7.02475 209.96 6.99964C209.944 6.97431 209.934 6.9492 209.931 6.92342C209.925 6.89053 209.926 6.85786 209.926 6.8252ZM214.634 6.83699C214.509 6.79876 214.355 6.77832 214.196 6.77832C214.037 6.77832 213.884 6.79876 213.758 6.83699C213.631 6.87521 213.542 6.92832 213.499 6.98899C213.497 6.99276 213.498 6.99676 213.495 7.00054C213.498 7.00432 213.497 7.0081 213.499 7.01188C213.542 7.07254 213.631 7.12565 213.758 7.16388C213.884 7.2021 214.037 7.22276 214.196 7.22276C214.355 7.22276 214.509 7.2021 214.634 7.16388C214.762 7.12565 214.85 7.07254 214.894 7.01188C214.896 7.0081 214.895 7.00432 214.897 7.00054C214.895 6.99676 214.896 6.99276 214.894 6.98899C214.85 6.92832 214.762 6.87521 214.634 6.83699ZM213.495 6.82586V6.8252V7.1752V7.17453C213.495 7.14186 213.495 7.1092 213.5 7.07631C213.503 7.05053 213.513 7.02542 213.529 7.00031C213.513 6.97497 213.503 6.94986 213.5 6.92408C213.495 6.8912 213.495 6.85853 213.495 6.82586ZM215 6.82586C215 6.85853 215.001 6.8912 214.995 6.92408C214.992 6.94986 214.982 6.97497 214.966 7.00031C214.982 7.02542 214.992 7.05053 214.995 7.07631C215.001 7.1092 215 7.14186 215 7.17453V7.1752V6.8252V6.82586ZM1.46973 7.00052C1.4709 7.02141 1.47267 7.04252 1.47267 7.06363V7.0643V6.93652V6.93719C1.47267 6.9583 1.4709 6.97941 1.46973 7.00052ZM0 6.93652V7.0643V7.06363C0 7.04252 0.00176444 7.02141 0.00294073 7.00052C0.00176444 6.97941 0 6.9583 0 6.93719V6.93652ZM1.4292 6.87766C1.38626 6.81699 1.29686 6.76388 1.17041 6.72566C1.04455 6.68744 0.891042 6.66699 0.732242 6.66699C0.574031 6.66699 0.419937 6.68744 0.294073 6.72566C0.167622 6.76388 0.0782235 6.81699 0.0352888 6.87766C0.0147037 6.90655 0.00588147 6.93566 0.00117629 6.96521C-0.000588146 6.97699 0.000588147 6.98855 0 7.00033C0.000588147 7.01188 -0.000588146 7.02366 0.00117629 7.03521C0.00588147 7.06499 0.0147037 7.09388 0.0352888 7.12277C0.0782235 7.18344 0.167622 7.23655 0.294073 7.27477C0.419937 7.31299 0.574031 7.33366 0.732242 7.33366C0.891042 7.33366 1.04455 7.31299 1.17041 7.27477C1.29686 7.23655 1.38626 7.18344 1.4292 7.12277C1.44978 7.09388 1.4586 7.06499 1.46331 7.03521C1.46507 7.02366 1.4639 7.01188 1.46448 7.00033C1.4639 6.98855 1.46507 6.97699 1.46331 6.96521C1.4586 6.93566 1.44978 6.90655 1.4292 6.87766Z" fill="#00398C"/>
</svg>
