<svg width="224" height="164" viewBox="0 0 224 164" fill="none" xmlns="http://www.w3.org/2000/svg">
<circle cx="112.214" cy="75" r="58" fill="#EDEDED"/>
<path d="M118.049 84.3477C117.644 83.9138 117.418 83.3421 117.418 82.7484V21.0983C117.418 19.7995 116.357 18.7444 115.059 18.7961C79.4867 20.2146 51.0857 49.2733 51.0857 84.9231C51.0857 121.358 80.9479 151.114 117.78 151.114C134.656 151.114 150.061 144.88 161.808 134.619C162.782 133.768 162.828 132.284 161.946 131.34L118.049 84.3477Z" fill="#00398C"/>
<path d="M113.025 86.5603C112.624 86.1271 112.401 85.5582 112.401 84.9675V21.8044C112.401 20.5055 111.339 19.4505 110.041 19.5019C73.9003 20.9348 45.0394 50.6761 45.0394 87.1662C45.0394 124.447 75.3648 154.895 112.768 154.895C129.928 154.895 145.59 148.499 157.526 137.975C158.49 137.125 158.536 135.65 157.662 134.708L113.025 86.5603Z" fill="#FFF1CC"/>
<path fill-rule="evenodd" clip-rule="evenodd" d="M110.058 21.846V84.9675C110.058 86.1489 110.504 87.2868 111.307 88.1532L155.916 136.27C144.399 146.401 129.306 152.552 112.768 152.552C76.6615 152.552 47.3823 123.156 47.3823 87.1662C47.3823 51.9653 75.2036 23.2682 110.058 21.846ZM112.401 84.9675C112.401 85.5582 112.624 86.1271 113.025 86.5603L157.662 134.708C158.536 135.65 158.49 137.125 157.526 137.975C145.59 148.499 129.928 154.895 112.768 154.895C75.3648 154.895 45.0394 124.447 45.0394 87.1662C45.0394 50.6761 73.9003 20.9348 110.041 19.5019C111.339 19.4505 112.401 20.5055 112.401 21.8044V84.9675Z" fill="#00398C"/>
<path d="M125.224 75.3337C123.925 75.3418 122.867 74.2905 122.867 72.9909V9.53988C122.867 8.24595 123.921 7.19288 125.214 7.23693C160.756 8.4475 189.353 37.0489 190.556 72.5931C190.599 73.8806 189.555 74.932 188.267 74.94L125.224 75.3337Z" fill="#F8B499"/>
<path fill-rule="evenodd" clip-rule="evenodd" d="M125.21 9.58105V72.9909L188.212 72.5975C187.014 38.3447 159.46 10.7868 125.21 9.58105ZM122.867 72.9909C122.867 74.2905 123.925 75.3418 125.224 75.3337L188.267 74.94C189.555 74.932 190.599 73.8806 190.556 72.5931C189.353 37.0489 160.756 8.4475 125.214 7.23693C123.921 7.19288 122.867 8.24595 122.867 9.53988V72.9909Z" fill="#00398C"/>
<path d="M70.7798 110.336H30.9395C26.5389 110.336 22.9714 113.904 22.9714 118.304C22.9714 122.705 26.5389 126.272 30.9395 126.272H70.7798C75.1804 126.272 78.7478 122.705 78.7478 118.304C78.7478 113.904 75.1804 110.336 70.7798 110.336Z" fill="white"/>
<path fill-rule="evenodd" clip-rule="evenodd" d="M70.7798 112.679H30.9395C27.8328 112.679 25.3143 115.198 25.3143 118.304C25.3143 121.411 27.8328 123.929 30.9395 123.929H70.7798C73.8865 123.929 76.405 121.411 76.405 118.304C76.405 115.198 73.8865 112.679 70.7798 112.679ZM30.9395 110.336H70.7798C75.1804 110.336 78.7478 113.904 78.7478 118.304C78.7478 122.705 75.1804 126.272 70.7798 126.272H30.9395C26.5389 126.272 22.9714 122.705 22.9714 118.304C22.9714 113.904 26.5389 110.336 30.9395 110.336Z" fill="#00398C"/>
<path d="M65.7285 113.043H36.4428C33.208 113.043 30.5857 115.141 30.5857 117.729C30.5857 120.316 33.208 122.414 36.4428 122.414H65.7285C68.9634 122.414 71.5857 120.316 71.5857 117.729C71.5857 115.141 68.9634 113.043 65.7285 113.043Z" fill="#D8E5F8"/>
<path d="M70.7798 125.282H30.9395C26.5389 125.282 22.9714 128.85 22.9714 133.25C22.9714 137.651 26.5389 141.218 30.9395 141.218H70.7798C75.1804 141.218 78.7478 137.651 78.7478 133.25C78.7478 128.85 75.1804 125.282 70.7798 125.282Z" fill="white"/>
<path fill-rule="evenodd" clip-rule="evenodd" d="M70.7798 127.625H30.9395C27.8328 127.625 25.3143 130.144 25.3143 133.25C25.3143 136.357 27.8328 138.875 30.9395 138.875H70.7798C73.8865 138.875 76.405 136.357 76.405 133.25C76.405 130.144 73.8865 127.625 70.7798 127.625ZM30.9395 125.282H70.7798C75.1804 125.282 78.7478 128.85 78.7478 133.25C78.7478 137.651 75.1804 141.218 70.7798 141.218H30.9395C26.5389 141.218 22.9714 137.651 22.9714 133.25C22.9714 128.85 26.5389 125.282 30.9395 125.282Z" fill="#00398C"/>
<path d="M70.7798 139.695H30.9395C26.5389 139.695 22.9714 143.263 22.9714 147.663C22.9714 152.064 26.5389 155.631 30.9395 155.631H70.7798C75.1804 155.631 78.7478 152.064 78.7478 147.663C78.7478 143.263 75.1804 139.695 70.7798 139.695Z" fill="white"/>
<path fill-rule="evenodd" clip-rule="evenodd" d="M70.7798 142.038H30.9395C27.8328 142.038 25.3143 144.557 25.3143 147.663C25.3143 150.77 27.8328 153.288 30.9395 153.288H70.7798C73.8865 153.288 76.405 150.77 76.405 147.663C76.405 144.557 73.8865 142.038 70.7798 142.038ZM30.9395 139.695H70.7798C75.1804 139.695 78.7478 143.263 78.7478 147.663C78.7478 152.064 75.1804 155.631 70.7798 155.631H30.9395C26.5389 155.631 22.9714 152.064 22.9714 147.663C22.9714 143.263 26.5389 139.695 30.9395 139.695Z" fill="#00398C"/>
<path d="M65.7285 128.271H36.4428C33.208 128.271 30.5857 130.369 30.5857 132.957C30.5857 135.545 33.208 137.643 36.4428 137.643H65.7285C68.9634 137.643 71.5857 135.545 71.5857 132.957C71.5857 130.369 68.9634 128.271 65.7285 128.271Z" fill="#D8E5F8"/>
<path d="M65.7285 142.329H36.4428C33.208 142.329 30.5857 144.426 30.5857 147.014C30.5857 149.602 33.208 151.7 36.4428 151.7H65.7285C68.9634 151.7 71.5857 149.602 71.5857 147.014C71.5857 144.426 68.9634 142.329 65.7285 142.329Z" fill="#D8E5F8"/>
<path fill-rule="evenodd" clip-rule="evenodd" d="M215.671 90.2C215.671 96.9931 210.165 102.5 203.371 102.5C196.578 102.5 191.071 96.9931 191.071 90.2C191.071 83.4069 196.578 77.9 203.371 77.9C210.165 77.9 215.671 83.4069 215.671 90.2ZM207.471 90.1991C207.471 87.9347 205.635 86.0991 203.371 86.0991C201.106 86.0991 199.271 87.9347 199.271 90.1991C199.271 92.4634 201.106 94.2991 203.371 94.2991C205.635 94.2991 207.471 92.4634 207.471 90.1991Z" fill="#FCDACC"/>
<path d="M50.8596 110.269C64.0615 110.269 74.7638 99.567 74.7638 86.3651C74.7638 73.1632 64.0615 62.4609 50.8596 62.4609C37.6577 62.4609 26.9554 73.1632 26.9554 86.3651C26.9554 99.567 37.6577 110.269 50.8596 110.269Z" fill="#FFE399"/>
<path fill-rule="evenodd" clip-rule="evenodd" d="M50.8596 107.926C62.7676 107.926 72.4209 98.2731 72.4209 86.3651C72.4209 74.4571 62.7676 64.8038 50.8596 64.8038C38.9516 64.8038 29.2983 74.4571 29.2983 86.3651C29.2983 98.2731 38.9516 107.926 50.8596 107.926ZM74.7638 86.3651C74.7638 99.567 64.0615 110.269 50.8596 110.269C37.6577 110.269 26.9554 99.567 26.9554 86.3651C26.9554 73.1632 37.6577 62.4609 50.8596 62.4609C64.0615 62.4609 74.7638 73.1632 74.7638 86.3651Z" fill="#00398C"/>
<path d="M176.747 135.42C176.75 135.42 176.753 135.419 176.755 135.417C190.576 125.798 197.956 106.371 198.634 90.752C198.69 89.4593 197.637 88.4131 196.343 88.4131H136.347C134.272 88.4131 133.221 90.9105 134.671 92.3938L176.736 135.416C176.739 135.419 176.742 135.42 176.747 135.42Z" fill="#CCEDD9"/>
<path fill-rule="evenodd" clip-rule="evenodd" d="M196.289 90.7559C195.63 105.281 188.992 122.928 176.994 132.329L136.347 90.7559H196.289ZM176.752 135.419C176.751 135.42 176.749 135.42 176.747 135.42C176.742 135.42 176.739 135.419 176.736 135.416L134.671 92.3938C133.221 90.9105 134.272 88.4131 136.347 88.4131H196.343C197.637 88.4131 198.69 89.4593 198.634 90.752C197.956 106.371 190.576 125.798 176.755 135.417C176.754 135.418 176.753 135.419 176.752 135.419Z" fill="#00398C"/>
<path fill-rule="evenodd" clip-rule="evenodd" d="M199.623 39.8638L196.248 36.4885C195.358 35.5992 193.894 35.5992 193.004 36.4885C192.115 37.3778 192.115 38.8426 193.004 39.7319L196.38 43.1072L193.004 46.4825C192.115 47.3718 192.115 48.8366 193.004 49.7259C193.894 50.6152 195.358 50.6152 196.248 49.7259L199.623 46.3507L202.996 49.7237C203.885 50.613 205.35 50.613 206.24 49.7237C207.129 48.8344 207.129 47.3696 206.24 46.4803L202.867 43.1072L206.24 39.7342C207.129 38.8448 207.129 37.38 206.24 36.4907C205.35 35.6014 203.885 35.6014 202.996 36.4907L199.623 39.8638Z" fill="#EDEDED"/>
<path d="M43.5815 84.7406C43.2699 84.3511 43.1252 83.9504 43.1475 83.5276C43.1698 83.1047 43.3478 82.7152 43.6928 82.3702C44.0267 82.0252 44.5274 81.836 45.184 81.8026H54.0424C53.7308 80.879 53.1743 80.1556 52.3731 79.6214C51.7165 79.2097 51.071 78.9426 50.4256 78.809C49.7801 78.6755 49.1347 78.5976 48.4781 78.5753C47.8215 78.5531 47.1538 78.5531 46.4749 78.5753C45.7961 78.5976 45.095 78.5642 44.3716 78.4641L43.6817 78.4307C43.192 78.2415 42.8693 77.9855 42.6801 77.6851C42.502 77.3846 42.4353 77.073 42.4798 76.7391C42.5243 76.4164 42.6578 76.1048 42.8804 75.8266C43.103 75.5484 43.3812 75.3369 43.7151 75.1923C45.9185 75.1923 48.1331 75.1923 50.3588 75.2145C52.5845 75.2256 54.9438 75.2145 57.4366 75.1923C57.993 75.3592 58.4159 75.604 58.7052 75.9379C58.9946 76.2606 59.1504 76.6056 59.1726 76.9728C59.1949 77.3401 59.0725 77.6739 58.8054 77.9855C58.5383 78.2971 58.1266 78.5197 57.5701 78.6421H56.4795C56.8134 79.1318 57.0916 79.6326 57.2919 80.1667C57.4922 80.7009 57.648 81.2462 57.7482 81.8026H59.5955C60.152 81.9696 60.5637 82.2366 60.8308 82.5816C61.0979 82.9377 61.2203 83.305 61.198 83.6945C61.1758 84.084 61.02 84.4401 60.7306 84.7628C60.4413 85.0856 60.0184 85.3193 59.462 85.4305H57.47C57.2808 86.0537 57.0026 86.6436 56.6576 87.2111C56.3015 87.7787 55.8786 88.2795 55.3667 88.7357C54.354 89.6594 53.319 90.3605 52.2841 90.839C51.238 91.3287 50.0472 91.6626 48.6895 91.8517C50.6482 93.7213 52.5845 95.5798 54.4986 97.4494C54.8325 97.9057 54.9994 98.362 54.9883 98.8071C54.9772 99.2522 54.8436 99.6195 54.6099 99.92C54.3651 100.209 54.0312 100.398 53.5972 100.488C53.1632 100.577 52.6847 100.488 52.1839 100.22C50.7261 98.8182 49.2793 97.416 47.8438 96.025C46.4082 94.6339 44.9615 93.2428 43.5036 91.8629C43.2143 91.4734 43.0585 91.1061 43.0362 90.75C43.014 90.405 43.0696 90.0823 43.2143 89.7929C43.3589 89.5036 43.5704 89.2588 43.8486 89.0473C44.1268 88.8359 44.4162 88.7024 44.7055 88.6245C45.4511 88.6022 46.1967 88.5577 46.9201 88.4798C47.6434 88.413 48.3557 88.2795 49.0679 88.1014C49.769 87.9233 50.459 87.6674 51.1156 87.3447C51.7833 87.0219 52.4065 86.599 52.9852 86.0649C53.1743 85.9202 53.3747 85.7088 53.5638 85.4194H45.0282C44.3716 85.3526 43.8931 85.1189 43.5704 84.7294L43.5815 84.7406Z" fill="#00398C"/>
<path d="M44.9785 29.3714C48.3987 29.3714 51.1714 26.5988 51.1714 23.1785C51.1714 19.7583 48.3987 16.9857 44.9785 16.9857C41.5583 16.9857 38.7857 19.7583 38.7857 23.1785C38.7857 26.5988 41.5583 29.3714 44.9785 29.3714Z" fill="#F6CDD5"/>
<path d="M170.845 156.182H51.5838C51.3812 156.182 51.2143 155.653 51.2143 155.011C51.2143 154.368 51.3812 153.839 51.5838 153.839H170.845C171.047 153.839 171.214 154.368 171.214 155.011C171.214 155.653 171.047 156.182 170.845 156.182Z" fill="#00398C"/>
<path d="M12.6019 104.5C14.502 104.5 16.0424 102.959 16.0424 101.059C16.0424 99.159 14.502 97.6187 12.6019 97.6187C10.7018 97.6187 9.16144 99.159 9.16144 101.059C9.16144 102.959 10.7018 104.5 12.6019 104.5Z" fill="#D8E5F8"/>
</svg>
