<svg width="121" height="111" viewBox="0 0 121 111" fill="none" xmlns="http://www.w3.org/2000/svg">
<g clip-path="url(#clip0_729_55489)">
<path d="M32.3652 97.2322L58.0759 9.21577C58.5591 7.41865 60.1951 6.16406 62.0601 6.16406H71.1813C73.0632 6.16406 74.7077 7.43561 75.1739 9.25816L100.173 97.105" fill="#FCDACC"/>
<mask id="mask0_729_55489" style="mask-type:luminance" maskUnits="userSpaceOnUse" x="32" y="6" width="69" height="92">
<path d="M32.3652 97.2322L58.0759 9.21577C58.5591 7.41865 60.1951 6.16406 62.0601 6.16406H71.1813C73.0632 6.16406 74.7077 7.43561 75.1739 9.25816L100.173 97.105" fill="white"/>
</mask>
<g mask="url(#mask0_729_55489)">
<path d="M64.8832 4.54366L38.3673 110.853L8.31641 110.599L49.7264 0L64.8832 4.54366Z" fill="#F8B499"/>
</g>
<path d="M84.1091 38.2901L49.3789 38.2307L52.7951 26.5664H80.8624L84.1091 38.2901Z" fill="white"/>
<path d="M94.28 74.8838L37.5098 74.8245L40.926 63.1602H91.0334L94.28 74.8838Z" fill="white"/>
<path d="M102.699 81.7539H106.938" stroke="#333333" stroke-miterlimit="10" stroke-linecap="round"/>
<path d="M104.816 79.6328V83.8713" stroke="#333333" stroke-miterlimit="10" stroke-linecap="round"/>
<path d="M37.84 10.4944C39.2445 10.4944 40.3831 9.3558 40.3831 7.95129C40.3831 6.54678 39.2445 5.4082 37.84 5.4082C36.4355 5.4082 35.2969 6.54678 35.2969 7.95129C35.2969 9.3558 36.4355 10.4944 37.84 10.4944Z" fill="#FCDACC"/>
<path d="M98.4767 54.135C99.8812 54.135 101.02 52.9964 101.02 51.5919C101.02 50.1874 99.8812 49.0488 98.4767 49.0488C97.0722 49.0488 95.9336 50.1874 95.9336 51.5919C95.9336 52.9964 97.0722 54.135 98.4767 54.135Z" fill="#FCDACC"/>
<path d="M90.6456 31.9591C91.2308 31.9591 91.7052 31.4847 91.7052 30.8995C91.7052 30.3143 91.2308 29.8398 90.6456 29.8398C90.0603 29.8398 89.5859 30.3143 89.5859 30.8995C89.5859 31.4847 90.0603 31.9591 90.6456 31.9591Z" fill="#FCDACC"/>
<path d="M21.3457 68.0019C22.2399 68.0019 22.9648 67.277 22.9648 66.3828C22.9648 65.4886 22.2399 64.7637 21.3457 64.7637C20.4515 64.7637 19.7266 65.4886 19.7266 66.3828C19.7266 67.277 20.4515 68.0019 21.3457 68.0019Z" fill="#FCDACC"/>
<path d="M86.8711 5.24609H93.7035" stroke="#333333" stroke-miterlimit="10" stroke-linecap="round"/>
<path d="M90.2891 1.83203V8.65599" stroke="#333333" stroke-miterlimit="10" stroke-linecap="round"/>
<path d="M28.4648 97.2045L54.1755 6.92476C54.6587 5.12764 56.2947 3.87305 58.1597 3.87305H67.2809C69.1628 3.87305 70.8073 5.14459 71.2736 6.96714L96.2721 97.196" stroke="#333333" stroke-linecap="round" stroke-linejoin="round"/>
<path d="M11.2227 97.248H112.946" stroke="#333333" stroke-linecap="round" stroke-linejoin="round"/>
<path d="M0.78125 102.461H92.0358" stroke="#333333" stroke-linecap="round" stroke-linejoin="round"/>
<path d="M95.6797 102.461H119.932" stroke="#333333" stroke-linecap="round" stroke-linejoin="round"/>
<path d="M76.5885 26.8125H48.6484" stroke="#333333" stroke-linecap="round" stroke-linejoin="round"/>
<path d="M45.3359 38.1973H79.8203" stroke="#333333" stroke-linecap="round" stroke-linejoin="round"/>
<path d="M38.418 63.2461H86.6519" stroke="#333333" stroke-linecap="round" stroke-linejoin="round"/>
<path d="M35.0703 74.6211H89.8994" stroke="#333333" stroke-linecap="round" stroke-linejoin="round"/>
<path d="M29.1344 106.675C37.1823 106.675 43.7063 100.151 43.7063 92.1032C43.7063 84.0553 37.1823 77.5312 29.1344 77.5312C21.0866 77.5312 14.5625 84.0553 14.5625 92.1032C14.5625 100.151 21.0866 106.675 29.1344 106.675Z" fill="white" stroke="#333333" stroke-miterlimit="10"/>
<path d="M30.2803 103.496C36.9892 103.496 42.4278 98.0576 42.4278 91.3487C42.4278 84.6398 36.9892 79.2012 30.2803 79.2012C23.5714 79.2012 18.1328 84.6398 18.1328 91.3487C18.1328 98.0576 23.5714 103.496 30.2803 103.496Z" fill="#ECF2FB"/>
<path d="M29.1358 104.248C35.8447 104.248 41.2833 98.8095 41.2833 92.1006C41.2833 85.3917 35.8447 79.9531 29.1358 79.9531C22.4269 79.9531 16.9883 85.3917 16.9883 92.1006C16.9883 98.8095 22.4269 104.248 29.1358 104.248Z" stroke="#333333" stroke-miterlimit="10"/>
<path d="M29.1689 95.533C28.3975 95.533 27.7617 94.9057 27.7617 94.1259V85.9541C27.7617 85.1827 28.389 84.5469 29.1689 84.5469C29.9488 84.5469 30.5761 85.1742 30.5761 85.9541V94.1259C30.5761 94.8973 29.9488 95.533 29.1689 95.533Z" fill="#333333"/>
<path d="M29.1689 99.3925C29.9461 99.3925 30.5761 98.7625 30.5761 97.9853C30.5761 97.2081 29.9461 96.5781 29.1689 96.5781C28.3917 96.5781 27.7617 97.2081 27.7617 97.9853C27.7617 98.7625 28.3917 99.3925 29.1689 99.3925Z" fill="#333333"/>
</g>
<defs>
<clipPath id="clip0_729_55489">
<rect width="120" height="110.853" fill="white" transform="translate(0.355469)"/>
</clipPath>
</defs>
</svg>
