<svg width="75" height="57" viewBox="0 0 75 57" fill="none" xmlns="http://www.w3.org/2000/svg">
<path d="M52.7825 57.0018C64.5872 57.0018 74.1568 55.2047 74.1568 52.9879C74.1568 50.771 64.5872 48.9739 52.7825 48.9739C40.9778 48.9739 31.4082 50.771 31.4082 52.9879C31.4082 55.2047 40.9778 57.0018 52.7825 57.0018Z" fill="#F3F4F6"/>
<path d="M59.5907 16.8887V10.675C59.5907 9.09789 58.4346 7.81721 57.0057 7.81721H33.2775C32.3348 7.81721 31.4692 7.25395 31.0126 6.34087L29.2695 2.84865C28.813 1.93558 27.9473 1.37231 27.0046 1.37231H14.7433C13.3144 1.37231 12.1582 2.65299 12.1582 4.23012V16.8946H59.5907V16.8887Z" fill="#FFF1CC"/>
<path d="M10.2246 6.7101V36.5689C10.2246 38.146 11.3808 39.4267 12.8097 39.4267H55.0721C56.501 39.4267 57.6571 38.146 57.6571 36.5689V13.155C57.6571 11.5779 56.501 10.2972 55.0721 10.2972H31.3439C30.4012 10.2972 29.5356 9.73393 29.079 8.82085L27.3359 5.32863C26.8794 4.41556 26.0137 3.85229 25.071 3.85229H12.8097C11.3808 3.85229 10.2246 5.13297 10.2246 6.7101Z" stroke="#333333" stroke-miterlimit="10"/>
<path d="M57.1503 38.6308C56.9188 38.3993 56.5434 38.3993 56.3118 38.6308C56.0803 38.8623 56.0803 39.2378 56.3118 39.4693L60.5043 43.6618C60.7359 43.8933 61.1113 43.8933 61.3428 43.6618C61.5744 43.4302 61.5743 43.0548 61.3428 42.8233L57.1503 38.6308Z" stroke="#333333" stroke-miterlimit="10"/>
<path d="M47.9251 44.2227C55.784 44.2227 62.1548 37.8518 62.1548 29.9929C62.1548 22.1341 55.784 15.7632 47.9251 15.7632C40.0662 15.7632 33.6953 22.1341 33.6953 29.9929C33.6953 37.8518 40.0662 44.2227 47.9251 44.2227Z" fill="white" stroke="#333333" stroke-miterlimit="10"/>
<path d="M49.114 41.2583C55.6631 41.2583 60.9721 35.9492 60.9721 29.4001C60.9721 22.8511 55.6631 17.542 49.114 17.542C42.5649 17.542 37.2559 22.8511 37.2559 29.4001C37.2559 35.9492 42.5649 41.2583 49.114 41.2583Z" fill="#ECF2FB"/>
<path d="M47.9245 41.8498C54.4736 41.8498 59.7827 36.5407 59.7827 29.9917C59.7827 23.4426 54.4736 18.1335 47.9245 18.1335C41.3755 18.1335 36.0664 23.4426 36.0664 29.9917C36.0664 36.5407 41.3755 41.8498 47.9245 41.8498Z" stroke="#333333" stroke-miterlimit="10"/>
<path d="M64.3044 43.2669C63.3782 42.3407 61.8766 42.3407 60.9504 43.2669C60.0243 44.193 60.0243 45.6947 60.9504 46.6208L67.6584 53.3288C68.5846 54.255 70.0862 54.255 71.0124 53.3288C71.9386 52.4026 71.9386 50.901 71.0124 49.9748L64.3044 43.2669Z" fill="#ED9BAB" stroke="#333333" stroke-miterlimit="10"/>
<path d="M10.416 19.5635H38.2233" stroke="#333333" stroke-miterlimit="10" stroke-linecap="round"/>
<path d="M59.3613 3.96655H65.2904" stroke="#333333" stroke-miterlimit="10" stroke-linecap="round"/>
<path d="M62.3125 1V6.92907" stroke="#333333" stroke-miterlimit="10" stroke-linecap="round"/>
<path d="M63.4453 37.3394H66.4098" stroke="#333333" stroke-miterlimit="10" stroke-linecap="round"/>
<path d="M64.9121 35.8567V38.8212" stroke="#333333" stroke-miterlimit="10" stroke-linecap="round"/>
<path d="M4.33984 10.6116H7.30438" stroke="#333333" stroke-miterlimit="10" stroke-linecap="round"/>
<path d="M5.81836 9.12964V12.0942" stroke="#333333" stroke-miterlimit="10" stroke-linecap="round"/>
<path d="M65.4193 14.9515C66.4017 14.9515 67.1981 14.1551 67.1981 13.1728C67.1981 12.1904 66.4017 11.394 65.4193 11.394C64.437 11.394 63.6406 12.1904 63.6406 13.1728C63.6406 14.1551 64.437 14.9515 65.4193 14.9515Z" stroke="#CCEDD9" stroke-width="2" stroke-miterlimit="10" stroke-linecap="round"/>
<path d="M64.4885 21.6785C65.1435 21.6785 65.6744 21.1476 65.6744 20.4927C65.6744 19.8378 65.1435 19.3069 64.4885 19.3069C63.8336 19.3069 63.3027 19.8378 63.3027 20.4927C63.3027 21.1476 63.8336 21.6785 64.4885 21.6785Z" fill="#F6CDD5"/>
<path d="M1.77872 19.138C2.76108 19.138 3.55744 18.3416 3.55744 17.3593C3.55744 16.3769 2.76108 15.5806 1.77872 15.5806C0.79636 15.5806 0 16.3769 0 17.3593C0 18.3416 0.79636 19.138 1.77872 19.138Z" fill="#F6CDD5"/>
<path d="M29.9132 43.4063C30.2407 43.4063 30.5061 43.1408 30.5061 42.8134C30.5061 42.4859 30.2407 42.2205 29.9132 42.2205C29.5858 42.2205 29.3203 42.4859 29.3203 42.8134C29.3203 43.1408 29.5858 43.4063 29.9132 43.4063Z" fill="#F6CDD5"/>
</svg>
