<svg width="44" height="40" viewBox="0 0 44 40" fill="none" xmlns="http://www.w3.org/2000/svg">
<path d="M43.1159 20.3103V20.3054C43.1159 20.3054 43.1159 20.2981 43.1159 20.2957V13.1208C43.1159 12.9778 43.0572 12.8469 42.9666 12.7427C42.9666 12.7403 42.9613 12.7379 42.9586 12.733C42.8813 12.6506 42.7827 12.5876 42.6681 12.5512C42.6547 12.5464 42.6414 12.5439 42.6254 12.5391C42.5801 12.527 42.5321 12.5197 42.4815 12.5173C42.4708 12.5173 42.4628 12.5124 42.4521 12.5124L39.0401 12.4736L42.6201 9.16495C42.7294 9.07769 42.8093 8.95891 42.836 8.82075C42.8413 8.79651 42.8413 8.77227 42.844 8.74803C42.844 8.73591 42.8493 8.72379 42.8493 8.70925V8.7044C42.8493 8.7044 42.8493 8.69713 42.8493 8.6947V1.51982C42.8493 1.3768 42.7933 1.24591 42.7 1.14168C42.6947 1.13441 42.6894 1.12956 42.6841 1.12229C42.6681 1.10532 42.6521 1.08835 42.6334 1.07381C42.6227 1.06411 42.6094 1.05442 42.5961 1.04715C42.5774 1.0326 42.5561 1.01806 42.5348 1.00594C42.5081 0.991395 42.4815 0.976851 42.4521 0.964731C42.4415 0.959884 42.4308 0.95746 42.4175 0.952612C42.3882 0.942916 42.3588 0.93322 42.3295 0.928372C42.3215 0.928372 42.3135 0.925949 42.3055 0.923525C42.2629 0.916253 42.2202 0.911405 42.1776 0.911405H34.3993C34.226 0.911405 34.0607 0.972004 33.9355 1.08351L30.5154 4.10132V0.608411C30.5154 0.608411 30.5128 0.584172 30.5128 0.572052C30.5128 0.559932 30.5128 0.545389 30.5074 0.533269C30.4968 0.458126 30.4728 0.387832 30.4328 0.322385C30.4275 0.312689 30.4221 0.30057 30.4142 0.290874C30.4008 0.271482 30.3848 0.252091 30.3715 0.235123C30.3662 0.227851 30.3582 0.22058 30.3528 0.213308C30.2729 0.12847 30.1662 0.0654468 30.0463 0.0290876C30.0463 0.0290876 30.0463 0.0290876 30.0436 0.0290876C29.9823 0.0121199 29.9183 0 29.849 0C29.8384 0 29.8277 5.5534e-08 29.8171 0.002424H22.0707C21.8975 0.002424 21.7322 0.063023 21.6069 0.174525L0.409804 18.8947C0.409804 18.8947 0.401807 18.9044 0.399141 18.9068C0.380482 18.9238 0.367153 18.9407 0.35116 18.9577C0.343163 18.9674 0.329834 18.9771 0.321838 18.9892C0.244534 19.0886 0.199219 19.2074 0.199219 19.3383V26.8816C0.199219 27.2161 0.497769 27.4876 0.865627 27.4876H4.27763L0.687029 30.4812C0.687029 30.4812 0.673701 30.4933 0.66837 30.5005C0.652376 30.5127 0.641714 30.5272 0.628386 30.5418C0.617723 30.5539 0.604395 30.566 0.593732 30.5805C0.513763 30.6799 0.465782 30.8035 0.465782 30.9369V38.4826C0.465782 38.8171 0.764333 39.0886 1.13219 39.0886H9.45962C9.45962 39.0886 9.46762 39.0886 9.47028 39.0886C9.47295 39.0886 9.47828 39.0886 9.48095 39.0886H9.48361C9.51294 39.0886 9.54226 39.0837 9.56891 39.0813C9.57958 39.0813 9.58757 39.0813 9.59824 39.0789C9.77417 39.0522 9.92344 38.9625 10.0221 38.8365L12.7917 36.2695V39.3892C12.7917 39.7237 13.0902 39.9952 13.4581 39.9952H21.7375C21.7588 39.9952 21.7775 40 21.7988 40C21.8895 40 21.9828 39.9806 22.0654 39.9467C22.0787 39.9418 22.0921 39.9346 22.1054 39.9273C22.1267 39.9176 22.148 39.9079 22.1694 39.8958C22.22 39.8667 22.2626 39.8303 22.3026 39.7891L42.8866 20.7611C42.9959 20.6739 43.0732 20.5551 43.0999 20.4193C43.1052 20.3951 43.1052 20.3709 43.1079 20.3466C43.1079 20.3345 43.1132 20.3224 43.1132 20.3103H43.1159ZM22.4759 32.1076L41.7831 14.5776V20.0582L22.4759 37.9057V32.1076ZM40.8554 13.7074L21.5456 31.2398H15.1001L18.3255 28.3966H21.4763C21.4949 28.3966 21.5136 28.4014 21.5349 28.4014C21.6256 28.4014 21.7162 28.3844 21.8015 28.3505C21.8255 28.3408 21.8468 28.3287 21.8681 28.319C21.8815 28.3117 21.8948 28.3069 21.9055 28.2996C21.9561 28.2705 22.0014 28.2342 22.0414 28.1929L37.7473 13.6735L40.8554 13.7099V13.7074ZM13.8606 27.1846V23.3281C13.8926 23.2239 13.8926 23.1148 13.8606 23.0105V20.8508H20.8792V27.1846H13.8606ZM41.5165 8.45716L22.2093 26.3047V20.5066L41.5165 2.97903V8.45958V8.45716ZM34.6712 2.1258H40.5675L21.279 19.6388H14.8309L30.2062 6.06714C30.2862 6.02109 30.3555 5.96291 30.4062 5.89019L34.6712 2.1258ZM12.7357 19.8012C12.7357 19.8012 12.7277 19.8109 12.725 19.8134C12.709 19.8279 12.6957 19.8449 12.6797 19.8618C12.669 19.874 12.6584 19.8836 12.6477 19.8958C12.5704 19.9952 12.5251 20.1139 12.5251 20.2424V22.9427L9.88079 25.3884V19.6L29.1853 2.0749V5.27936L12.7357 19.8012ZM22.3453 1.21925H28.2417L8.95315 18.7323H2.50499L22.3453 1.21925ZM1.53203 19.9442H8.55064V26.2756H1.53203V19.9442ZM9.18773 27.49C9.18773 27.49 9.19573 27.49 9.20106 27.49C9.20639 27.49 9.20905 27.49 9.21438 27.49C9.21438 27.49 9.23038 27.49 9.23837 27.49C9.27036 27.49 9.29968 27.4876 9.33167 27.4803C9.50494 27.4536 9.65421 27.364 9.75284 27.2403L12.5251 24.6758V27.4003L9.22238 30.3333H2.84086L6.2502 27.49H9.18773ZM1.79593 31.5428H8.81454V37.8766H1.79593V31.5428ZM12.741 34.5849L10.15 36.987V31.2035L13.3115 28.3941H16.4116L13.0022 31.3974C13.0022 31.3974 12.9943 31.4071 12.9889 31.412C12.9756 31.4241 12.9676 31.4362 12.9543 31.4483C12.9409 31.4629 12.9249 31.4774 12.9116 31.4944C12.8343 31.5937 12.789 31.7125 12.789 31.841V34.5437C12.773 34.5558 12.7543 34.5679 12.7383 34.5825L12.741 34.5849ZM14.1245 32.4494H21.1431V38.7808H14.1245V32.4494Z" fill="white"/>
</svg>
