<svg width="49" height="47" viewBox="0 0 49 47" fill="none" xmlns="http://www.w3.org/2000/svg">
<g clip-path="url(#clip0_187_11945)">
<path d="M10.0119 12.0384C10.0253 12.173 10.0555 12.3863 10.0791 12.5111C10.1295 12.7671 10.1227 12.7769 9.88086 12.7802C9.82711 12.7802 9.67258 12.8098 9.54156 12.8426C9.30641 12.9017 9.29633 12.9017 9.05445 12.8393C8.72523 12.7573 8.27172 12.7507 7.9593 12.8262C7.73086 12.882 7.70398 12.882 7.47219 12.8295C7.14297 12.754 6.65922 12.7605 6.35016 12.8393C6.115 12.9017 6.10828 12.9017 5.86305 12.8393C5.54391 12.7573 5.11727 12.754 4.78469 12.8262C4.54953 12.8787 4.50922 12.8787 4.28078 12.8328C4.14641 12.8065 3.97172 12.7769 3.89109 12.7671L3.75 12.7474V13.0461V13.3448L3.89445 13.3218C3.97172 13.312 4.14641 13.2792 4.28078 13.2496C4.50922 13.1971 4.53609 13.1971 4.78469 13.2562C5.11727 13.3383 5.57078 13.3383 5.88656 13.2628C6.115 13.2037 6.13516 13.2037 6.34008 13.2595C6.6357 13.3383 7.18664 13.335 7.47891 13.2496C7.69391 13.1873 7.70398 13.1873 7.93242 13.2496C8.25492 13.335 8.76555 13.3383 9.07797 13.2628C9.29969 13.207 9.32992 13.207 9.52141 13.2529C9.63227 13.2825 9.83719 13.3153 9.97492 13.3251C10.2168 13.3481 10.2269 13.3514 10.247 13.44C10.2571 13.4893 10.2504 13.6961 10.2302 13.8996C10.1899 14.3657 10.2 14.3952 10.3747 14.3821L10.5091 14.3723L10.5225 14.0768C10.5393 13.637 10.5628 13.5254 10.6367 13.5451C10.6703 13.5549 10.7308 13.5385 10.7677 13.5122C10.8282 13.4728 10.8484 13.4728 10.9122 13.5155C11.0063 13.5812 11.023 13.5812 11.0835 13.5188C11.1272 13.4761 11.1373 13.4925 11.1574 13.6435C11.1709 13.7354 11.2078 13.9291 11.2448 14.0735C11.2784 14.2147 11.3086 14.3362 11.3086 14.3427C11.3086 14.3493 11.3825 14.3558 11.4732 14.3558H11.6345L11.5874 14.1819C11.4934 13.8306 11.443 13.5221 11.4766 13.4893C11.4967 13.4696 11.5102 13.4302 11.5102 13.3973C11.5102 13.3481 11.5404 13.3383 11.6815 13.3383C11.7722 13.3383 12.0006 13.3087 12.1854 13.2693C12.5079 13.2037 12.5247 13.2037 12.7128 13.2595C12.9782 13.3383 13.5291 13.335 13.8449 13.2529C14.0767 13.1905 14.0868 13.1905 14.2984 13.2496C14.5941 13.335 15.145 13.3383 15.4473 13.2628C15.6623 13.207 15.6859 13.207 15.8841 13.2595C16.1763 13.3383 16.697 13.3383 17.0128 13.2595C17.2547 13.1971 17.2681 13.1971 17.5167 13.2595C17.8493 13.3383 18.3062 13.3383 18.6186 13.2628C18.8403 13.207 18.8705 13.207 19.0654 13.2562C19.1796 13.2825 19.3913 13.3153 19.5357 13.3284C19.7944 13.3481 19.7977 13.3481 19.838 13.4532C19.8683 13.5385 19.8616 13.6271 19.8112 13.916C19.7776 14.1129 19.7406 14.2968 19.7339 14.323C19.7272 14.3624 19.7574 14.3723 19.8716 14.3723C20.0228 14.3723 20.0228 14.3723 20.0598 14.2213C20.0833 14.1392 20.1202 13.9521 20.1438 13.8011C20.1807 13.568 20.1941 13.5319 20.2479 13.5451C20.2815 13.5549 20.3386 13.5385 20.3789 13.5122C20.4226 13.4827 20.4629 13.4728 20.4763 13.4925C20.5166 13.5516 20.6073 13.5615 20.6745 13.5188C20.735 13.4728 20.7417 13.4794 20.7619 13.6238C20.772 13.7059 20.782 13.9061 20.782 14.0637V14.3558H20.913C21.0441 14.3558 21.0474 14.3558 21.0709 14.2081C21.081 14.1261 21.081 13.9521 21.0676 13.8175C21.0575 13.6862 21.0575 13.5254 21.0676 13.463L21.0911 13.3481L21.3565 13.3284C21.5009 13.3153 21.7126 13.2825 21.8268 13.2562C22.0216 13.207 22.0519 13.207 22.2736 13.2628C22.5894 13.3415 23.1034 13.335 23.4023 13.2496C23.6173 13.1873 23.6274 13.1873 23.8559 13.2496C24.1716 13.3317 24.7192 13.3383 25.0115 13.2595C25.2164 13.2037 25.2366 13.2037 25.465 13.2628C25.7841 13.3415 26.2948 13.335 26.5971 13.2496C26.8121 13.1873 26.8255 13.1873 27.0338 13.2431C27.4034 13.3448 27.7091 13.3547 28.0988 13.2759C28.4213 13.2102 28.4548 13.207 28.643 13.2562C28.7538 13.2857 28.9655 13.3153 29.1133 13.3284L29.3787 13.3481L29.4022 13.4958C29.4156 13.5746 29.4089 13.788 29.3854 13.9652C29.335 14.4215 29.3283 14.3952 29.4761 14.3821L29.6004 14.3723L29.6407 14.1097C29.6609 13.9652 29.6877 13.7748 29.7012 13.6895C29.718 13.5549 29.7314 13.5352 29.7852 13.5516C29.8255 13.5648 29.8725 13.5483 29.9095 13.5122C29.9666 13.4564 29.9733 13.4564 30.0304 13.509C30.1009 13.5812 30.1345 13.5812 30.1984 13.5221C30.2387 13.4794 30.2488 13.4958 30.2689 13.6435C30.279 13.7387 30.2891 13.9357 30.2891 14.0834V14.3558H30.4436H30.6015L30.578 13.9324C30.5477 13.3612 30.5511 13.3547 30.9038 13.3284C31.055 13.3186 31.2734 13.2857 31.3876 13.2562C31.5824 13.207 31.6127 13.207 31.8243 13.2628C32.13 13.3383 32.6171 13.3383 32.9363 13.2562C33.1781 13.1971 33.1916 13.1971 33.4402 13.2595C33.7727 13.3383 34.2296 13.3383 34.542 13.2628C34.7705 13.2037 34.7906 13.2037 34.9956 13.2595C35.2878 13.3383 35.869 13.3317 36.1646 13.2464C36.3763 13.1873 36.383 13.1873 36.6013 13.2496C36.9037 13.335 37.4143 13.3415 37.7334 13.2628C37.9552 13.207 37.9854 13.207 38.1802 13.2562C38.2945 13.2825 38.5061 13.3153 38.6506 13.3284C38.9025 13.3481 38.9159 13.3514 38.9327 13.4335C38.9428 13.4794 38.8991 13.7059 38.8353 13.939C38.7715 14.1687 38.7211 14.3657 38.7211 14.3723C38.7211 14.3821 38.7883 14.3887 38.8689 14.3887C38.9831 14.3887 39.0234 14.3755 39.0369 14.3296C39.0436 14.3 39.094 14.1064 39.1477 13.9029C39.2351 13.5549 39.2452 13.5319 39.3157 13.5516C39.3594 13.5615 39.4098 13.5483 39.44 13.5188C39.487 13.4728 39.5005 13.4728 39.571 13.5155C39.6416 13.5615 39.655 13.5615 39.7222 13.5155L39.7961 13.4663V13.9094V14.3558H39.9439H40.0884L40.0716 13.9784C40.0581 13.6632 40.0648 13.5779 40.1119 13.4728L40.1723 13.3481L40.4512 13.3284C40.6023 13.3186 40.8241 13.2857 40.9383 13.2562C41.1365 13.207 41.1667 13.207 41.3884 13.2628C41.7076 13.3415 42.2182 13.335 42.5205 13.2496C42.7389 13.1873 42.7456 13.1873 42.9573 13.2464C43.2529 13.3317 43.8341 13.3383 44.1263 13.2595C44.3313 13.2037 44.3514 13.2037 44.5798 13.2628C44.8923 13.3383 45.3491 13.3383 45.6817 13.2595C45.9236 13.2004 45.9505 13.2004 46.1688 13.2496C46.2931 13.2792 46.4779 13.312 46.5753 13.3251L46.75 13.3481V13.0461V12.7441L46.5753 12.7638C46.4779 12.7769 46.2898 12.8065 46.1588 12.836C45.937 12.8853 45.9034 12.8853 45.6716 12.8295C45.3491 12.7507 44.9259 12.754 44.5966 12.8393C44.3413 12.9017 44.338 12.9017 44.0927 12.8393C43.7635 12.7573 43.3134 12.7507 42.9976 12.8262C42.7624 12.882 42.7423 12.882 42.4937 12.8262C42.151 12.7507 41.7009 12.7573 41.3952 12.8426C41.1634 12.905 41.1566 12.905 40.9047 12.8426C40.767 12.8098 40.5553 12.7769 40.4344 12.7671L40.2194 12.754L40.2295 12.5767C40.2328 12.4815 40.2496 12.2977 40.2664 12.173C40.3168 11.7955 40.3168 11.7889 40.1925 11.802C40.0716 11.8119 40.0648 11.8283 39.9876 12.3535C39.9506 12.5931 39.9372 12.6325 39.8834 12.6227C39.8498 12.6161 39.7961 12.6358 39.7625 12.6653C39.7121 12.7113 39.702 12.7113 39.6617 12.6653C39.608 12.603 39.5475 12.603 39.4837 12.6653C39.44 12.708 39.4299 12.708 39.393 12.6653C39.3426 12.6063 39.2552 12.603 39.1948 12.6555C39.1578 12.6916 39.1545 12.6194 39.1746 12.2452L39.1981 11.7922L39.0671 11.802L38.9395 11.8119L38.8924 12.278L38.8454 12.7441L38.6573 12.7638C38.5531 12.7769 38.3549 12.8131 38.2138 12.8459C37.9652 12.905 37.9552 12.905 37.7267 12.8426C37.421 12.7573 36.9709 12.7507 36.6282 12.8262C36.3796 12.882 36.3595 12.882 36.1243 12.8262C35.8085 12.7507 35.3584 12.7573 35.0291 12.8393C34.7839 12.9017 34.7806 12.9017 34.5252 12.8393C34.1994 12.754 33.7795 12.7507 33.4435 12.8295C33.1983 12.8853 33.1781 12.8853 32.9396 12.8295C32.6138 12.7507 32.1938 12.754 31.8579 12.8393C31.6059 12.905 31.5925 12.905 31.354 12.8459C31.223 12.8131 31.0113 12.7769 30.887 12.7638L30.6586 12.7408V12.5406C30.6586 12.429 30.6485 12.2156 30.6351 12.0646L30.6149 11.7955H30.4873H30.3563V12.2189C30.3563 12.6161 30.3529 12.6424 30.2924 12.626C30.2588 12.6194 30.2084 12.6325 30.1849 12.6555C30.148 12.6982 30.1278 12.6982 30.0438 12.6522C29.9531 12.603 29.943 12.603 29.9095 12.6555C29.8759 12.7047 29.8658 12.7047 29.7919 12.6555C29.728 12.6161 29.6978 12.6128 29.6474 12.6424C29.6138 12.6653 29.5769 12.6818 29.5702 12.6818C29.5634 12.6818 29.5399 12.5898 29.5198 12.475C29.4996 12.3633 29.4559 12.1664 29.4223 12.0417C29.3619 11.8119 29.3619 11.8119 29.2376 11.802C29.0898 11.7889 29.0898 11.7889 29.1771 12.1631C29.2141 12.3141 29.251 12.5045 29.2645 12.5898L29.288 12.7408L29.1267 12.7605C29.036 12.7737 28.8378 12.8065 28.6866 12.8426C28.4179 12.9017 28.4045 12.9017 28.1659 12.8393C27.8401 12.7573 27.3866 12.7507 27.0741 12.8262C26.839 12.882 26.8188 12.882 26.5702 12.8262C26.2276 12.7507 25.8077 12.754 25.4818 12.8393C25.2265 12.9017 25.2198 12.9017 24.9779 12.8393C24.652 12.7605 24.2288 12.754 23.8995 12.8262C23.6509 12.882 23.6241 12.882 23.3788 12.8295C23.0261 12.7507 22.6095 12.754 22.2938 12.8393C22.0418 12.9082 22.0384 12.9082 21.8066 12.8426C21.679 12.8098 21.5211 12.7802 21.4539 12.7802C21.2557 12.7802 21.2322 12.7441 21.3027 12.5603C21.3363 12.475 21.4304 12.2747 21.5077 12.1172C21.5883 11.9596 21.6555 11.8217 21.6555 11.8119C21.6555 11.802 21.5883 11.7955 21.5043 11.7955C21.3229 11.7955 21.3095 11.8152 21.1012 12.2944C20.9668 12.5997 20.9433 12.6325 20.8727 12.6227C20.8291 12.6161 20.772 12.6358 20.7484 12.6653C20.7081 12.7113 20.698 12.7113 20.6443 12.6621C20.5805 12.6063 20.4125 12.6194 20.4125 12.6818C20.4125 12.6982 20.3688 12.685 20.3117 12.6555C20.2311 12.6095 20.2009 12.6063 20.1438 12.6424C20.0766 12.6818 20.0766 12.6752 20.0766 12.2386V11.7922L19.9187 11.802L19.7574 11.8119L19.7473 12.278L19.7373 12.7441L19.5458 12.7638C19.4416 12.7769 19.2434 12.8131 19.1057 12.8459C18.8672 12.9017 18.8504 12.9017 18.6018 12.8393C18.2759 12.754 17.856 12.7507 17.5201 12.8295C17.2748 12.8853 17.2547 12.8853 17.0162 12.8295C16.7004 12.754 16.2469 12.7573 15.921 12.8393C15.6825 12.8984 15.6691 12.8984 15.4339 12.8393C15.1047 12.7573 14.6512 12.754 14.3354 12.8295C14.0935 12.8853 14.0767 12.8853 13.8315 12.8295C13.5056 12.754 13.0521 12.7573 12.7296 12.8393C12.4945 12.8984 12.4743 12.8984 12.2492 12.8426C12.1216 12.8131 11.9133 12.7769 11.7856 12.7638L11.5538 12.7408L11.5236 12.278L11.4934 11.8119L11.3455 11.802L11.1977 11.7922L11.2179 12.2189L11.238 12.6489L11.1608 12.6292C11.1138 12.6194 11.0701 12.6292 11.0432 12.6621C11.0063 12.708 10.9928 12.708 10.9155 12.6588C10.845 12.6128 10.8215 12.6128 10.7644 12.6456C10.7073 12.6785 10.6804 12.6785 10.6132 12.6456C10.5494 12.6128 10.5158 12.6128 10.4688 12.6424C10.3915 12.6883 10.3848 12.6785 10.3176 12.232C10.2437 11.7725 10.2538 11.7955 10.1127 11.7955H9.98836L10.0119 12.0384Z" fill="white" stroke="white" stroke-width="0.5"/>
<path d="M5.34234 16.7751C5.35242 16.9524 5.37258 17.1756 5.38266 17.2675L5.40281 17.4415L5.19117 17.4448C5.07359 17.4448 4.87875 17.471 4.75781 17.5006C4.55289 17.5531 4.52602 17.5531 4.2875 17.5006C4.14977 17.4678 3.97172 17.4415 3.89445 17.4415H3.75V17.7238V18.0094L3.92469 17.9864C4.02211 17.9733 4.1968 17.9404 4.31438 17.9109C4.50586 17.8649 4.53945 17.8649 4.75109 17.9175C4.87539 17.947 5.08703 17.9798 5.22141 17.9897C5.41625 18.0061 5.46328 18.0192 5.46328 18.0619C5.46328 18.0947 5.47672 18.1308 5.49352 18.1505C5.51367 18.1669 5.49352 18.3278 5.44313 18.5576C5.39945 18.7644 5.35914 18.958 5.35242 18.9843C5.34906 19.0204 5.38266 19.0335 5.49688 19.0335H5.64805L5.72867 18.6166C5.8093 18.2227 5.81602 18.1998 5.88656 18.2162C5.93023 18.226 5.98063 18.2129 6.01422 18.1801C6.06797 18.1275 6.07469 18.1275 6.1318 18.1768C6.2057 18.2424 6.24938 18.2424 6.3132 18.1801C6.37031 18.1275 6.36695 18.1111 6.43078 18.7873L6.4543 19.0335H6.60547H6.75664L6.74656 18.9186C6.7432 18.8563 6.72305 18.6692 6.70289 18.5018C6.67266 18.2654 6.67266 18.1801 6.70961 18.1046C6.74992 18.0127 6.76336 18.0061 7.00523 17.9897C7.14633 17.9798 7.36133 17.947 7.48563 17.9175C7.70063 17.8617 7.72414 17.8649 7.95594 17.9207C8.265 17.9995 8.8193 17.9995 9.1082 17.924C9.29633 17.8748 9.32656 17.8748 9.51133 17.924C9.79352 18.0028 10.3478 17.9995 10.6636 17.9207C10.8988 17.8617 10.9122 17.8617 11.1507 17.9207C11.4631 17.9995 11.9838 17.9995 12.2761 17.924C12.4743 17.8682 12.4945 17.8682 12.696 17.924C12.9816 17.9995 13.5325 17.9995 13.8483 17.9207C14.0734 17.8649 14.1002 17.8649 14.2984 17.9142C14.416 17.9437 14.6209 17.9766 14.7553 17.9897C14.9938 18.0094 14.9972 18.0094 15.0173 18.1111C15.0274 18.1669 15.0073 18.354 14.9703 18.5247C14.9334 18.6954 14.9031 18.8858 14.9031 18.9416C14.9031 19.0434 14.9098 19.0499 15.0173 19.0499C15.1416 19.0499 15.145 19.0401 15.1887 18.8202C15.2021 18.7578 15.2424 18.5904 15.2794 18.4525C15.3432 18.2162 15.3533 18.1998 15.4238 18.2162C15.4709 18.226 15.5179 18.2129 15.5548 18.1801C15.6052 18.1308 15.612 18.1308 15.6623 18.1768C15.7295 18.2457 15.79 18.2424 15.8639 18.1735C15.9177 18.1177 15.921 18.1407 15.8975 18.5838L15.874 19.0532L16.0352 19.0434L16.1965 19.0335L16.2066 18.6068C16.2099 18.3737 16.2301 18.1669 16.2469 18.1505C16.267 18.1308 16.2805 18.0947 16.2805 18.0619C16.2805 18.0192 16.3275 18.0061 16.5425 17.9897C16.6836 17.9798 16.902 17.947 17.0296 17.9175C17.248 17.8617 17.2681 17.8617 17.4999 17.9207C17.8157 17.9995 18.3666 17.9995 18.6522 17.924C18.8437 17.8715 18.8705 17.8715 19.0553 17.924C19.3409 17.9995 19.8952 17.9995 20.2042 17.9207C20.4394 17.8617 20.4528 17.8617 20.6913 17.9207C21.0004 17.9995 21.5547 18.0028 21.8402 17.924C22.0284 17.8748 22.0552 17.8748 22.2434 17.924C22.5289 18.0028 23.0798 17.9995 23.3956 17.9207C23.6274 17.8649 23.6509 17.8649 23.8659 17.9175C23.9902 17.947 24.1918 17.9798 24.3161 17.9897C24.5244 18.0061 24.5412 18.0159 24.5546 18.0947C24.5647 18.144 24.5244 18.3442 24.4572 18.5608C24.3094 19.0499 24.3094 19.0565 24.4673 19.0434L24.5882 19.0335L24.7293 18.6232L24.8704 18.2129H24.9779C25.035 18.2129 25.0988 18.1932 25.1123 18.1669C25.1391 18.1275 25.1526 18.1275 25.1996 18.1735C25.2634 18.2392 25.297 18.2424 25.3911 18.1932C25.4616 18.1571 25.4616 18.1604 25.4381 18.446C25.4247 18.6035 25.4012 18.7972 25.3877 18.876C25.3709 18.9515 25.3676 19.0237 25.3777 19.0335C25.3877 19.0434 25.4583 19.0499 25.5389 19.0499C25.643 19.0499 25.6867 19.0335 25.7035 18.9909C25.717 18.9613 25.7338 18.7545 25.7438 18.5313C25.7539 18.3114 25.7741 18.1308 25.7909 18.1308C25.8043 18.1308 25.8245 18.1046 25.8379 18.0685C25.8513 18.0192 25.9017 18.0061 26.1167 17.9897C26.2578 17.9798 26.4762 17.947 26.6005 17.9175C26.8155 17.8617 26.839 17.8649 27.0708 17.9207C27.3798 17.9995 27.9341 17.9995 28.2197 17.924C28.4045 17.8715 28.4313 17.8715 28.6228 17.924C28.905 17.9995 29.4593 17.9995 29.7751 17.9207C30.0102 17.8617 30.0237 17.8617 30.2622 17.9207C30.578 17.9995 31.0987 17.9995 31.3909 17.924C31.5858 17.8682 31.6127 17.8682 31.8109 17.9207C32.0964 17.9995 32.5869 17.9995 32.9262 17.9207C33.1815 17.8649 33.2084 17.8649 33.4133 17.9142C33.5342 17.9437 33.7492 17.9798 33.8937 17.9897C34.1389 18.0094 34.1557 18.0127 34.2027 18.1079C34.243 18.1899 34.3203 18.7512 34.3203 18.9941C34.3203 19.0434 34.3438 19.0532 34.448 19.0434L34.5723 19.0335L34.5622 18.6134L34.5521 18.1932L34.6327 18.2129C34.6831 18.226 34.7268 18.2162 34.7537 18.1834C34.7906 18.1374 34.8041 18.1374 34.8813 18.1866C34.9452 18.2293 34.9788 18.2326 35.0258 18.203C35.1031 18.1571 35.1266 18.2162 35.2106 18.656C35.2408 18.8267 35.2744 18.9876 35.2811 19.0073C35.2945 19.0565 35.5163 19.0664 35.5431 19.0204C35.5633 18.9909 35.4827 18.4722 35.4323 18.3015C35.4121 18.2392 35.4054 18.1505 35.4155 18.098C35.4356 18.0127 35.4457 18.0061 35.6741 17.9897C35.8085 17.9798 36.0168 17.947 36.1411 17.9175C36.3561 17.8617 36.3796 17.8649 36.6114 17.9207C36.9238 17.9995 37.4781 18.0028 37.7637 17.924C37.9518 17.8748 37.982 17.8748 38.1668 17.924C38.4523 17.9995 39.01 17.9995 39.3191 17.9207C39.5542 17.8617 39.5677 17.8617 39.8062 17.9207C40.1119 17.9995 40.6662 17.9995 40.9551 17.924C41.1432 17.8748 41.1734 17.8748 41.3582 17.924C41.6438 18.0028 42.1947 17.9995 42.5105 17.9207C42.7423 17.8649 42.7658 17.8617 42.9808 17.9175C43.1051 17.947 43.3167 17.9798 43.4511 17.9897C43.6459 18.0061 43.693 18.0192 43.693 18.0619C43.693 18.0947 43.7064 18.1308 43.7232 18.1472C43.74 18.1669 43.7266 18.3343 43.6896 18.5576C43.6023 19.0795 43.5989 19.0499 43.7736 19.0499H43.9214L43.9584 18.807C43.9785 18.6724 44.0054 18.4821 44.0155 18.3803C44.0356 18.2063 44.0423 18.1998 44.1196 18.2162C44.17 18.2293 44.2204 18.2162 44.2607 18.1834C44.3145 18.1341 44.3245 18.1341 44.3648 18.1801C44.4152 18.2392 44.5026 18.2457 44.5597 18.1899C44.5798 18.1702 44.6034 18.1571 44.6101 18.1669C44.6168 18.1735 44.6437 18.3705 44.6706 18.6068L44.7176 19.0335L44.8486 19.0434C44.9191 19.0499 44.9897 19.0434 45.0031 19.027C45.0166 19.0138 45.0065 18.8366 44.9796 18.6396C44.9527 18.4394 44.9393 18.2195 44.9527 18.144L44.9729 18.0094L45.2215 17.9897C45.3559 17.9798 45.5742 17.947 45.7052 17.9175C45.9236 17.8649 45.9572 17.8649 46.1554 17.9109C46.273 17.9404 46.4544 17.9733 46.5619 17.9864L46.75 18.0094V17.7238V17.4415L46.5585 17.4448C46.451 17.4481 46.2663 17.471 46.1453 17.5006C45.9404 17.5531 45.9135 17.5531 45.6918 17.5006C45.5641 17.4678 45.376 17.4415 45.282 17.4415C45.0569 17.4415 45.0569 17.4415 45.2551 16.9032L45.4029 16.4896H45.2416H45.077L44.9763 16.762C44.9191 16.9097 44.8587 17.0968 44.8385 17.1723C44.8049 17.2938 44.7881 17.3069 44.7209 17.2905C44.6739 17.2807 44.6302 17.2938 44.6034 17.3233C44.563 17.3693 44.553 17.3693 44.4824 17.3233C44.4018 17.2708 44.2641 17.2872 44.2641 17.3463C44.2641 17.3627 44.217 17.3562 44.1633 17.3266C44.0894 17.2905 44.0457 17.2839 43.9987 17.3069C43.9416 17.3365 43.9315 17.3266 43.9113 17.1953C43.9013 17.1132 43.8945 16.9196 43.8979 16.7587L43.9046 16.4732L43.7434 16.4633L43.5821 16.4535L43.6023 16.9458L43.6191 17.4415L43.4141 17.4448C43.2999 17.4448 43.1017 17.471 42.9707 17.5006C42.749 17.5531 42.7255 17.5531 42.5004 17.4973C42.2216 17.4251 41.6404 17.4349 41.3381 17.517C41.1634 17.5662 41.1331 17.5662 40.9013 17.5072C40.5889 17.4251 40.1018 17.4251 39.7961 17.5006C39.5912 17.5531 39.5643 17.5531 39.3258 17.5006C38.9898 17.4218 38.5363 17.4251 38.2206 17.5072C37.9888 17.5662 37.9585 17.5662 37.7838 17.517C37.4815 17.4349 36.9003 17.4251 36.6215 17.4973C36.3964 17.5531 36.3729 17.5531 36.1512 17.5006C36.0202 17.471 35.8287 17.4448 35.7245 17.4448C35.617 17.4415 35.5297 17.4382 35.5297 17.4317C35.5297 17.4284 35.5532 17.2183 35.5801 16.9688C35.607 16.7193 35.6238 16.5027 35.6137 16.4928C35.607 16.4797 35.5398 16.4764 35.4659 16.483L35.3315 16.4961L35.3113 16.7128C35.2576 17.2807 35.2542 17.2938 35.1501 17.2938C35.0963 17.2971 35.0426 17.3168 35.0258 17.343C35.0023 17.3791 34.9888 17.3758 34.9418 17.3332C34.8746 17.2642 34.8108 17.261 34.757 17.3266C34.7234 17.366 34.7066 17.366 34.6395 17.3233C34.579 17.2839 34.5454 17.2807 34.4916 17.3069C34.4547 17.3266 34.4177 17.343 34.411 17.343C34.4043 17.343 34.3875 17.192 34.3741 17.0049C34.3371 16.46 34.3371 16.4567 34.1792 16.4567H34.0448L34.0717 16.8408C34.0852 17.0542 34.0986 17.2708 34.0986 17.3266L34.102 17.4251L33.8164 17.4481C33.6585 17.4579 33.457 17.4875 33.3629 17.5137C33.2151 17.5531 33.1647 17.5498 32.9598 17.5006C32.6406 17.4218 32.1905 17.4251 31.8613 17.5072C31.6026 17.5695 31.5959 17.5695 31.3405 17.5072C31.018 17.4284 30.5309 17.4251 30.2219 17.5006C30.017 17.5531 29.9901 17.5531 29.7684 17.5006C29.4526 17.4218 28.9957 17.4251 28.6698 17.5072C28.4112 17.5695 28.4112 17.5695 28.1323 17.5006C27.9073 17.4448 27.793 17.4382 27.5041 17.4513C27.3059 17.4612 27.0741 17.4875 26.9801 17.5137C26.8323 17.5498 26.7852 17.5498 26.5938 17.5006C26.4728 17.471 26.2746 17.4448 26.1503 17.4448L25.9252 17.4415L25.9454 17.3168C25.9521 17.2511 25.9991 17.0443 26.0428 16.8572C26.0865 16.6701 26.1234 16.506 26.1234 16.4961C26.1234 16.483 26.0495 16.4797 25.9555 16.483C25.7673 16.4961 25.7808 16.4764 25.7035 16.8835C25.6162 17.343 25.6263 17.3135 25.5423 17.2905C25.4919 17.2807 25.4482 17.2905 25.4213 17.3233C25.381 17.3693 25.3709 17.3693 25.3004 17.3233C25.2198 17.2708 25.082 17.2872 25.082 17.3463C25.082 17.3627 25.035 17.3562 24.9813 17.3266C24.904 17.2872 24.8637 17.2839 24.8133 17.3102C24.7629 17.3365 24.7427 17.3365 24.7293 17.3036C24.7125 17.2577 24.5445 16.5027 24.5445 16.4732C24.5445 16.4633 24.4706 16.4567 24.3766 16.4567C24.2859 16.4567 24.2086 16.4633 24.2086 16.4764C24.2086 16.4863 24.2623 16.6996 24.3262 16.9491C24.39 17.1986 24.4438 17.412 24.4438 17.4218C24.4438 17.4349 24.3631 17.4415 24.2691 17.4415C24.1716 17.4415 23.9869 17.4678 23.8592 17.5006C23.6409 17.5564 23.6173 17.5564 23.4057 17.5006C23.1 17.4251 22.6129 17.4251 22.2971 17.5072C22.0485 17.5695 22.0452 17.5695 21.7764 17.5072C21.4405 17.4284 20.9836 17.4251 20.6813 17.5006C20.4763 17.5531 20.4495 17.5531 20.2109 17.5006C19.875 17.4218 19.4484 17.4251 19.1225 17.5072C18.8672 17.5695 18.8638 17.5695 18.6052 17.5072C18.2759 17.4251 17.8224 17.4218 17.5033 17.5006C17.2748 17.5564 17.2547 17.5564 17.033 17.5006C16.9053 17.4678 16.7071 17.4415 16.5929 17.4415H16.3846L16.4048 16.9557L16.4249 16.4732L16.2939 16.4764L16.1629 16.4797L16.1394 16.785C16.1091 17.2314 16.0856 17.3168 16.0151 17.2938C15.9848 17.2839 15.9277 17.2971 15.8941 17.3233C15.8404 17.3627 15.8202 17.3627 15.753 17.32C15.6859 17.2741 15.6657 17.2741 15.5985 17.32C15.5313 17.3627 15.5145 17.3627 15.4473 17.3168C15.3835 17.2741 15.3634 17.2741 15.2895 17.3233C15.2055 17.3758 15.2055 17.3758 15.2021 17.2708C15.1988 17.2117 15.1887 17.0082 15.1752 16.8178L15.1551 16.4732L15.0073 16.4633L14.8595 16.4535L14.8796 16.9458L14.8964 17.4415L14.7083 17.4448C14.6041 17.4481 14.4194 17.471 14.2984 17.5006C14.0935 17.5531 14.0666 17.5531 13.8449 17.5006C13.5258 17.4218 13.0723 17.4251 12.7464 17.5072C12.4877 17.5695 12.4844 17.5695 12.2291 17.5072C11.9099 17.4251 11.4195 17.4251 11.107 17.5006C10.9021 17.5531 10.8752 17.5531 10.6535 17.5006C10.3344 17.4218 9.88086 17.4251 9.555 17.5072C9.29633 17.5695 9.29297 17.5695 9.03766 17.5072C8.70844 17.4251 8.25156 17.4218 7.93578 17.5006C7.71742 17.5564 7.69391 17.5564 7.48227 17.5006C7.36133 17.471 7.14969 17.4448 7.01867 17.4448L6.77344 17.4415V16.9655V16.4896H6.63906H6.50469V16.7751C6.50469 17.1789 6.47781 17.3168 6.40391 17.2938C6.37367 17.2839 6.32664 17.2971 6.30313 17.3266C6.26617 17.3693 6.25273 17.3693 6.19227 17.3266C6.10156 17.2642 6.08477 17.2642 6.02094 17.3266C5.97391 17.3726 5.96047 17.3726 5.8832 17.3233C5.80258 17.2741 5.7925 17.2741 5.73539 17.3233C5.67828 17.3726 5.67492 17.3594 5.63461 16.9918C5.5775 16.437 5.58422 16.4567 5.43977 16.4567H5.31883L5.34234 16.7751Z" fill="white" stroke="white" stroke-width="0.5"/>
<path d="M9.94805 21.2232C10.0186 21.5219 10.1328 22.0405 10.1328 22.0668C10.1328 22.0865 10.0656 22.1029 9.98836 22.1029C9.90773 22.1029 9.72297 22.1324 9.57516 22.1685L9.30977 22.2342L8.99734 22.1653C8.64797 22.0865 8.21461 22.0898 7.88875 22.1784C7.7275 22.2211 7.69055 22.2178 7.43523 22.1587C7.11273 22.0865 6.6525 22.093 6.32328 22.1817C6.13516 22.2342 6.10828 22.2342 5.90336 22.1784C5.62117 22.1029 4.95938 22.1029 4.7007 22.1751C4.54617 22.2178 4.49914 22.2178 4.34797 22.1784C4.25055 22.1554 4.07586 22.1259 3.96164 22.1127L3.75 22.093V22.3819V22.6708L3.94484 22.6478C4.04898 22.6347 4.22703 22.6018 4.33453 22.5756C4.5193 22.5296 4.54953 22.5296 4.73766 22.5821C5.01648 22.6642 5.67492 22.6675 5.93023 22.5854C6.10156 22.5329 6.12172 22.5329 6.29977 22.5854C6.56516 22.6675 7.18664 22.6642 7.47891 22.5854C7.68719 22.5263 7.7107 22.5263 7.89883 22.5788C8.22805 22.6642 8.72523 22.6773 9.0343 22.6018C9.27617 22.5427 9.31648 22.5427 9.47102 22.5821C9.56844 22.6084 9.77672 22.6379 9.93797 22.6511L10.2302 22.6708L10.2504 22.8053C10.2605 22.8808 10.2538 23.0417 10.237 23.1697C10.2168 23.2944 10.2 23.4684 10.2 23.5538V23.7113H10.331C10.4822 23.7113 10.4721 23.731 10.5158 23.2255C10.546 22.9104 10.5662 22.8513 10.6434 22.8776C10.6804 22.8874 10.7341 22.8743 10.7677 22.8447C10.8215 22.7955 10.8316 22.7955 10.8719 22.8415C10.9223 22.9005 11.0096 22.9071 11.0634 22.8546C11.107 22.8119 11.1205 22.8743 11.1574 23.2321C11.1675 23.3404 11.191 23.4914 11.2112 23.5702C11.2481 23.7113 11.2515 23.7113 11.3959 23.7113C11.4766 23.7113 11.5438 23.7015 11.5438 23.6851C11.5438 23.6719 11.527 23.5964 11.5068 23.5144C11.4866 23.4323 11.4598 23.2518 11.443 23.1073C11.4228 22.894 11.4262 22.8349 11.4732 22.7561C11.5236 22.6675 11.5404 22.6609 11.7453 22.6609C11.8663 22.6609 12.0813 22.6314 12.2223 22.5985C12.4777 22.5395 12.4911 22.5395 12.743 22.5985C13.0823 22.6773 13.4384 22.6773 13.7912 22.5953L14.0767 22.5263L14.3925 22.5985C14.7419 22.6773 15.1685 22.6708 15.4977 22.5821C15.6556 22.5395 15.6959 22.5427 15.8673 22.5887C16.1394 22.6642 16.7642 22.6609 17.0464 22.5854C17.2547 22.5263 17.2681 22.5263 17.5805 22.5985C17.9333 22.6773 18.3566 22.674 18.6891 22.5854C18.8437 22.5427 18.8873 22.5427 19.1259 22.5985C19.2703 22.6314 19.4786 22.6609 19.5895 22.6609C19.791 22.6609 19.7944 22.6642 19.8347 22.7692C19.8582 22.8316 19.8683 22.9235 19.8616 22.976C19.8515 23.0286 19.8347 23.2157 19.8246 23.3896L19.8078 23.7113H19.9523H20.1001L20.1236 23.5111C20.1337 23.3995 20.1438 23.2386 20.1438 23.1566C20.1438 22.9301 20.1706 22.8611 20.2479 22.8808C20.2848 22.8907 20.342 22.8743 20.3755 22.8447C20.4293 22.7955 20.4394 22.7955 20.4797 22.8415C20.5301 22.9005 20.6174 22.9071 20.6745 22.8513C20.7216 22.8053 20.7249 22.8152 20.7988 23.1861C20.903 23.7212 20.8996 23.7113 21.0642 23.7113H21.2087L21.1818 23.5702C21.1684 23.4947 21.1247 23.2944 21.0911 23.127C21.0541 22.9596 21.0373 22.8152 21.0541 22.8053C21.0709 22.7955 21.0844 22.7627 21.0844 22.7298C21.0844 22.6773 21.1247 22.6675 21.3968 22.6511C21.5648 22.6412 21.7798 22.6084 21.8738 22.5788C22.025 22.5329 22.0552 22.5329 22.2266 22.5854C22.4886 22.6642 23.1101 22.6642 23.4023 22.5854C23.6106 22.5263 23.6341 22.5263 23.8223 22.5788C24.1515 22.6642 24.6487 22.6773 24.9577 22.6018C25.1996 22.5427 25.2399 22.5427 25.3945 22.5854C25.7237 22.674 26.1503 22.6773 26.4997 22.5985L26.8155 22.5263L27.101 22.5953C27.4538 22.6773 27.8098 22.6773 28.1491 22.5985C28.3877 22.5427 28.4313 22.5427 28.5859 22.5821C28.6833 22.6084 28.8916 22.6379 29.0495 22.6511C29.3384 22.6708 29.3384 22.6708 29.3753 22.7758C29.3988 22.8316 29.4156 22.9629 29.4156 23.0679C29.4156 23.1697 29.4324 23.3568 29.4526 23.4848L29.4929 23.7113H29.6239H29.7549L29.728 23.4881C29.7146 23.3667 29.7012 23.1796 29.7012 23.0712C29.7012 22.8776 29.7012 22.8743 29.7919 22.8841C29.849 22.8907 29.8927 22.8743 29.9128 22.8382C29.943 22.7824 29.9498 22.7824 30.0035 22.8349C30.0673 22.8973 30.1009 22.9038 30.1849 22.8611C30.2353 22.8316 30.2488 22.8546 30.2823 23.0483C30.3025 23.1697 30.3495 23.3667 30.3898 23.4881L30.4604 23.7113H30.5914C30.6653 23.7113 30.7258 23.7048 30.7258 23.6949C30.7258 23.6851 30.6955 23.5735 30.662 23.4422C30.5645 23.0942 30.5444 22.9104 30.588 22.7824L30.6284 22.6708L30.9374 22.6511C31.1088 22.6379 31.3271 22.6084 31.4212 22.5821C31.5791 22.5395 31.6194 22.5427 31.7907 22.5887C32.0628 22.6642 32.6877 22.6609 32.9698 22.5854C33.1781 22.5263 33.1916 22.5263 33.504 22.5985C33.8567 22.6773 34.28 22.674 34.6126 22.5854C34.7671 22.5427 34.8074 22.5427 35.0493 22.6018C35.3584 22.6773 35.8555 22.6642 36.1848 22.5788C36.3729 22.5263 36.3964 22.5263 36.6047 22.5854C36.8936 22.6642 37.5184 22.6642 37.7738 22.5854C37.9451 22.5329 37.9652 22.5362 38.2273 22.5953C38.3784 22.6314 38.5968 22.6609 38.711 22.6609H38.9193L38.9395 22.7988C38.9529 22.8776 38.9361 23.0811 38.9092 23.2583C38.832 23.7245 38.8286 23.7113 38.9999 23.7113H39.1444L39.2048 23.2846C39.2653 22.8611 39.2687 22.8579 39.3493 22.8776C39.3997 22.8907 39.4501 22.8776 39.4904 22.8447C39.5441 22.7955 39.5542 22.7955 39.5945 22.8415C39.6449 22.9005 39.7323 22.9071 39.786 22.8546C39.8297 22.8119 39.8431 22.871 39.9002 23.3568L39.9406 23.7113H40.1052C40.2698 23.7113 40.2698 23.7113 40.253 23.6194C40.1723 23.2386 40.1354 22.8677 40.1723 22.766C40.2127 22.6642 40.216 22.6609 40.4176 22.6609C40.5284 22.6609 40.7434 22.6314 40.8946 22.5953C41.1566 22.5362 41.1768 22.5329 41.3481 22.5854C41.6034 22.6642 42.2283 22.6642 42.5172 22.5854C42.7255 22.5263 42.749 22.5263 42.9371 22.5788C43.2663 22.6642 43.7635 22.6773 44.0726 22.6018C44.3145 22.5427 44.3548 22.5427 44.5093 22.5854C44.8419 22.674 45.2652 22.6773 45.6179 22.5985C45.9202 22.5296 45.9471 22.5296 46.1386 22.5788C46.2495 22.6051 46.4342 22.6379 46.5451 22.6478L46.75 22.6708V22.3819V22.093L46.5249 22.1127C46.3973 22.1226 46.2159 22.1521 46.1184 22.1784C45.9606 22.2211 45.9169 22.2178 45.6817 22.162C45.3727 22.0865 44.8284 22.0963 44.5395 22.1849C44.3682 22.2342 44.348 22.2342 44.0423 22.1653C43.6863 22.0865 43.2563 22.0898 42.927 22.1784C42.7691 22.2211 42.7255 22.2178 42.4903 22.1653C42.151 22.0832 41.7748 22.0865 41.4288 22.1685C41.1667 22.2342 41.1398 22.2342 40.9517 22.1849C40.8442 22.1554 40.6427 22.1226 40.5049 22.1127L40.2597 22.093L40.2765 21.9749C40.2866 21.9092 40.3067 21.6991 40.3202 21.5022L40.3437 21.1509H40.1858H40.0313V21.3085C40.0313 21.3971 40.0212 21.581 40.0111 21.7188C39.9876 21.965 39.9842 21.9716 39.9002 21.9716C39.8498 21.9716 39.7927 21.988 39.7692 22.011C39.739 22.0405 39.7188 22.0405 39.6886 22.011C39.6315 21.9552 39.4971 21.9617 39.4736 22.0208C39.4568 22.0635 39.4467 22.0635 39.403 22.0208C39.3459 21.965 39.2216 21.9552 39.1713 22.0044C39.1511 22.0241 39.1242 21.942 39.0973 21.7648C39.0738 21.6171 39.0302 21.4168 39.0033 21.3216L38.9529 21.1509H38.7984C38.6573 21.1509 38.6472 21.1575 38.6673 21.2232C38.6909 21.3019 38.8017 21.8173 38.832 21.9913L38.8521 22.093L38.6102 22.1127C38.4759 22.1226 38.2777 22.1554 38.1702 22.1849C37.982 22.2342 37.9552 22.2342 37.6931 22.1685C37.3471 22.0865 36.9709 22.0832 36.6316 22.1653C36.3964 22.2178 36.3527 22.2211 36.1948 22.1784C35.8656 22.0898 35.4356 22.0865 35.0795 22.1653C34.7738 22.2342 34.7537 22.2342 34.5823 22.1849C34.2934 22.0963 33.7492 22.0865 33.4402 22.162C33.2016 22.2178 33.1647 22.2211 33.0034 22.1784C32.6843 22.093 32.2241 22.0865 31.8915 22.1653C31.6059 22.2309 31.5824 22.2309 31.3876 22.1817C31.2734 22.1521 31.0584 22.1193 30.9105 22.1062L30.6418 22.0865L30.6015 21.6269C30.5813 21.3742 30.5612 21.1641 30.5612 21.1575C30.5578 21.1542 30.4873 21.1509 30.4033 21.1509H30.2454L30.2689 21.3381C30.279 21.4431 30.2991 21.6269 30.3092 21.7484L30.3327 21.9716H30.2286C30.1715 21.9716 30.1211 21.9913 30.111 22.011C30.0976 22.0438 30.0875 22.0438 30.0505 22.011C30.0002 21.965 29.8658 21.9585 29.8389 22.0011C29.8255 22.0175 29.7751 22.0175 29.718 21.9946C29.6441 21.965 29.6004 21.965 29.5567 21.9946C29.503 22.0274 29.4828 21.988 29.3484 21.6039C29.2712 21.3709 29.1838 21.1706 29.1603 21.1608C29.1402 21.1542 29.0763 21.1509 29.0192 21.1575L28.9218 21.1674L29.0663 21.5941C29.1435 21.8271 29.2107 22.0405 29.2107 22.0602C29.2141 22.0865 29.167 22.1029 29.0898 22.1029C29.0192 22.1029 28.8378 22.1324 28.6866 22.1685C28.4078 22.2342 28.4078 22.2342 28.1323 22.1685C27.783 22.0865 27.3933 22.0865 27.0708 22.1653C26.8323 22.2211 26.8188 22.2211 26.5669 22.1653C26.2276 22.0832 25.8513 22.0865 25.5053 22.1685L25.2298 22.2375L24.9443 22.1685C24.5916 22.0865 24.2355 22.0865 23.8995 22.1653C23.6442 22.2243 23.6341 22.2243 23.362 22.162C23.0395 22.0865 22.5793 22.0963 22.24 22.1849C22.0552 22.2309 22.0216 22.2309 21.8369 22.1849C21.7294 22.1554 21.5345 22.1226 21.4069 22.1127L21.1784 22.093L21.1986 21.9256C21.2154 21.7713 21.3229 21.3315 21.3733 21.2035C21.3901 21.1608 21.3666 21.1509 21.2288 21.1509C21.0642 21.1509 21.0609 21.1542 21.0239 21.2724C21.0038 21.3413 20.9601 21.5252 20.9265 21.6827C20.8694 21.9552 20.8627 21.9716 20.782 21.9716C20.735 21.9716 20.6779 21.988 20.6544 22.011C20.6241 22.0405 20.604 22.0405 20.5738 22.011C20.5234 21.9617 20.4058 21.9585 20.3554 22.0077C20.3285 22.0339 20.3117 22.0339 20.2983 22.0077C20.268 21.9617 20.1001 21.9617 20.0564 22.0044C20.0094 22.0504 19.9657 21.4792 19.9959 21.2822L20.0195 21.1509H19.8582H19.7003L19.7138 21.6236L19.7238 22.0963L19.4887 22.1127C19.361 22.1226 19.1628 22.1554 19.0486 22.1849C18.8638 22.2309 18.8302 22.2309 18.6455 22.1817C18.3163 22.093 17.856 22.0865 17.5335 22.1587C17.2782 22.2178 17.2413 22.2211 17.08 22.1784C16.7609 22.093 16.3006 22.0865 15.968 22.1653L15.6758 22.2342L15.397 22.1685C15.0577 22.0898 14.6377 22.0865 14.3152 22.1653C14.0935 22.2178 14.0666 22.2178 13.8281 22.162C13.4955 22.0865 13.1059 22.0865 12.7632 22.1685C12.4844 22.2342 12.4844 22.2342 12.2089 22.1685C12.0544 22.1324 11.836 22.1029 11.7252 22.1029H11.5169L11.4934 21.6827C11.4833 21.4529 11.4698 21.2429 11.4665 21.2166C11.4598 21.1805 11.4094 21.1641 11.2952 21.1575L11.1305 21.1477L11.1541 21.4529C11.1675 21.6203 11.1843 21.8075 11.1944 21.8633C11.2145 21.965 11.2112 21.9716 11.1138 21.9716C11.0566 21.9716 11.0063 21.9913 10.9962 22.011C10.9827 22.0438 10.9727 22.0438 10.9357 22.011C10.882 21.965 10.7509 21.9585 10.7207 22.0044C10.7073 22.0274 10.6804 22.0274 10.6367 22.0044C10.5527 21.9585 10.4352 21.9617 10.4352 22.011C10.4352 22.0963 10.3982 22.0011 10.3344 21.7549C10.1698 21.1313 10.1765 21.1509 10.0488 21.1509C9.94133 21.1509 9.93125 21.1575 9.94805 21.2232Z" fill="white" stroke="white" stroke-width="0.5"/>
<path d="M5.58422 25.95C5.57414 26.0288 5.55063 26.2389 5.52711 26.4227L5.49016 26.7543L5.18445 26.774C5.01313 26.7871 4.79477 26.8166 4.7007 26.8429C4.54617 26.8823 4.49914 26.8823 4.34797 26.8429C4.25055 26.8199 4.07586 26.7871 3.96164 26.7772L3.75 26.7543V27.0399V27.3221H3.86086C3.91797 27.3221 4.09266 27.2926 4.24383 27.2565C4.52266 27.1908 4.52266 27.1908 4.79813 27.2565C4.95266 27.2926 5.16766 27.3221 5.28188 27.3221H5.4868L5.53047 27.4502C5.57414 27.588 5.54727 27.8408 5.44648 28.1625C5.3793 28.3791 5.3793 28.3791 5.53719 28.366C5.67828 28.3561 5.67828 28.3561 5.73539 28.1658C5.76898 28.0574 5.81266 27.8736 5.83281 27.7489C5.86641 27.5519 5.87984 27.5289 5.93695 27.5421C5.97391 27.5519 6.03102 27.5355 6.06797 27.5027C6.10492 27.4699 6.13516 27.46 6.13516 27.4797C6.13516 27.5388 6.29641 27.5651 6.35688 27.5158C6.40727 27.4764 6.41063 27.5158 6.40055 27.9229L6.38711 28.3726H6.50805C6.66258 28.3726 6.67266 28.343 6.67266 27.8572C6.67266 27.6471 6.68609 27.483 6.70625 27.4699C6.72641 27.46 6.73984 27.4206 6.73984 27.3845C6.73984 27.3287 6.76336 27.3221 6.95148 27.3221C7.0657 27.3221 7.28406 27.2926 7.43859 27.2565C7.71406 27.1908 7.71406 27.1908 7.99289 27.2565C8.33891 27.3386 8.72859 27.3386 9.05109 27.2598C9.28961 27.204 9.30305 27.204 9.555 27.2598C9.89766 27.3418 10.2873 27.3386 10.6233 27.2565L10.892 27.1908L11.1541 27.2565C11.49 27.3386 11.9099 27.3418 12.2492 27.2631C12.4945 27.2073 12.5113 27.2073 12.7363 27.2631C13.0555 27.3418 13.4821 27.3386 13.8147 27.2565L14.0801 27.1908L14.3555 27.2565C14.5067 27.2926 14.715 27.3221 14.8158 27.3221C14.9737 27.3221 15.0039 27.332 15.0039 27.3812C15.0039 27.4141 15.0207 27.4567 15.0375 27.4731C15.061 27.4961 15.0375 27.6274 14.9602 27.8835C14.8964 28.0903 14.8359 28.2839 14.8191 28.3135C14.799 28.366 14.8158 28.3726 14.9602 28.3726C15.1517 28.3726 15.1484 28.3758 15.2895 27.8408C15.3634 27.5519 15.3701 27.5355 15.4507 27.5454C15.4944 27.5519 15.5548 27.5322 15.5851 27.506C15.6288 27.46 15.6388 27.46 15.6758 27.5027C15.7262 27.5618 15.8639 27.5683 15.9009 27.5093C15.9378 27.4567 15.9714 27.7226 15.9748 28.0837L15.9781 28.3726H16.1293C16.2267 28.3726 16.2905 28.3561 16.3006 28.3299C16.3073 28.3069 16.304 28.1132 16.2838 27.8999C16.2637 27.6373 16.2637 27.4863 16.2905 27.4239C16.3241 27.3353 16.3376 27.3287 16.5963 27.3123C16.7474 27.3025 16.9591 27.2696 17.0666 27.2401C17.2547 27.1908 17.2782 27.1908 17.5369 27.2565C17.8728 27.3386 18.2625 27.3418 18.6052 27.2631C18.8504 27.204 18.8705 27.204 19.0923 27.2598C19.408 27.3418 19.8481 27.3386 20.1773 27.2565C20.4427 27.1908 20.4427 27.1908 20.7216 27.2565C21.0642 27.3353 21.4808 27.3386 21.8066 27.2598C22.0284 27.2073 22.0552 27.2073 22.2938 27.2631C22.6263 27.3386 23.016 27.3386 23.362 27.2565C23.6375 27.1908 23.6375 27.1908 23.9163 27.2565C24.0675 27.2926 24.2791 27.3221 24.3833 27.3221C24.5613 27.3221 24.5748 27.3287 24.6252 27.4239C24.6789 27.5257 24.6655 27.7719 24.5882 28.2478L24.568 28.3726H24.7091C24.8234 28.3726 24.8469 28.3594 24.8603 28.2971C24.8973 28.1395 24.9477 27.7456 24.9477 27.634C24.9477 27.5257 24.9544 27.5191 25.0384 27.5388C25.0988 27.5552 25.1391 27.5454 25.166 27.506C25.203 27.46 25.213 27.4567 25.25 27.5027C25.3004 27.5618 25.4045 27.5683 25.4381 27.5158C25.4818 27.4436 25.512 27.5651 25.5355 27.9097C25.5658 28.3758 25.5624 28.3726 25.7237 28.3726C25.848 28.3726 25.8547 28.3693 25.8547 28.2642C25.8547 28.2084 25.8379 28.0115 25.8211 27.8309C25.7976 27.6176 25.8009 27.4928 25.8211 27.4731C25.8413 27.4534 25.8547 27.4141 25.8547 27.3812C25.8547 27.332 25.8849 27.3221 26.0663 27.3221C26.1805 27.3221 26.3989 27.2926 26.5534 27.2565C26.8323 27.1908 26.8323 27.1908 27.0977 27.2565C27.4269 27.3386 27.8367 27.3418 28.1727 27.2631C28.4179 27.2073 28.4347 27.2073 28.6598 27.2631C28.9755 27.3418 29.3955 27.3386 29.7314 27.2565L30.0002 27.1908L30.2958 27.2598C30.6317 27.3386 31.0987 27.3353 31.4212 27.2466C31.5791 27.2073 31.6194 27.2073 31.7739 27.2499C32.0326 27.3221 32.6977 27.3221 32.9766 27.2466C33.1882 27.1908 33.2016 27.1908 33.4603 27.2565C33.6081 27.2926 33.813 27.3221 33.9172 27.3221C34.1053 27.3221 34.1087 27.3254 34.1423 27.4272C34.1624 27.4994 34.1591 27.6176 34.1322 27.7817C34.1087 27.9163 34.0852 28.1067 34.0751 28.1986L34.0616 28.3726H34.2195H34.3774L34.4177 28.018C34.4715 27.5388 34.4748 27.5257 34.579 27.5454C34.6361 27.5552 34.6798 27.5421 34.7066 27.506C34.7436 27.46 34.7537 27.4567 34.7906 27.5027C34.841 27.5618 34.962 27.5683 35.0157 27.5158C35.0594 27.4731 35.0527 27.4567 35.177 27.9852L35.2677 28.3726H35.4524C35.6137 28.3726 35.6372 28.366 35.6204 28.3135C35.4423 27.7456 35.3987 27.5618 35.4155 27.4469L35.439 27.3221H35.6372C35.748 27.3221 35.9563 27.2926 36.1008 27.2565C36.3662 27.1908 36.3662 27.1908 36.645 27.2565C36.9877 27.3353 37.4042 27.3386 37.7301 27.2598C37.9518 27.2073 37.9787 27.2073 38.2172 27.2631C38.5498 27.3386 38.9395 27.3386 39.2855 27.2565C39.5609 27.1908 39.5609 27.1908 39.8398 27.2565C40.1791 27.3353 40.5956 27.3386 40.9215 27.2598C41.1432 27.2073 41.1701 27.2073 41.4086 27.2631C41.7412 27.3386 42.1309 27.3386 42.4769 27.2565C42.7557 27.1908 42.7557 27.1908 43.0211 27.2565C43.1656 27.2926 43.3806 27.3221 43.5015 27.3221H43.7165L43.777 27.4534C43.8273 27.5651 43.8341 27.634 43.8139 27.9032C43.8005 28.0804 43.7837 28.2577 43.7736 28.2971C43.7534 28.366 43.7635 28.3726 43.8878 28.3726C44.0591 28.3726 44.0659 28.3561 44.086 27.89L44.1062 27.5191L44.1902 27.5421C44.2473 27.5552 44.2876 27.5454 44.3145 27.506C44.3514 27.46 44.3615 27.4567 44.3984 27.5027C44.4488 27.5618 44.5362 27.5683 44.5933 27.5125C44.6235 27.483 44.637 27.4863 44.6504 27.5224C44.6873 27.6274 44.768 28.1034 44.768 28.2314V28.3726H44.9326H45.0972L45.0804 28.2314C45.0703 28.1559 45.0367 27.959 45.0065 27.7981C44.9763 27.634 44.9595 27.4666 44.9695 27.4206C44.9863 27.3451 45.0065 27.3386 45.2551 27.3189C45.4029 27.309 45.6145 27.2729 45.7254 27.2434C45.9102 27.1908 45.9438 27.1908 46.1285 27.2401C46.2394 27.2696 46.4241 27.2992 46.5417 27.3123L46.75 27.332V27.0431V26.7543L46.5249 26.7772C46.3973 26.7871 46.2159 26.8199 46.1151 26.8462C45.9572 26.8856 45.9102 26.8856 45.7456 26.8429C45.6414 26.8166 45.4499 26.7838 45.3189 26.774L45.0804 26.7543L45.0569 26.472C45.0468 26.3177 45.0199 26.1043 44.9998 25.9993L44.9595 25.8122H44.8284C44.6974 25.8122 44.6941 25.8155 44.7142 25.9008C44.7243 25.9533 44.7445 26.1372 44.7545 26.3111L44.778 26.6328H44.6739C44.6168 26.6328 44.5664 26.6525 44.5563 26.6722C44.5429 26.705 44.5328 26.705 44.4959 26.6722C44.4388 26.6197 44.3077 26.6197 44.2876 26.6722C44.2741 26.705 44.2641 26.705 44.2271 26.6722C44.1734 26.623 44.0558 26.6197 44.0054 26.6689C43.9819 26.6919 43.9651 26.6295 43.9516 26.4621C43.9416 26.3308 43.9147 26.1306 43.8912 26.0157L43.8542 25.8122H43.7366C43.6157 25.8122 43.6157 25.8122 43.6392 25.9336C43.6527 26.0026 43.6695 26.2159 43.6829 26.4063L43.703 26.7543L43.4041 26.774C43.2395 26.7871 43.0245 26.8166 42.9304 26.8429C42.7725 26.8856 42.7322 26.8823 42.5609 26.8363C42.2888 26.7608 41.6639 26.7641 41.3784 26.8429C41.1701 26.8987 41.1533 26.8987 40.9248 26.8396C40.6057 26.7608 40.0212 26.7608 39.7558 26.8396C39.571 26.8954 39.5509 26.8954 39.3695 26.8396C39.1041 26.7608 38.4826 26.7608 38.187 26.8429C37.9787 26.8987 37.9619 26.8987 37.7334 26.8396C37.4277 26.7641 36.8365 26.7608 36.5644 26.8363C36.3931 26.8823 36.3494 26.8823 36.1848 26.8429C36.084 26.8166 35.8959 26.7838 35.7682 26.7707L35.5331 26.7477L35.6439 26.4195C35.7077 26.2389 35.7816 26.0354 35.8119 25.9697C35.8421 25.9008 35.8656 25.8384 35.8656 25.8286C35.8656 25.8187 35.7884 25.8122 35.6909 25.8187L35.5163 25.8286L35.4457 26.0091C35.4054 26.1076 35.3449 26.2882 35.3113 26.4129C35.2509 26.6295 35.2475 26.6328 35.14 26.6328C35.0695 26.6328 35.0157 26.6525 34.9956 26.6886C34.9754 26.7214 34.9586 26.7313 34.9586 26.7116C34.9586 26.6919 34.9216 26.6591 34.878 26.6394C34.8175 26.6131 34.7806 26.6164 34.7234 26.6558C34.6697 26.6919 34.6395 26.6952 34.6126 26.6689C34.5622 26.6197 34.3875 26.623 34.3875 26.6722C34.3875 26.6985 34.3774 26.7017 34.3539 26.6788C34.3338 26.6591 34.3102 26.4588 34.2968 26.2291L34.2766 25.8122H34.1322C34.0045 25.8122 33.9844 25.822 33.9642 25.8942C33.9541 25.9402 33.9609 26.1372 33.981 26.3308C34.0012 26.5245 34.018 26.6985 34.018 26.7182C34.018 26.7379 33.9205 26.7641 33.7895 26.774C33.6652 26.7838 33.4805 26.8166 33.3797 26.8429C33.2151 26.8856 33.1748 26.8856 32.9934 26.8396C32.7112 26.7641 32.1535 26.7641 31.8344 26.8396C31.5959 26.8954 31.5723 26.8954 31.3809 26.8462C31.0449 26.7543 30.6183 26.7477 30.2891 26.8232L30.0035 26.8889L29.7348 26.8265C29.4223 26.751 28.9621 26.7576 28.6295 26.8462C28.4448 26.8954 28.4145 26.8954 28.1928 26.8396C27.8871 26.7641 27.2959 26.7608 27.0204 26.8363C26.8457 26.8856 26.8054 26.8856 26.6509 26.8429C26.5534 26.8166 26.3519 26.7871 26.2007 26.7772C26.0462 26.7641 25.9219 26.751 25.9219 26.7477C25.9219 26.7017 25.9958 26.0288 26.0092 25.9336L26.0294 25.8122H25.858H25.6867V25.95C25.6867 26.0288 25.6766 26.2127 25.6632 26.3604C25.643 26.6328 25.643 26.6328 25.549 26.6328C25.4986 26.6328 25.4415 26.6558 25.4247 26.6853C25.3978 26.7346 25.3911 26.7346 25.3743 26.6853C25.3474 26.623 25.1627 26.6131 25.1391 26.6722C25.1257 26.705 25.1156 26.705 25.0787 26.6722C25.0249 26.623 24.9073 26.6197 24.857 26.6689C24.8334 26.6919 24.8166 26.6394 24.8032 26.4917C24.7931 26.3768 24.7595 26.1765 24.7293 26.0485L24.6722 25.8122H24.5277H24.3799L24.4135 25.9172C24.4505 26.0485 24.5445 26.5869 24.5445 26.6853C24.5445 26.7477 24.521 26.7576 24.2691 26.774C24.1145 26.7871 23.9096 26.8166 23.8155 26.8429C23.6577 26.8856 23.6173 26.8823 23.446 26.8363C23.1739 26.7608 22.5491 26.7641 22.2635 26.8429C22.0552 26.8987 22.0384 26.8987 21.81 26.8396C21.5043 26.7641 20.913 26.7608 20.6409 26.8363C20.4629 26.8856 20.4293 26.8856 20.2546 26.8363C19.9825 26.7608 19.3543 26.7641 19.0721 26.8429C18.8638 26.8987 18.847 26.8987 18.6186 26.8396C18.3062 26.7608 17.7519 26.7608 17.4697 26.8363C17.2849 26.8856 17.2446 26.8856 17.0834 26.8429C16.9826 26.8166 16.7911 26.7871 16.6601 26.774C16.5257 26.7641 16.4148 26.7444 16.4148 26.7346C16.4148 26.7247 16.4686 26.5212 16.5324 26.2882C16.5963 26.0518 16.65 25.8483 16.65 25.8352C16.65 25.822 16.5795 25.8122 16.4921 25.8187L16.3342 25.8286L16.2334 26.2291C16.136 26.6197 16.1293 26.6328 16.042 26.6328C15.9916 26.6328 15.9345 26.6558 15.9076 26.6853C15.8706 26.7313 15.8639 26.7313 15.837 26.6853C15.8001 26.623 15.6388 26.6164 15.5817 26.6722C15.5515 26.7017 15.5313 26.7017 15.5011 26.6722C15.4507 26.623 15.2727 26.6197 15.2727 26.6722C15.2727 26.6919 15.2626 26.7017 15.2525 26.6886C15.2391 26.6788 15.1988 26.4785 15.1584 26.2488L15.0879 25.8286L14.93 25.8187C14.8393 25.8122 14.7688 25.822 14.7688 25.8352C14.7688 25.8647 14.893 26.5672 14.9199 26.6853C14.9334 26.751 14.9166 26.7576 14.6915 26.774C14.5605 26.7871 14.369 26.8166 14.2682 26.8429C14.1002 26.8889 14.0633 26.8856 13.7979 26.8232C13.462 26.7444 13.032 26.7543 12.7061 26.8462C12.518 26.8987 12.4978 26.8987 12.2694 26.8429C11.957 26.7608 11.3758 26.7608 11.0869 26.8396C10.8988 26.8889 10.8652 26.8889 10.7173 26.8462C10.6266 26.8166 10.4083 26.7871 10.2336 26.7772C9.97492 26.7608 9.85734 26.7707 9.60875 26.8265C9.30641 26.8987 9.29633 26.8987 9.08805 26.8396C8.80586 26.7641 8.17766 26.7608 7.91227 26.8363C7.73758 26.8823 7.70398 26.8823 7.44195 26.8265C7.28742 26.7937 7.08586 26.7641 6.99516 26.7641H6.83391L6.85742 26.5409C6.87086 26.4195 6.89102 26.2061 6.90445 26.0649L6.92797 25.8122H6.80703H6.68609L6.64242 26.1798C6.59203 26.6164 6.58531 26.6328 6.49125 26.6328C6.45094 26.6328 6.40055 26.6492 6.38039 26.6689C6.35352 26.6952 6.32328 26.6919 6.27289 26.6591C6.21578 26.6263 6.18891 26.6263 6.13516 26.6591C6.08141 26.6919 6.05453 26.6919 6.00078 26.6591C5.94703 26.6263 5.92016 26.6263 5.86305 26.6591C5.79586 26.7017 5.79586 26.6985 5.81938 26.2553L5.84289 25.8122H5.72195C5.60438 25.8122 5.60102 25.8155 5.58422 25.95Z" fill="white" stroke="white" stroke-width="0.5"/>
<path d="M10.069 30.6998C10.1026 30.8245 10.1395 31.0346 10.1563 31.1725L10.1866 31.4154L9.97156 31.4351C9.85398 31.4482 9.65914 31.4811 9.5382 31.5106C9.32656 31.5631 9.29969 31.5631 9.04438 31.504C8.70172 31.4253 8.21461 31.4253 7.9257 31.504C7.7275 31.5533 7.70063 31.5533 7.50578 31.504C7.13961 31.4121 6.85742 31.4088 6.4543 31.4876C6.0982 31.5598 6.09148 31.5598 5.85297 31.5007C5.54391 31.4253 5.0232 31.4253 4.7343 31.5007C4.54281 31.5533 4.50586 31.5533 4.33117 31.5106C4.22367 31.4811 4.04898 31.4515 3.94484 31.4384L3.75 31.4154V31.701V31.9833H3.87766C3.95156 31.9833 4.12289 31.9537 4.26398 31.9176C4.5193 31.8553 4.52602 31.8553 4.78133 31.9176C5.09711 31.9997 5.58758 31.9997 5.9 31.9242C6.10492 31.8717 6.1318 31.8717 6.35352 31.9242C6.67266 32.003 7.13289 31.9997 7.45539 31.9176C7.7107 31.8553 7.71742 31.8553 7.97273 31.9176C8.28852 31.9997 8.72523 32.003 9.05781 31.9308C9.26609 31.8848 9.32656 31.8815 9.49117 31.9209C9.59531 31.9439 9.80695 31.9702 9.96148 31.98L10.247 31.9997L10.2739 32.108C10.2941 32.1802 10.2806 32.3247 10.2336 32.5676C10.1429 33.0468 10.1395 33.0403 10.2907 33.0271L10.4116 33.0173L10.4923 32.6726C10.5359 32.4822 10.5763 32.2951 10.5863 32.259C10.5998 32.2032 10.6199 32.1934 10.6905 32.2065C10.7509 32.2163 10.7946 32.2032 10.8215 32.1671C10.8584 32.1211 10.8685 32.1179 10.9055 32.1638C10.9559 32.2229 11.0768 32.2295 11.1373 32.1704C11.1742 32.1376 11.1776 32.2098 11.1641 32.5807L11.1507 33.0337H11.312H11.4766L11.4799 32.5971C11.4833 31.9767 11.4698 32.003 11.8125 31.9833C11.9704 31.9734 12.1888 31.9439 12.303 31.9176C12.481 31.8782 12.5314 31.8815 12.7296 31.9275C13.032 32.003 13.509 31.9997 13.8248 31.9176C14.07 31.8585 14.0767 31.8585 14.3287 31.9176C14.6512 31.9997 15.1383 31.9997 15.4406 31.9242C15.6455 31.8717 15.6724 31.8717 15.9109 31.9242C16.2402 31.9997 16.6668 31.9997 17.0027 31.9209C17.2648 31.8585 17.2748 31.8585 17.5234 31.9209C17.8392 31.9997 18.3297 31.9997 18.632 31.9242C18.837 31.8717 18.8638 31.8717 19.0855 31.9242C19.2166 31.957 19.4282 31.9833 19.5626 31.9833C19.7977 31.9833 19.8045 31.9866 19.8548 32.0883C19.8952 32.1638 19.9086 32.2951 19.9086 32.6135V33.0337H20.0396H20.1673L20.1874 32.7612C20.2009 32.6135 20.2109 32.4231 20.2109 32.3378C20.2109 32.2032 20.2177 32.1868 20.2781 32.2032C20.3151 32.2131 20.3688 32.2032 20.3957 32.1802C20.436 32.1474 20.4595 32.1474 20.4864 32.1737C20.5368 32.2229 20.6577 32.2229 20.7048 32.177C20.7384 32.1441 20.7854 32.3608 20.866 32.8925C20.8895 33.0304 20.8929 33.0337 21.0205 33.0337C21.1751 33.0337 21.1751 33.0337 21.0978 32.5741C21.0709 32.4034 21.0575 32.1999 21.0676 32.1211L21.0877 31.9833L21.3464 31.98C21.4875 31.9767 21.7025 31.9537 21.8234 31.9242C22.0284 31.8717 22.0552 31.8717 22.277 31.9242C22.5961 32.003 23.0563 31.9997 23.3721 31.9209C23.6207 31.8585 23.6274 31.8585 23.8928 31.9209C24.222 31.9964 24.6554 31.9997 24.9813 31.9308C25.2063 31.8815 25.2433 31.8815 25.4717 31.9308C25.8077 32.003 26.2477 31.9964 26.5635 31.9176C26.8155 31.8585 26.8222 31.8585 27.0674 31.9176C27.3866 31.9997 27.8703 32.003 28.1861 31.9242C28.4045 31.8684 28.428 31.8684 28.6396 31.9242C28.7605 31.9537 28.9688 31.98 29.0998 31.98L29.3384 31.9833L29.3585 32.0982C29.3787 32.2131 29.3182 32.4199 29.1502 32.8302C29.1133 32.9254 29.0797 33.0107 29.0797 33.0173C29.0797 33.0271 29.1435 33.0337 29.2241 33.0337H29.3652L29.4727 32.7612C29.5332 32.6135 29.6071 32.4231 29.634 32.3411C29.681 32.2032 29.6945 32.1901 29.7751 32.2065C29.8322 32.2163 29.8759 32.2032 29.9027 32.1671C29.9397 32.1211 29.9498 32.1179 29.9867 32.1638C30.0371 32.2229 30.158 32.2295 30.2185 32.1704C30.2521 32.1376 30.2555 32.1671 30.2387 32.3279C30.2118 32.5577 30.158 32.8925 30.1345 32.9746C30.1177 33.0238 30.1379 33.0337 30.2689 33.0337C30.3831 33.0337 30.4234 33.0206 30.4369 32.9746C30.4738 32.8532 30.5242 32.5249 30.5242 32.4133C30.5242 32.3476 30.5511 32.2262 30.5813 32.1376L30.6384 31.9833H30.8669C30.9912 31.9833 31.2062 31.9603 31.3473 31.9275C31.5824 31.8782 31.616 31.8782 31.8512 31.9275C32.1871 31.9997 32.5936 31.9964 32.9262 31.9209C33.1882 31.8585 33.1983 31.8585 33.4469 31.9209C33.7694 31.9997 34.2531 31.9997 34.5588 31.9242C34.7705 31.8684 34.794 31.8684 35.0123 31.9242C35.3281 32.003 35.785 31.9997 36.1142 31.9176C36.3695 31.8553 36.3729 31.8553 36.6316 31.9176C36.9541 31.9964 37.3874 32.003 37.7267 31.9308C37.9552 31.8815 37.9921 31.8815 38.2172 31.9308C38.3516 31.9603 38.5598 31.9833 38.6841 31.9833C38.9092 31.9833 38.9092 31.9833 38.9495 32.0916C38.973 32.154 38.9898 32.3772 38.9898 32.6168V33.0337H39.141H39.2922V32.6102V32.1901L39.3829 32.2065C39.44 32.2163 39.4837 32.2032 39.5106 32.1671C39.5475 32.1211 39.5576 32.1179 39.5945 32.1638C39.6416 32.2196 39.7961 32.2328 39.7961 32.1802C39.7961 32.1605 39.8129 32.1474 39.8297 32.1474C39.8498 32.1474 39.8633 32.1737 39.8633 32.2032C39.8633 32.2557 39.9406 32.5676 40.0346 32.909C40.0648 33.0271 40.0749 33.0337 40.2127 33.0337H40.3571L40.2429 32.6004C40.169 32.3148 40.1455 32.154 40.1656 32.1343C40.1858 32.1146 40.1992 32.0752 40.1992 32.0424C40.1992 31.9898 40.2295 31.9833 40.431 31.9833C40.5587 31.9833 40.7703 31.9603 40.9047 31.9308C41.1298 31.8815 41.1667 31.8815 41.3952 31.9308C41.7345 32.003 42.1678 31.9964 42.4903 31.9176C42.749 31.8553 42.7523 31.8553 43.0077 31.9176C43.3369 31.9997 43.7938 32.003 44.1095 31.9242C44.3279 31.8684 44.3514 31.8684 44.563 31.9242C44.8688 31.9997 45.3525 31.9997 45.675 31.9209C45.9236 31.8585 45.9337 31.8585 46.1957 31.9209C46.3435 31.9537 46.5283 31.9833 46.6089 31.9833H46.75V31.701V31.4154L46.5283 31.4384C46.4073 31.4515 46.2226 31.4811 46.1184 31.5073C45.9538 31.55 45.9102 31.55 45.7288 31.5007C45.4432 31.4253 44.8889 31.4253 44.5765 31.504C44.3413 31.5631 44.3279 31.5631 44.0894 31.504C43.7736 31.4253 43.2529 31.4253 42.964 31.5007C42.7658 31.5533 42.7389 31.5533 42.5441 31.504C42.1779 31.4121 41.8991 31.4088 41.4892 31.4909C41.1331 31.5598 41.113 31.5598 40.9081 31.5073C40.7871 31.4778 40.5889 31.4449 40.4613 31.4351L40.2328 31.4154V31.1659C40.2328 31.0281 40.2227 30.818 40.2093 30.6932L40.1891 30.4733H40.0413H39.8902L39.9103 30.5948C39.9204 30.6637 39.9372 30.8475 39.9506 31.0051L39.9708 31.2939H39.87C39.8095 31.2939 39.7625 31.3136 39.7491 31.3465C39.7323 31.3924 39.7256 31.3924 39.6752 31.3465C39.6147 31.2841 39.524 31.2775 39.4669 31.3333C39.4366 31.3629 39.4165 31.3629 39.3863 31.3333C39.3359 31.2841 39.2183 31.2808 39.1713 31.3268C39.1477 31.3498 39.1242 31.2907 39.0973 31.1528C39.0738 31.0412 39.0302 30.841 39.0033 30.7097L38.9495 30.4733H38.8185C38.6976 30.4733 38.6875 30.4799 38.7009 30.5455C38.711 30.5882 38.7413 30.7687 38.7715 30.9493C38.8017 31.1298 38.8353 31.3071 38.842 31.3465C38.8588 31.4088 38.842 31.4154 38.6405 31.4351C38.5229 31.4449 38.328 31.4778 38.2105 31.5073C38.0089 31.5598 37.9854 31.5598 37.6327 31.4909C37.2228 31.4088 36.944 31.4121 36.5812 31.504C36.383 31.5533 36.3561 31.5533 36.1613 31.5007C35.869 31.4253 35.3483 31.4253 35.0325 31.504C34.794 31.5631 34.7806 31.5631 34.5454 31.504C34.233 31.4253 33.6787 31.4253 33.3931 31.5007C33.205 31.5533 33.1748 31.5533 32.99 31.5007C32.7078 31.4253 32.1535 31.4253 31.8411 31.504C31.6127 31.5598 31.5824 31.5598 31.3876 31.5139C31.2734 31.4843 31.0785 31.4515 30.9542 31.4384C30.8232 31.4253 30.7258 31.4023 30.7258 31.3793C30.7258 31.3596 30.7762 31.1495 30.84 30.9165L30.9509 30.4897L30.8165 30.4799C30.7426 30.4733 30.672 30.4832 30.662 30.5029C30.6485 30.5226 30.5948 30.7064 30.541 30.9165C30.447 31.2743 30.4369 31.2939 30.3563 31.2939C30.3092 31.2939 30.2521 31.3104 30.2286 31.3333C30.1984 31.3629 30.1782 31.3629 30.148 31.3333C30.0976 31.2841 29.9766 31.2841 29.9263 31.3333C29.896 31.3629 29.8759 31.3629 29.8456 31.3333C29.7952 31.2841 29.6777 31.2808 29.6273 31.3301C29.5702 31.3859 29.5433 31.1036 29.5702 30.7655L29.5937 30.4733H29.4391H29.288L29.2645 30.7556C29.251 30.9099 29.2477 31.12 29.2611 31.225L29.2846 31.4154L29.0562 31.4384C28.9319 31.4515 28.7337 31.4843 28.6195 31.5139C28.4246 31.5598 28.391 31.5598 28.1827 31.5073C27.8098 31.4154 27.4941 31.4088 27.1279 31.4843C26.8188 31.55 26.7953 31.55 26.6072 31.4975C26.325 31.422 25.7707 31.4253 25.465 31.504C25.2332 31.5664 25.2231 31.5664 24.9779 31.504C24.6588 31.4253 24.1414 31.422 23.8491 31.5007C23.6509 31.5566 23.6241 31.5566 23.4292 31.504C23.137 31.4253 22.6498 31.4253 22.3038 31.504C22.0418 31.5631 22.0216 31.5631 21.8033 31.5106C21.679 31.4811 21.4841 31.4449 21.3699 31.4351L21.1616 31.4154L21.1381 31.1692C21.128 31.0346 21.118 30.8442 21.118 30.749C21.118 30.5094 21.0978 30.4733 20.9634 30.4733H20.8492V30.8968C20.8492 31.3136 20.8492 31.3202 20.7787 31.3038C20.7316 31.2907 20.6913 31.3038 20.6645 31.3399C20.6275 31.3859 20.6174 31.3891 20.5805 31.3432C20.5301 31.2841 20.389 31.2775 20.3688 31.3333C20.3554 31.3662 20.3453 31.3662 20.3084 31.3333C20.2546 31.2841 20.137 31.2808 20.09 31.3268C20.0665 31.3498 20.043 31.2939 20.0161 31.1495C19.9926 31.0313 19.9523 30.8344 19.922 30.7064L19.8683 30.4733H19.7205C19.6398 30.4733 19.5727 30.4799 19.5727 30.4897C19.5727 30.4963 19.6029 30.6276 19.6398 30.7819C19.6768 30.9362 19.7171 31.1397 19.7339 31.2381L19.7641 31.4154L19.5424 31.4351C19.4215 31.4449 19.2199 31.4778 19.0923 31.5106C18.8773 31.5631 18.8538 31.5631 18.622 31.504C18.3095 31.4253 17.7586 31.4253 17.4697 31.5007C17.2782 31.5533 17.2513 31.5533 17.0666 31.5007C16.7911 31.4253 16.1998 31.4285 15.9143 31.504C15.706 31.5598 15.6892 31.5598 15.3298 31.4876C14.9266 31.4121 14.6176 31.4154 14.2716 31.504C14.1137 31.5467 14.0633 31.5434 13.7677 31.4843C13.4015 31.4088 13.0823 31.4187 12.7061 31.5106C12.4978 31.5598 12.4709 31.5598 12.2593 31.5106C12.1384 31.4778 11.9435 31.4449 11.8293 31.4351L11.6244 31.4154L11.6647 31.1659C11.6882 31.0281 11.7084 30.818 11.7084 30.6932L11.7117 30.4733H11.5807C11.4329 30.4733 11.4463 30.4372 11.3926 30.9329C11.3523 31.2972 11.3455 31.3169 11.2515 31.3005C11.1944 31.2907 11.1507 31.3038 11.1238 31.3399C11.0869 31.3859 11.0768 31.3891 11.0398 31.3432C10.9861 31.2775 10.8484 31.2808 10.8114 31.3465C10.7845 31.3924 10.7778 31.3924 10.7409 31.3465C10.6905 31.2874 10.5662 31.2775 10.5124 31.3301C10.4889 31.353 10.4721 31.2972 10.4553 31.1397C10.4419 31.0182 10.4083 30.818 10.3814 30.6932L10.3277 30.4733H10.1698H10.0119L10.069 30.6998Z" fill="white" stroke="white" stroke-width="0.5"/>
<path d="M5.41625 35.2558C5.40617 35.3248 5.39609 35.5381 5.39609 35.7285V36.0765L5.17102 36.0995C5.04336 36.1126 4.85188 36.1454 4.74102 36.1717C4.56297 36.2176 4.5193 36.2176 4.32109 36.1717C4.20016 36.1454 4.02211 36.1126 3.92805 36.1027L3.75 36.0798V36.3752V36.6706L3.90789 36.6509C3.99859 36.6444 4.17328 36.6115 4.29758 36.5787C4.51258 36.5262 4.53945 36.5262 4.75781 36.582C4.88547 36.6115 5.09375 36.6476 5.22141 36.6608C5.53047 36.6903 5.54391 36.7264 5.43977 37.2352C5.39945 37.442 5.36586 37.6324 5.3625 37.6521C5.3625 37.6816 5.41289 37.6948 5.50695 37.6948H5.65477L5.68836 37.5372C5.70852 37.4519 5.74547 37.268 5.76898 37.1269L5.81266 36.8741H5.92016C5.98063 36.8741 6.04109 36.8577 6.05453 36.838C6.06797 36.8118 6.08477 36.8118 6.11164 36.838C6.16203 36.8873 6.33672 36.884 6.33672 36.8347C6.33672 36.8118 6.3468 36.8085 6.36359 36.8282C6.38039 36.8446 6.41063 37.012 6.43414 37.2024C6.49797 37.721 6.48117 37.6948 6.68945 37.6948H6.8675L6.83391 37.57C6.77008 37.3435 6.67938 36.8085 6.70961 36.8085C6.72305 36.8085 6.73984 36.7789 6.74656 36.7395C6.75664 36.6805 6.78688 36.6706 6.9918 36.6575C7.12281 36.6509 7.33781 36.6148 7.47219 36.582C7.70734 36.5262 7.72078 36.5262 7.9593 36.5853C8.2818 36.6673 8.73867 36.6739 9.04773 36.5984C9.27617 36.5426 9.29969 36.5426 9.55164 36.5984C9.89766 36.6739 10.3142 36.6706 10.6434 36.5853C10.8988 36.5196 10.9021 36.5196 11.1305 36.5853C11.4363 36.6706 11.9166 36.6739 12.2391 36.5984C12.4676 36.5426 12.4911 36.5426 12.7263 36.5951C13.0555 36.6706 13.509 36.6673 13.8281 36.5885C14.07 36.5262 14.0902 36.5262 14.3052 36.582C14.4295 36.6115 14.6445 36.6476 14.7822 36.6608C15.014 36.6805 15.0308 36.687 15.0476 36.7658C15.0543 36.8118 15.0274 37.0218 14.9838 37.2319C14.9401 37.442 14.9031 37.6324 14.9031 37.6521C14.9031 37.6783 14.9502 37.6948 15.0341 37.6948H15.1652L15.2021 37.5208C15.3331 36.9135 15.3466 36.8741 15.4406 36.8741C15.4877 36.8741 15.5448 36.8577 15.5683 36.8347C15.5985 36.8052 15.6187 36.8052 15.6489 36.8347C15.6993 36.884 15.8169 36.8873 15.8673 36.838C15.8941 36.8118 15.9009 36.9168 15.8874 37.2483L15.8673 37.6948H16.0084C16.1159 37.6948 16.1461 37.6816 16.1495 37.6357C16.1595 37.2844 16.2166 36.8413 16.257 36.7658C16.304 36.6772 16.3241 36.6706 16.5593 36.6575C16.697 36.6476 16.912 36.6148 17.0363 36.582C17.2547 36.5229 17.2648 36.5229 17.5167 36.5853C17.8459 36.6706 18.2625 36.6739 18.6085 36.5984C18.8605 36.5426 18.884 36.5426 19.1124 36.5984C19.4248 36.6739 19.8784 36.6706 20.2042 36.5853C20.4427 36.5262 20.4528 36.5262 20.6913 36.5853C21.0038 36.6673 21.4909 36.6706 21.8033 36.5984C22.0216 36.5459 22.0519 36.5459 22.2904 36.5984C22.6196 36.6739 23.0731 36.6673 23.3923 36.5853C23.6241 36.5262 23.6442 36.5262 23.8626 36.582C23.9869 36.6115 24.1985 36.6476 24.3329 36.6608L24.5748 36.6837L24.5916 36.8019C24.605 36.8708 24.5983 37.012 24.5781 37.1203C24.5613 37.2286 24.5445 37.4026 24.5445 37.5044V37.6948H24.6722H24.8032L24.8502 37.291L24.8973 36.8905L24.998 36.8807C25.0552 36.8741 25.1156 36.8544 25.1391 36.838C25.1627 36.815 25.1862 36.8183 25.1996 36.8413C25.2298 36.8873 25.3945 36.884 25.4448 36.8347C25.4751 36.8052 25.4852 36.838 25.4852 36.9923C25.4852 37.0973 25.502 37.3009 25.5255 37.442L25.5624 37.6948H25.7304C25.8715 37.6948 25.8916 37.6882 25.8748 37.639C25.8614 37.6094 25.8345 37.4322 25.8144 37.2451C25.7841 36.9825 25.7841 36.8807 25.8177 36.7855L25.8614 36.6608L26.0932 36.6542C26.2175 36.6509 26.4359 36.6181 26.5702 36.5853C26.8155 36.5229 26.8222 36.5229 27.0674 36.5853C27.3933 36.6706 27.8434 36.6739 28.1626 36.5984C28.391 36.5426 28.4145 36.5426 28.6497 36.5951C28.9722 36.6706 29.4593 36.6673 29.7684 36.5853C30.0002 36.5262 30.0102 36.5262 30.2555 36.5885C30.5813 36.6706 31.0348 36.6739 31.3573 36.5984C31.5891 36.5426 31.6093 36.5426 31.8445 36.5984C32.167 36.6739 32.6473 36.6706 32.953 36.5853C33.1781 36.5229 33.1848 36.5229 33.4334 36.582C33.5712 36.6181 33.7895 36.6509 33.9138 36.6542L34.1456 36.6608L34.1893 36.7822C34.2162 36.8643 34.2229 37.0317 34.2128 37.2976L34.196 37.6948H34.3371H34.4782L34.5051 37.2746L34.5286 36.8512L34.6126 36.8676C34.6697 36.8774 34.7134 36.8643 34.7402 36.8282C34.7772 36.7822 34.7873 36.7789 34.8242 36.8249C34.8713 36.8807 34.9956 36.8905 35.0493 36.838C35.0829 36.8052 35.1333 37.0448 35.1803 37.488L35.2038 37.6948H35.3516H35.5028L35.4793 37.4715C35.4692 37.3501 35.4423 37.1696 35.4256 37.0711C35.4088 36.9726 35.4054 36.8446 35.4155 36.7888C35.4356 36.6837 35.439 36.6837 35.6741 36.6608C35.8085 36.6476 36.0202 36.6115 36.1445 36.582C36.3628 36.5262 36.383 36.5262 36.6148 36.5853C36.9339 36.6673 37.3874 36.6739 37.7234 36.5984C37.972 36.5426 37.9921 36.5426 38.2273 36.5984C38.5363 36.6739 38.9898 36.6673 39.3191 36.5853C39.5576 36.5262 39.5643 36.5262 39.8062 36.5853C40.132 36.6673 40.5855 36.6739 40.8946 36.5984C41.1298 36.5426 41.1499 36.5426 41.3985 36.5984C41.7345 36.6739 42.188 36.6673 42.5071 36.5853C42.7423 36.5262 42.7557 36.5262 42.9909 36.5853C43.1252 36.6181 43.3369 36.6476 43.4612 36.6509L43.6863 36.6608L43.7266 36.7822C43.7602 36.8741 43.7602 36.9825 43.7299 37.2582C43.7098 37.4519 43.693 37.6324 43.693 37.6521C43.693 37.6783 43.74 37.6948 43.824 37.6948C43.9718 37.6948 43.9718 37.6882 44.0121 37.3009C44.0524 36.884 44.0558 36.8741 44.1566 36.8741C44.2103 36.8741 44.2674 36.8577 44.2876 36.838C44.3145 36.8118 44.3313 36.8118 44.3447 36.838C44.3749 36.884 44.5093 36.884 44.5563 36.838C44.5966 36.7986 44.6034 36.8282 44.6706 37.3731L44.7109 37.6948H44.8587C45.0266 37.6948 45.0199 37.7309 44.9494 37.2188C44.9091 36.9398 44.9057 36.8249 44.9326 36.7986C44.9527 36.7789 44.9695 36.7395 44.9695 36.71C44.9695 36.6706 45.0199 36.6608 45.2047 36.6542C45.3323 36.6509 45.5507 36.6181 45.6884 36.582C45.9303 36.5229 45.9471 36.5229 46.152 36.5787C46.2696 36.6082 46.451 36.6444 46.5585 36.6542L46.75 36.6739V36.3752V36.0765L46.5417 36.0995C46.4241 36.1126 46.2394 36.1454 46.1252 36.1717C45.9438 36.2176 45.9001 36.2176 45.722 36.1717C45.6112 36.1421 45.4096 36.1093 45.2752 36.0995L45.0266 36.0765L45.0502 35.6793C45.0636 35.4626 45.0804 35.2493 45.0938 35.2099C45.1106 35.141 45.1006 35.1344 44.9763 35.1344C44.8553 35.1344 44.8385 35.1442 44.8217 35.2263C44.8049 35.2985 44.7377 35.8795 44.7344 35.9616C44.7344 35.9714 44.7041 35.9747 44.6672 35.9649C44.6302 35.955 44.5798 35.9649 44.5563 35.9846C44.5227 36.0108 44.4824 36.0075 44.4052 35.9813C44.3145 35.9452 44.2943 35.9485 44.254 36.001C44.2137 36.0535 44.207 36.0535 44.1666 36.0075C44.1129 35.9452 44.0088 35.9386 43.9718 35.9944C43.9315 36.0633 43.9013 35.8762 43.8979 35.4856L43.8945 35.1344H43.7602H43.6258V35.6104V36.0863H43.5048C43.441 36.0863 43.2361 36.1159 43.0547 36.152C42.7355 36.2176 42.7154 36.2176 42.5105 36.1651C42.2216 36.0863 41.7009 36.0896 41.3918 36.1717C41.1634 36.2308 41.1499 36.2308 40.9215 36.1749C40.5956 36.0929 40.1119 36.0863 39.8062 36.1651C39.5677 36.2242 39.5542 36.2242 39.3191 36.1651C39.01 36.0863 38.5263 36.0929 38.2004 36.1749C37.972 36.2308 37.9585 36.2308 37.7301 36.1717C37.421 36.0896 36.9003 36.0863 36.6114 36.1651C36.4065 36.2176 36.3863 36.2176 36.0672 36.152C35.8858 36.1159 35.6977 36.0863 35.6506 36.0863C35.6036 36.0863 35.5633 36.083 35.5633 36.0765C35.5633 36.0732 35.6238 35.8697 35.6977 35.6268C35.7716 35.3839 35.832 35.1738 35.832 35.1574C35.832 35.1442 35.7682 35.1344 35.6876 35.1344H35.5431L35.4155 35.5545C35.2979 35.9485 35.2845 35.978 35.2139 35.9649C35.1702 35.955 35.1131 35.9714 35.0863 36.001C35.0392 36.0469 35.0258 36.0469 34.9922 36.0043C34.9418 35.9452 34.8209 35.9386 34.7638 35.9944C34.7335 36.024 34.7134 36.024 34.6831 35.9944C34.6327 35.9452 34.5118 35.9452 34.4614 35.9944C34.4312 36.024 34.4211 35.9353 34.4211 35.5841V35.1344H34.2464H34.0751L34.0986 35.6071L34.1221 36.0765L33.8634 36.0962C33.7257 36.1093 33.5174 36.1421 33.4066 36.1717C33.2151 36.2176 33.1848 36.2176 32.9631 36.1618C32.644 36.083 32.1334 36.0896 31.8277 36.1782C31.5992 36.2406 31.5992 36.2406 31.3741 36.1782C31.0718 36.0896 30.5242 36.083 30.2252 36.1651C30.0203 36.2209 30.0002 36.2209 29.7717 36.1618C29.4559 36.083 28.942 36.0896 28.643 36.1749C28.428 36.234 28.4145 36.2373 28.1895 36.1782C27.7863 36.0798 27.5243 36.0732 27.1413 36.152C26.8222 36.2176 26.7886 36.2176 26.6038 36.1717C26.4963 36.1421 26.2948 36.1093 26.1638 36.0995L25.9185 36.0765L25.9387 35.9747C25.9756 35.8073 26.1167 35.2526 26.1402 35.1902C26.1604 35.141 26.1402 35.1344 25.979 35.1344H25.7976L25.7438 35.3543C25.7136 35.4791 25.6733 35.6662 25.6498 35.7778C25.6162 35.9583 25.6061 35.9747 25.5389 35.9649C25.4952 35.955 25.4381 35.9714 25.4113 36.001C25.3642 36.0469 25.3508 36.0469 25.3172 36.0043C25.2634 35.9386 25.1257 35.9419 25.0888 36.0075C25.0619 36.0535 25.0552 36.0535 25.0182 36.0075C24.9678 35.9485 24.8603 35.9386 24.8301 35.9878C24.7797 36.0699 24.7528 35.9944 24.7159 35.6497C24.6554 35.1081 24.6655 35.1344 24.5109 35.1344C24.353 35.1344 24.3564 35.1147 24.427 35.6432C24.4538 35.8401 24.4773 36.0207 24.4773 36.0404C24.4773 36.0633 24.3866 36.0863 24.2691 36.0995C24.1515 36.1126 23.96 36.1454 23.8424 36.1717C23.6442 36.2176 23.6039 36.2176 23.3889 36.1618C23.0832 36.0863 22.5995 36.0929 22.277 36.1749C22.0485 36.234 22.0351 36.234 21.8066 36.1749C21.4942 36.0929 20.9735 36.0896 20.6846 36.1651C20.4797 36.2209 20.4562 36.2176 20.2143 36.1651C19.8851 36.0896 19.4013 36.0929 19.0855 36.1749C18.8571 36.2373 18.847 36.2373 18.632 36.1749C18.3431 36.0896 17.7888 36.0863 17.4999 36.1618C17.2984 36.2176 17.2782 36.2176 16.9557 36.152C16.7743 36.1159 16.566 36.0863 16.4988 36.0863C16.3779 36.0863 16.3779 36.083 16.398 35.978C16.4115 35.9222 16.4652 35.7187 16.519 35.5316C16.5727 35.3445 16.6164 35.1771 16.6164 35.1639C16.6164 35.1475 16.5526 35.1344 16.472 35.1344H16.3241L16.2368 35.4528C16.1864 35.63 16.1394 35.8139 16.1259 35.8631C16.1091 35.9386 16.0856 35.955 16.0084 35.955C15.958 35.955 15.9009 35.978 15.8841 36.0075C15.8572 36.0535 15.8505 36.0535 15.8135 36.0075C15.7564 35.9419 15.6623 35.9419 15.6086 36.0043C15.5716 36.0469 15.5616 36.0469 15.5179 36.0043C15.4574 35.9452 15.3701 35.9419 15.3096 35.9944C15.2626 36.0404 15.2626 36.0272 15.3264 35.3543L15.3499 35.1344H15.2155H15.0812L15.0409 35.4692C15.0207 35.6563 14.9938 35.8664 14.9838 35.9419L14.967 36.0765L14.7284 36.0995C14.5941 36.1126 14.3959 36.1421 14.285 36.1717C14.1002 36.2176 14.0666 36.2176 13.8483 36.1618C13.5325 36.083 13.0185 36.0896 12.7195 36.1749C12.5045 36.2373 12.4945 36.2373 12.266 36.1749C11.9502 36.0929 11.4027 36.0863 11.1104 36.1651C10.9055 36.2209 10.8853 36.2209 10.6569 36.1618C10.3411 36.083 9.82711 36.0896 9.52813 36.1749C9.31313 36.2373 9.30305 36.2373 9.07461 36.1749C8.75883 36.0929 8.27508 36.0896 7.94586 36.1651C7.7107 36.2176 7.67375 36.2176 7.49234 36.1717C7.38148 36.1421 7.18664 36.1126 7.05563 36.0995L6.82047 36.0765L6.86078 35.7778C6.8843 35.6136 6.91117 35.4003 6.92461 35.3051L6.95148 35.1344H6.81375C6.67938 35.1344 6.67938 35.1344 6.64578 35.2887C6.62563 35.3773 6.59203 35.5677 6.56852 35.7121C6.53156 35.9485 6.52148 35.978 6.46438 35.9616C6.43078 35.955 6.37367 35.9714 6.34008 36.001C6.28633 36.0502 6.27625 36.0502 6.23594 36.0043C6.18219 35.9419 6.08813 35.9419 6.03438 36.0043C5.99742 36.0469 5.98734 36.0469 5.94367 36.0043C5.88656 35.9452 5.7925 35.9419 5.74211 35.9911C5.68164 36.0502 5.65477 35.7975 5.68164 35.4462L5.70516 35.1344H5.57078C5.44313 35.1344 5.43641 35.1377 5.41625 35.2558Z" fill="white" stroke="white" stroke-width="0.5"/>
</g>
<path d="M33.5266 39.4908C33.5351 39.4898 33.5436 39.4892 33.5521 39.4888L33.5569 39.4889H33.5626C33.5962 39.4895 33.6296 39.4947 33.6619 39.5045L33.6632 39.5052C33.6795 39.5103 33.6954 39.5164 33.7108 39.5237L33.7164 39.5257C33.7319 39.5336 33.7468 39.5426 33.7611 39.5526L33.7646 39.5547C33.7776 39.5638 33.7899 39.5738 33.8015 39.5845L33.8087 39.5909C33.8209 39.6028 33.8323 39.6156 33.8427 39.6292L33.8463 39.6334C33.8574 39.6482 33.8673 39.6639 33.8761 39.6802L33.8768 39.6816C33.8861 39.6991 33.8939 39.7173 33.9002 39.7361C33.9052 39.7514 33.9093 39.7671 33.9123 39.7829L33.9143 39.7936C33.9169 39.8105 33.9184 39.8276 33.9186 39.8446C33.9189 39.8711 33.9189 39.8983 33.9186 39.9247C33.9285 40.5528 34.1834 41.1537 34.6293 41.5992C35.0766 42.0461 35.6795 42.2981 36.3103 42.3064C36.3335 42.3062 36.3566 42.3062 36.3798 42.3064C36.3933 42.3066 36.4068 42.3076 36.4203 42.3093L36.4337 42.3114C36.4866 42.3199 36.537 42.3399 36.5812 42.3702L36.5891 42.3758C36.6182 42.3969 36.644 42.4222 36.6657 42.4509L36.667 42.4523C36.6776 42.4665 36.6871 42.4814 36.6954 42.497L36.6975 42.5005C36.7151 42.5341 36.7273 42.5709 36.7337 42.6082C36.7373 42.6298 36.7389 42.6516 36.7386 42.6734C36.7385 42.691 36.737 42.7085 36.7343 42.7259L36.7336 42.7301C36.7275 42.7659 36.716 42.8005 36.6996 42.8329L36.6974 42.8378L36.696 42.8407C36.6878 42.8557 36.6786 42.8702 36.6684 42.8839L36.667 42.886C36.6572 42.899 36.6465 42.9113 36.6351 42.9228L36.6295 42.9284C36.6168 42.9408 36.6033 42.9521 36.589 42.9625L36.5812 42.9681C36.537 42.9983 36.4866 43.0184 36.4337 43.0269L36.4223 43.0291C36.4081 43.0309 36.3939 43.0319 36.3797 43.032C36.3532 43.0323 36.3267 43.0323 36.3003 43.032C35.673 43.0429 35.0741 43.2975 34.6292 43.742C34.1814 44.1894 33.9264 44.7934 33.9184 45.4243C33.9187 45.4473 33.9187 45.4701 33.9184 45.4931C33.9183 45.5109 33.9169 45.5286 33.9142 45.5462L33.9135 45.5505C33.9039 45.6064 33.8806 45.6601 33.8468 45.7057C33.8131 45.7514 33.7691 45.7885 33.7184 45.8141L33.717 45.8148C33.7003 45.823 33.683 45.8299 33.6652 45.8354L33.6639 45.8361C33.6504 45.8402 33.6366 45.8435 33.6227 45.846L33.6085 45.8488C33.5933 45.851 33.5779 45.8522 33.5624 45.8524H33.5568H33.5519C33.5433 45.852 33.5348 45.8512 33.5263 45.8502C33.5178 45.8498 33.5093 45.849 33.5008 45.848C33.493 45.8466 33.4852 45.845 33.4774 45.8431C33.465 45.8404 33.4519 45.8371 33.4398 45.8332L33.432 45.8303C33.4182 45.8255 33.4047 45.8198 33.3916 45.8133C33.3829 45.8085 33.3743 45.8033 33.366 45.7977C33.3583 45.7933 33.3507 45.7886 33.3433 45.7836C33.3358 45.7777 33.3284 45.7716 33.3214 45.7651C33.3138 45.7591 33.3064 45.7527 33.2994 45.746C33.2947 45.7412 33.2903 45.7362 33.2859 45.7311C33.2768 45.7212 33.2683 45.7108 33.2604 45.6999L33.2554 45.6921C33.2471 45.6803 33.2396 45.668 33.2327 45.6553C33.2266 45.6431 33.2211 45.6305 33.2164 45.6177C33.2144 45.613 33.2126 45.6083 33.2108 45.6035C33.2074 45.5921 33.2045 45.5805 33.2023 45.5688C33.2004 45.5616 33.1988 45.5542 33.1973 45.5469C33.1956 45.5358 33.1945 45.5247 33.1938 45.5135C33.1931 45.5067 33.1927 45.4999 33.1924 45.493V45.4852C33.2007 44.8322 32.9467 44.2037 32.4845 43.7419C32.0389 43.2968 31.4389 43.0422 30.8106 43.0319C30.7841 43.0322 30.7576 43.0322 30.7311 43.0319C30.7252 43.0313 30.7193 43.0306 30.7134 43.0297C30.7006 43.0292 30.6878 43.028 30.6751 43.0261L30.6686 43.0247C30.653 43.0217 30.6376 43.0177 30.6225 43.0127C30.6158 43.0103 30.6092 43.0077 30.6027 43.0049C30.5926 43.0011 30.5826 42.9968 30.5729 42.9921C30.5639 42.9873 30.5552 42.9821 30.5467 42.9765C30.5389 42.9721 30.5313 42.9673 30.5239 42.9623C30.5112 42.953 30.4992 42.9428 30.4878 42.9319L30.4835 42.9276C30.4742 42.9182 30.4654 42.9082 30.4572 42.8978C30.4528 42.8925 30.4486 42.8871 30.4445 42.8816C30.4392 42.8742 30.4343 42.8666 30.4296 42.8589C30.424 42.8506 30.4188 42.8421 30.414 42.8334C30.4095 42.8236 30.4055 42.8137 30.4019 42.8036C30.3988 42.7964 30.396 42.7891 30.3934 42.7816C30.3903 42.7716 30.3877 42.7614 30.3856 42.7512C30.3834 42.743 30.3815 42.7347 30.3799 42.7264C30.3785 42.7158 30.3775 42.7051 30.3771 42.6945C30.3762 42.6874 30.3755 42.6803 30.375 42.6732V42.669V42.6647C30.3755 42.6576 30.3762 42.6505 30.3771 42.6435C30.3775 42.6328 30.3785 42.6222 30.3799 42.6116C30.3815 42.6032 30.3834 42.595 30.3856 42.5868C30.3877 42.5765 30.3903 42.5663 30.3934 42.5563C30.3954 42.5503 30.3975 42.5444 30.3998 42.5386C30.4044 42.5263 30.4096 42.5142 30.4155 42.5024C30.4188 42.4964 30.4224 42.4905 30.4262 42.4847C30.4319 42.475 30.438 42.4655 30.4446 42.4564C30.4487 42.4508 30.453 42.4454 30.4574 42.4401C30.4656 42.4297 30.4743 42.4198 30.4836 42.4103L30.4879 42.4061C30.4993 42.3951 30.5113 42.385 30.524 42.3756C30.5314 42.3706 30.539 42.3659 30.5468 42.3614C30.5553 42.3559 30.564 42.3507 30.573 42.3458C30.5827 42.3411 30.5927 42.3369 30.6028 42.3331C30.6093 42.3303 30.6159 42.3277 30.6226 42.3253C30.6377 42.3202 30.6531 42.3162 30.6687 42.3132L30.6752 42.3118C30.6879 42.31 30.7007 42.3088 30.7135 42.3083C30.7194 42.3074 30.7253 42.3067 30.7312 42.3062C30.7554 42.3059 30.7795 42.3059 30.8036 42.3062C31.4344 42.2979 32.0373 42.0458 32.4846 41.599C32.9305 41.1535 33.1828 40.5526 33.1925 39.9245V39.9167C33.1928 39.8963 33.1928 39.8761 33.1925 39.8557V39.8443C33.193 39.8382 33.1937 39.832 33.1946 39.8259C33.1952 39.814 33.1964 39.8022 33.1981 39.7905L33.201 39.7763C33.2039 39.7617 33.2077 39.7472 33.2124 39.7331L33.218 39.7196C33.2226 39.7075 33.2278 39.6957 33.2336 39.6842C33.2393 39.6735 33.2454 39.6631 33.2521 39.653C33.255 39.6485 33.2581 39.644 33.2613 39.6396C33.269 39.6292 33.2773 39.6193 33.2861 39.6098C33.2905 39.6047 33.2949 39.5998 33.2996 39.5949C33.3079 39.5867 33.3167 39.5789 33.3258 39.5716C33.3313 39.5669 33.337 39.5624 33.3428 39.5581C33.3529 39.551 33.3633 39.5444 33.374 39.5383C33.3794 39.5348 33.3848 39.5315 33.3903 39.5284C33.4035 39.5219 33.417 39.5162 33.4308 39.5114L33.4422 39.5071C33.4534 39.5038 33.4647 39.5009 33.4762 39.4986C33.4844 39.4965 33.4927 39.4946 33.501 39.493C33.5095 39.492 33.518 39.4913 33.5266 39.4908Z" fill="white"/>
<path fill-rule="evenodd" clip-rule="evenodd" d="M10.8668 3C10.8521 3.00067 10.8374 3.00185 10.8227 3.00356C10.808 3.0043 10.7932 3.00557 10.7786 3.00735C10.7642 3.01009 10.7498 3.01333 10.7357 3.01707C10.7158 3.02102 10.6962 3.02592 10.6768 3.03176C10.6702 3.0341 10.6637 3.03655 10.6571 3.03911C10.6333 3.04749 10.6099 3.05731 10.5872 3.0685C10.5777 3.07395 10.5683 3.07964 10.559 3.08557C10.5405 3.09608 10.5225 3.10753 10.5051 3.11987C10.4951 3.12732 10.4852 3.13506 10.4757 3.1431C10.4599 3.15583 10.4448 3.16932 10.4303 3.18352C10.4223 3.19187 10.4146 3.20045 10.4071 3.20923C10.3918 3.2256 10.3775 3.24277 10.3641 3.26067C10.3587 3.26829 10.3534 3.27604 10.3482 3.2839C10.3367 3.30133 10.3261 3.31932 10.3164 3.3378C10.3063 3.35773 10.2973 3.37817 10.2894 3.39905C10.286 3.40673 10.2827 3.41448 10.2796 3.42228C10.2716 3.44676 10.265 3.47171 10.26 3.497C10.2581 3.50513 10.2565 3.51331 10.255 3.52151C10.2519 3.54181 10.2499 3.56225 10.2488 3.58276C10.2473 3.59335 10.2462 3.60397 10.2452 3.61462V3.63429C10.2457 3.66956 10.2457 3.70445 10.2452 3.73963V3.75314C10.2284 4.83891 9.7924 5.87761 9.02163 6.64765C8.24849 7.42005 7.20631 7.85583 6.11584 7.87013C6.0742 7.86967 6.03252 7.86963 5.99078 7.87013C5.98054 7.87106 5.97032 7.87225 5.96013 7.87369C5.93796 7.87457 5.91586 7.87663 5.89391 7.87985L5.88276 7.88222C5.85577 7.88742 5.82914 7.89439 5.80306 7.90308C5.79149 7.90724 5.78004 7.91175 5.76873 7.91659C5.75125 7.92317 5.73407 7.93052 5.71725 7.93863C5.70175 7.94698 5.68662 7.95597 5.67188 7.96558C5.65851 7.97327 5.64541 7.98144 5.63264 7.99009C5.61067 8.00627 5.58978 8.02387 5.5701 8.04277L5.56274 8.05011C5.54669 8.06642 5.53155 8.08359 5.51738 8.10155C5.50976 8.11073 5.5024 8.12013 5.49532 8.12973C5.48393 8.14556 5.47329 8.16191 5.46343 8.17873C5.45697 8.18876 5.4508 8.19897 5.44492 8.20936C5.4348 8.22967 5.4258 8.25052 5.41794 8.27182C5.41396 8.28193 5.41024 8.29214 5.40679 8.30244C5.40152 8.31979 5.39701 8.33737 5.39327 8.35511C5.38953 8.36929 5.38628 8.38359 5.38354 8.39799C5.38107 8.41629 5.37941 8.43468 5.37856 8.45312C5.37701 8.46533 5.37583 8.47759 5.375 8.48987V8.49721V8.50456C5.37583 8.51684 5.37701 8.52909 5.37856 8.5413C5.37941 8.55974 5.38107 8.57813 5.38354 8.59642C5.38628 8.61082 5.38953 8.62512 5.39327 8.63929C5.39701 8.65704 5.40152 8.67461 5.40679 8.69197C5.41128 8.70478 5.41619 8.71744 5.4215 8.72994C5.4277 8.74738 5.43467 8.76455 5.44238 8.78138C5.45076 8.79644 5.45976 8.81115 5.46936 8.82547C5.47745 8.83885 5.48603 8.85193 5.4951 8.86467C5.50219 8.87427 5.50954 8.88366 5.51717 8.89283C5.53134 8.91079 5.54648 8.92796 5.56253 8.94427L5.56993 8.95166C5.5896 8.97055 5.6105 8.98815 5.63247 9.00433C5.64524 9.01297 5.65833 9.02114 5.67171 9.02881C5.68645 9.03843 5.70158 9.04742 5.71707 9.05576C5.7339 9.06387 5.75108 9.07123 5.76856 9.07781C5.77987 9.08265 5.79132 9.08715 5.80289 9.09132C5.82897 9.10001 5.85559 9.10698 5.88258 9.11218L5.89374 9.11455C5.91569 9.11777 5.93779 9.11983 5.95995 9.12071C5.97014 9.12223 5.98036 9.12349 5.99061 9.12451C6.03642 9.12505 6.08222 9.12512 6.12794 9.12451C7.21396 9.14228 8.25122 9.58238 9.02146 10.3519C9.82039 11.15 10.2594 12.2365 10.2451 13.3652V13.3787C10.2455 13.3906 10.2463 13.4024 10.2475 13.4143C10.2486 13.4335 10.2507 13.4527 10.2536 13.4718C10.2561 13.4846 10.2589 13.4972 10.2622 13.5098C10.2661 13.53 10.271 13.5501 10.2769 13.5698C10.2799 13.5781 10.2832 13.5862 10.2866 13.5943C10.2948 13.6165 10.3042 13.6382 10.3148 13.6593C10.3266 13.6812 10.3397 13.7025 10.3541 13.7229L10.3626 13.7365C10.3763 13.7552 10.391 13.7732 10.4067 13.7904C10.4142 13.7991 10.422 13.8077 10.43 13.8161C10.4422 13.8276 10.4549 13.8386 10.468 13.8491C10.4802 13.8603 10.4929 13.8709 10.506 13.881C10.5188 13.8896 10.5319 13.8978 10.5452 13.9055C10.5596 13.9151 10.5743 13.9241 10.5894 13.9324C10.612 13.9436 10.6354 13.9535 10.6592 13.9618L10.6728 13.9668C10.6937 13.9736 10.7162 13.9793 10.7377 13.9839C10.7511 13.9872 10.7646 13.99 10.7782 13.9924C10.7929 13.9942 10.8076 13.9955 10.8223 13.9962C10.837 13.998 10.8517 13.9993 10.8665 14H10.875H10.8847C10.9114 13.9996 10.938 13.9976 10.9644 13.9938C10.9726 13.9923 10.9808 13.9907 10.9889 13.9889C11.0129 13.9846 11.0367 13.9789 11.06 13.9718L11.0624 13.9706C11.0931 13.961 11.123 13.9491 11.1519 13.935L11.1544 13.9338C11.242 13.8895 11.318 13.8254 11.3763 13.7464C11.4346 13.6675 11.4749 13.5748 11.4915 13.4781L11.4927 13.4708C11.4974 13.4404 11.4999 13.4096 11.5001 13.3789C11.5006 13.3392 11.5005 13.2997 11.5001 13.2601C11.5139 12.1694 11.9547 11.1253 12.7286 10.3521C13.4977 9.58373 14.533 9.14363 15.6172 9.1247C15.6629 9.1253 15.7087 9.12524 15.7546 9.1247C15.7792 9.12448 15.8037 9.12282 15.8281 9.11972C15.8347 9.11856 15.8413 9.11729 15.8478 9.11592C15.9393 9.10125 16.0264 9.06653 16.1028 9.01426L16.1164 9.00454C16.1411 8.98666 16.1644 8.967 16.1863 8.94573L16.196 8.93601C16.2158 8.91604 16.2342 8.89476 16.2512 8.87232L16.2535 8.86876C16.2712 8.84502 16.2872 8.82005 16.3013 8.79405L16.3037 8.78907L16.3075 8.78054C16.3359 8.72461 16.3557 8.66474 16.3664 8.60293L16.3676 8.59554C16.3722 8.56554 16.3747 8.53525 16.3749 8.50489C16.3755 8.46715 16.3726 8.42944 16.3664 8.39221C16.3553 8.32767 16.3342 8.26403 16.3038 8.20602L16.3003 8.19986C16.2858 8.17297 16.2695 8.14718 16.2513 8.12268L16.2489 8.12031C16.2114 8.07071 16.1668 8.02695 16.1165 7.99046L16.1029 7.98074C16.0265 7.92846 15.9394 7.89374 15.8479 7.87907C15.8402 7.87774 15.8324 7.87656 15.8247 7.87552C15.8015 7.87256 15.7781 7.8709 15.7548 7.87054C15.7147 7.87006 15.6746 7.87013 15.6346 7.87054C14.5442 7.85608 13.502 7.42046 12.7288 6.64806C11.9581 5.87802 11.5175 4.83933 11.5003 3.75355C11.5009 3.70785 11.5009 3.66096 11.5003 3.61514C11.4999 3.58561 11.4975 3.55614 11.493 3.52694L11.4894 3.50845C11.4842 3.48107 11.4773 3.45406 11.4685 3.4276C11.4576 3.39511 11.4441 3.36357 11.4281 3.33328L11.4268 3.33091C11.4118 3.30269 11.3946 3.27566 11.3754 3.25006L11.3692 3.24271C11.3511 3.2193 11.3315 3.19719 11.3103 3.17655L11.298 3.16541C11.2779 3.1469 11.2566 3.12972 11.2342 3.11398L11.2281 3.11042C11.2035 3.09307 11.1776 3.07751 11.1508 3.06387L11.1411 3.06031C11.1145 3.04778 11.087 3.03714 11.0589 3.02845L11.0566 3.02723C11.0009 3.01034 10.9431 3.00127 10.8849 3.00028H10.8752L10.8668 3ZM10.8712 6.00026C10.8645 6.00056 10.8578 6.0011 10.8511 6.00188C10.8444 6.00221 10.8377 6.00279 10.8311 6.0036C10.8245 6.00484 10.818 6.00632 10.8116 6.00802C10.8025 6.00981 10.7936 6.01204 10.7848 6.0147L10.7759 6.01804C10.765 6.02185 10.7544 6.02631 10.7441 6.0314C10.7397 6.03387 10.7355 6.03646 10.7313 6.03916C10.7228 6.04393 10.7147 6.04914 10.7068 6.05475C10.7022 6.05813 10.6977 6.06165 10.6934 6.0653C10.6862 6.07109 10.6793 6.07722 10.6728 6.08368C10.6691 6.08747 10.6656 6.09137 10.6622 6.09537C10.6553 6.10281 10.6488 6.11061 10.6427 6.11875L10.6355 6.12931C10.6302 6.13723 10.6254 6.1454 10.621 6.15381C10.6164 6.16286 10.6123 6.17216 10.6087 6.18165L10.6043 6.19221C10.6006 6.20333 10.5976 6.21467 10.5953 6.22617L10.5931 6.23731C10.5917 6.24654 10.5907 6.25583 10.5903 6.26515C10.5896 6.26996 10.5891 6.27479 10.5886 6.27963V6.28857C10.5888 6.30461 10.5888 6.32047 10.5886 6.33645V6.3426C10.581 6.83613 10.3828 7.30827 10.0324 7.65828C9.68102 8.00937 9.2073 8.20745 8.71164 8.21395C8.69271 8.21375 8.67376 8.21373 8.65479 8.21395C8.65013 8.21438 8.64549 8.21492 8.64086 8.21557C8.63078 8.21597 8.62073 8.21691 8.61076 8.21837L8.60569 8.21945C8.59342 8.22181 8.58132 8.22498 8.56946 8.22893C8.5642 8.23082 8.559 8.23287 8.55386 8.23507C8.54591 8.23806 8.5381 8.24141 8.53046 8.24509C8.52341 8.24889 8.51654 8.25297 8.50984 8.25734C8.50376 8.26084 8.49781 8.26455 8.492 8.26848C8.48201 8.27584 8.47252 8.28384 8.46357 8.29243L8.46023 8.29576C8.45293 8.30318 8.44605 8.31098 8.43961 8.31915C8.43614 8.32332 8.4328 8.32759 8.42958 8.33196C8.4244 8.33915 8.41957 8.34658 8.41508 8.35423C8.41215 8.35879 8.40934 8.36343 8.40667 8.36815C8.40207 8.37738 8.39798 8.38686 8.39441 8.39654C8.3926 8.40113 8.39091 8.40578 8.38934 8.41046C8.38695 8.41835 8.3849 8.42634 8.38319 8.4344C8.38149 8.44084 8.38002 8.44734 8.37877 8.45389C8.37765 8.46221 8.37689 8.47057 8.37651 8.47895C8.3758 8.4845 8.37527 8.49007 8.37489 8.49565V8.49899V8.50233C8.37527 8.50791 8.3758 8.51348 8.37651 8.51903C8.37689 8.52741 8.37765 8.53577 8.37877 8.54408C8.38002 8.55063 8.38149 8.55713 8.38319 8.56357C8.3849 8.57164 8.38695 8.57963 8.38934 8.58752C8.39138 8.59334 8.39361 8.5991 8.39603 8.60478C8.39884 8.61271 8.40201 8.62051 8.40552 8.62816C8.40933 8.635 8.41342 8.64169 8.41778 8.6482C8.42146 8.65428 8.42536 8.66023 8.42948 8.66602C8.4327 8.67038 8.43605 8.67465 8.43951 8.67882C8.44595 8.68698 8.45284 8.69479 8.46013 8.7022L8.46349 8.70556C8.47244 8.71415 8.48193 8.72214 8.49192 8.7295C8.49773 8.73343 8.50368 8.73714 8.50976 8.74063C8.51646 8.745 8.52334 8.74909 8.53038 8.75288C8.53803 8.75657 8.54583 8.75991 8.55378 8.7629C8.55892 8.7651 8.56413 8.76715 8.56939 8.76904C8.58124 8.77299 8.59334 8.77616 8.60561 8.77852L8.61068 8.7796C8.62066 8.78106 8.6307 8.782 8.64078 8.7824C8.64541 8.78309 8.65005 8.78367 8.65471 8.78413C8.67554 8.78437 8.69635 8.7844 8.71713 8.78413C9.21078 8.79221 9.68226 8.99225 10.0324 9.34202C10.3955 9.70483 10.5951 10.1987 10.5886 10.7117V10.7179C10.5888 10.7233 10.5891 10.7286 10.5896 10.734C10.5902 10.7428 10.5911 10.7515 10.5924 10.7602C10.5936 10.766 10.5949 10.7717 10.5963 10.7774C10.5981 10.7866 10.6003 10.7957 10.603 10.8047L10.6074 10.8159C10.6112 10.8259 10.6154 10.8358 10.6203 10.8454C10.6256 10.8554 10.6316 10.865 10.6381 10.8743L10.642 10.8805C10.6482 10.889 10.6549 10.8972 10.662 10.905C10.6655 10.909 10.669 10.9129 10.6726 10.9167C10.6782 10.9219 10.6839 10.9269 10.6899 10.9317C10.6954 10.9367 10.7012 10.9416 10.7072 10.9462C10.713 10.9501 10.7189 10.9538 10.725 10.9573C10.7315 10.9617 10.7382 10.9657 10.7451 10.9696C10.7554 10.9746 10.766 10.9791 10.7768 10.9829L10.783 10.9852C10.7925 10.9883 10.8027 10.9909 10.8125 10.9929C10.8186 10.9944 10.8247 10.9957 10.8309 10.9968C10.8376 10.9976 10.8442 10.9982 10.8509 10.9985C10.8576 10.9993 10.8643 10.9999 10.871 11.0003H10.8749H10.8793C10.8914 11.0001 10.9035 10.9992 10.9155 10.9975L10.9267 10.9952C10.9376 10.9932 10.9484 10.9906 10.959 10.9874L10.9601 10.9869C10.974 10.9825 10.9876 10.9771 11.0008 10.9707L11.0019 10.9702C11.0417 10.95 11.0762 10.9209 11.1027 10.885C11.1293 10.8491 11.1476 10.807 11.1551 10.7631L11.1557 10.7597C11.1578 10.7459 11.1589 10.7319 11.159 10.7179C11.1593 10.6999 11.1592 10.6819 11.159 10.6639C11.1653 10.1682 11.3656 9.69358 11.7174 9.34211C12.067 8.99286 12.5376 8.79282 13.0305 8.78421C13.0512 8.78449 13.072 8.78446 13.0929 8.78421C13.1041 8.78411 13.1152 8.78336 13.1263 8.78195L13.1353 8.78023C13.1768 8.77356 13.2164 8.75778 13.2512 8.73401L13.2573 8.7296C13.2686 8.72147 13.2792 8.71253 13.2891 8.70286L13.2935 8.69845C13.3025 8.68937 13.3109 8.6797 13.3186 8.6695L13.3197 8.66788C13.3277 8.65709 13.335 8.64574 13.3414 8.63392L13.3425 8.63166L13.3442 8.62778C13.3571 8.60235 13.3661 8.57514 13.371 8.54704L13.3715 8.54369C13.3736 8.53005 13.3747 8.51628 13.3749 8.50248C13.3751 8.48533 13.3738 8.46818 13.371 8.45126C13.366 8.42193 13.3564 8.393 13.3425 8.36663L13.3409 8.36383C13.3344 8.35161 13.3269 8.33989 13.3186 8.32875L13.3176 8.32767C13.3005 8.30513 13.2803 8.28524 13.2574 8.26865L13.2512 8.26423C13.2165 8.24047 13.1769 8.22469 13.1353 8.21802L13.1247 8.2164C13.1142 8.21506 13.1036 8.2143 13.093 8.21414C13.0747 8.21393 13.0565 8.21396 13.0384 8.21414C12.5427 8.20757 12.069 8.00956 11.7175 7.65847C11.3672 7.30845 11.1669 6.83632 11.1591 6.34278C11.1594 6.32201 11.1594 6.3007 11.1591 6.27987C11.159 6.26644 11.1578 6.25305 11.1558 6.23978L11.1542 6.23138C11.1518 6.21893 11.1486 6.20665 11.1447 6.19462C11.1397 6.17986 11.1336 6.16552 11.1263 6.15175L11.1257 6.15067C11.1189 6.13785 11.1111 6.12556 11.1023 6.11392L11.0995 6.11058C11.0913 6.09994 11.0824 6.08989 11.0728 6.08051L11.0672 6.07545C11.058 6.06703 11.0483 6.05922 11.0382 6.05207L11.0354 6.05045C11.0242 6.04256 11.0125 6.03549 11.0003 6.02929L10.9958 6.02767C10.9837 6.02198 10.9713 6.01714 10.9585 6.01319L10.9574 6.01263C10.9321 6.00496 10.9058 6.00083 10.8794 6.00038H10.875L10.8712 6.00026Z" fill="white"/>
<path d="M32.6261 0.490239C32.6322 0.489535 32.6383 0.489045 32.6444 0.48877L32.6478 0.488883H32.6518C32.6759 0.489293 32.6997 0.493041 32.7228 0.50002L32.7237 0.500526C32.7353 0.504115 32.7467 0.508514 32.7577 0.513691L32.7617 0.51516C32.7728 0.5208 32.7835 0.527229 32.7936 0.534398L32.7962 0.535867C32.8054 0.542371 32.8142 0.549471 32.8225 0.557122L32.8276 0.561725C32.8364 0.570254 32.8445 0.57939 32.8519 0.589063L32.8545 0.592099C32.8624 0.602678 32.8695 0.613847 32.8758 0.62551L32.8763 0.62649C32.8829 0.639003 32.8885 0.652038 32.893 0.665464C32.8966 0.676397 32.8995 0.687559 32.9016 0.698875L32.9031 0.706515C32.905 0.718577 32.906 0.730756 32.9061 0.742962C32.9064 0.761895 32.9064 0.781269 32.9061 0.800154C32.9132 1.24882 33.0953 1.67803 33.4138 1.99623C33.7333 2.31541 34.1639 2.49541 34.6145 2.50139C34.631 2.50122 34.6476 2.50119 34.6642 2.50139C34.6738 2.50154 34.6835 2.50222 34.693 2.50345L34.7027 2.50492C34.7405 2.51098 34.7764 2.52533 34.808 2.54693L34.8136 2.55094C34.8344 2.56602 34.8529 2.5841 34.8683 2.6046L34.8693 2.60558C34.8768 2.6157 34.8836 2.62636 34.8896 2.63747L34.8911 2.64002C34.9036 2.66399 34.9123 2.69029 34.9169 2.71695C34.9195 2.73234 34.9207 2.74792 34.9204 2.76352C34.9203 2.77606 34.9193 2.78858 34.9174 2.80098L34.9169 2.80403C34.9125 2.82957 34.9043 2.85431 34.8926 2.87742L34.891 2.88095L34.89 2.88301C34.8842 2.89375 34.8776 2.90407 34.8703 2.91388L34.8693 2.91535C34.8623 2.92462 34.8547 2.93341 34.8465 2.94167L34.8425 2.94568C34.8334 2.95447 34.8238 2.9626 34.8136 2.96998L34.808 2.974C34.7764 2.9956 34.7404 3.00995 34.7026 3.01601L34.6945 3.01758C34.6844 3.01886 34.6742 3.01955 34.6641 3.01964C34.6451 3.01986 34.6262 3.01989 34.6073 3.01964C34.1593 3.02746 33.7315 3.20932 33.4137 3.52682C33.0939 3.84633 32.9117 4.27778 32.906 4.72846C32.9062 4.74483 32.9062 4.76117 32.906 4.77756C32.906 4.79028 32.9049 4.80297 32.903 4.81553L32.9025 4.81858C32.8956 4.85854 32.879 4.89684 32.8549 4.92943C32.8308 4.96206 32.7994 4.98858 32.7632 5.00687L32.7621 5.00738C32.7502 5.01321 32.7379 5.01812 32.7252 5.02206L32.7242 5.02257C32.7145 5.02549 32.7047 5.02784 32.6948 5.02962L32.6847 5.03168C32.6738 5.03322 32.6628 5.03408 32.6517 5.03422H32.6477H32.6442C32.6381 5.03392 32.632 5.03339 32.626 5.03266C32.6199 5.03235 32.6138 5.03183 32.6077 5.03109C32.6021 5.0301 32.5965 5.02892 32.591 5.02756C32.5821 5.02568 32.5728 5.02332 32.5642 5.02051L32.5586 5.01845C32.5487 5.01499 32.5391 5.01093 32.5297 5.00631C32.5235 5.00285 32.5174 4.99913 32.5115 4.99517C32.5059 4.992 32.5005 4.98862 32.4952 4.98505C32.4898 4.98087 32.4846 4.97648 32.4795 4.97189C32.4741 4.96755 32.4689 4.96299 32.4638 4.95822C32.4605 4.95477 32.4573 4.95123 32.4542 4.9476C32.4477 4.94052 32.4417 4.93308 32.436 4.92532L32.4325 4.91974C32.4265 4.9113 32.4211 4.90251 32.4162 4.89342C32.4119 4.8847 32.408 4.87575 32.4046 4.86659L32.4006 4.85646C32.3981 4.8483 32.3961 4.84003 32.3945 4.83166C32.3932 4.82647 32.392 4.82124 32.391 4.81597C32.3897 4.80808 32.3889 4.80015 32.3884 4.79218C32.3879 4.7873 32.3876 4.7824 32.3874 4.7775V4.77191C32.3934 4.30552 32.2119 3.85656 31.8818 3.52674C31.5635 3.20876 31.1349 3.0269 30.6861 3.01956C30.6672 3.01981 30.6483 3.01978 30.6294 3.01956C30.6251 3.01914 30.6209 3.01862 30.6167 3.01799C30.6076 3.01762 30.5984 3.01677 30.5894 3.01544L30.5847 3.01446C30.5736 3.01231 30.5626 3.00943 30.5518 3.00584C30.547 3.00412 30.5423 3.00226 30.5376 3.00026C30.5304 2.99754 30.5233 2.9945 30.5164 2.99115C30.51 2.9877 30.5037 2.98399 30.4976 2.98001C30.4921 2.97684 30.4867 2.97347 30.4814 2.9699C30.4723 2.96321 30.4637 2.95594 30.4555 2.94813L30.4525 2.94508C30.4459 2.93834 30.4396 2.93124 30.4337 2.92382C30.4306 2.92003 30.4276 2.91615 30.4246 2.91219C30.4209 2.90692 30.4173 2.90152 30.414 2.89599C30.41 2.89007 30.4063 2.88399 30.4028 2.87777C30.3997 2.87081 30.3968 2.86372 30.3942 2.85651C30.392 2.85135 30.39 2.84612 30.3881 2.84082C30.386 2.83365 30.3841 2.82639 30.3825 2.81906C30.381 2.8132 30.3797 2.80729 30.3785 2.80134C30.3775 2.79378 30.3768 2.78618 30.3765 2.77856C30.3758 2.77352 30.3753 2.76846 30.375 2.76338V2.76035V2.75731C30.3753 2.75224 30.3758 2.74717 30.3765 2.74213C30.3768 2.73451 30.3775 2.7269 30.3785 2.71934C30.3797 2.71339 30.381 2.70748 30.3825 2.70163C30.3841 2.69429 30.386 2.68703 30.3881 2.67986C30.3896 2.6756 30.3911 2.67138 30.3927 2.66721C30.396 2.65841 30.3997 2.64979 30.4039 2.6414C30.4063 2.63711 30.4089 2.63289 30.4115 2.62874C30.4156 2.62179 30.42 2.61503 30.4247 2.60849C30.4276 2.60453 30.4307 2.60064 30.4338 2.59685C30.4397 2.58943 30.4459 2.58233 30.4526 2.57559L30.4556 2.57256C30.4638 2.56475 30.4724 2.55748 30.4815 2.55079C30.4867 2.54722 30.4922 2.54384 30.4977 2.54066C30.5038 2.53669 30.51 2.53298 30.5164 2.52953C30.5234 2.52618 30.5305 2.52314 30.5377 2.52042C30.5424 2.51842 30.5471 2.51656 30.5519 2.51483C30.5627 2.51124 30.5737 2.50837 30.5848 2.50622L30.5894 2.50524C30.5985 2.5039 30.6076 2.50305 30.6168 2.50269C30.621 2.5021 30.6252 2.50161 30.6295 2.50122C30.6467 2.50102 30.6639 2.50103 30.6811 2.50122C31.1317 2.49531 31.5624 2.31524 31.8819 1.99606C32.2004 1.67787 32.3805 1.24865 32.3875 0.799985V0.794402C32.3877 0.779866 32.3877 0.765448 32.3875 0.750873V0.742743C32.3879 0.738343 32.3884 0.733953 32.389 0.729579C32.3894 0.721105 32.3903 0.712658 32.3915 0.704269L32.3936 0.694141C32.3957 0.683692 32.3984 0.673382 32.4017 0.663267L32.4057 0.653668C32.409 0.645039 32.4127 0.636591 32.4169 0.628358C32.4209 0.620719 32.4253 0.613285 32.4301 0.606084L32.4366 0.596485C32.4422 0.589089 32.4481 0.581994 32.4544 0.57523C32.4575 0.5716 32.4607 0.568056 32.464 0.564602C32.4699 0.558736 32.4762 0.553162 32.4827 0.547901C32.4867 0.544581 32.4907 0.54138 32.4949 0.538302C32.5021 0.533202 32.5095 0.528473 32.5172 0.52413C32.521 0.521678 32.5249 0.519326 32.5288 0.517077C32.5382 0.512451 32.5478 0.508394 32.5577 0.504931L32.5658 0.501895C32.5738 0.49948 32.582 0.497454 32.5901 0.495822C32.596 0.494277 32.6019 0.492937 32.6079 0.491806C32.6139 0.49107 32.62 0.490547 32.6261 0.490239Z" fill="white"/>
<defs>
<clipPath id="clip0_187_11945">
<rect width="43" height="28" fill="white" transform="translate(3.75 11.5)"/>
</clipPath>
</defs>
</svg>
