<svg width="43" height="28" viewBox="0 0 43 28" fill="none" xmlns="http://www.w3.org/2000/svg">
<g clip-path="url(#clip0_187_11912)">
<path d="M6.26188 0.538379C6.27531 0.672963 6.30555 0.886328 6.32906 1.01106C6.37945 1.2671 6.37274 1.27695 6.13086 1.28023C6.07711 1.28023 5.92258 1.30977 5.79156 1.3426C5.55641 1.40168 5.54633 1.40168 5.30445 1.33932C4.97523 1.25725 4.52172 1.25069 4.2093 1.32619C3.98086 1.38199 3.95398 1.38199 3.72219 1.32947C3.39297 1.25397 2.90922 1.26054 2.60016 1.33932C2.365 1.40168 2.35828 1.40168 2.11305 1.33932C1.79391 1.25725 1.36727 1.25397 1.03469 1.32619C0.799531 1.37871 0.759219 1.37871 0.530781 1.33275C0.396406 1.30649 0.221719 1.27695 0.141094 1.2671L0 1.24741V1.54612V1.84483L0.144453 1.82185C0.221719 1.812 0.396406 1.77918 0.530781 1.74963C0.759219 1.69711 0.786094 1.69711 1.03469 1.7562C1.36727 1.83826 1.82078 1.83826 2.13656 1.76276C2.365 1.70368 2.38516 1.70368 2.59008 1.75948C2.8857 1.83826 3.43664 1.83498 3.72891 1.74963C3.94391 1.68727 3.95398 1.68727 4.18242 1.74963C4.50492 1.83498 5.01555 1.83826 5.32797 1.76276C5.54969 1.70696 5.57992 1.70696 5.77141 1.75292C5.88227 1.78246 6.08719 1.81528 6.22492 1.82513C6.4668 1.84811 6.47688 1.85139 6.49703 1.94002C6.50711 1.98926 6.50039 2.19606 6.48024 2.39957C6.43992 2.86569 6.45 2.89524 6.62469 2.88211L6.75906 2.87226L6.7725 2.57683C6.7893 2.13697 6.81281 2.02537 6.88672 2.04506C6.92031 2.05491 6.98078 2.0385 7.01774 2.01224C7.0782 1.97285 7.09836 1.97285 7.16219 2.01552C7.25625 2.08117 7.27305 2.08117 7.33352 2.0188C7.37719 1.97613 7.38727 1.99254 7.40742 2.14354C7.42086 2.23545 7.45781 2.42912 7.49477 2.57355C7.52836 2.7147 7.55859 2.83615 7.55859 2.84272C7.55859 2.84928 7.6325 2.85585 7.7232 2.85585H7.88445L7.83742 2.68187C7.74336 2.33064 7.69297 2.02208 7.72656 1.98926C7.74672 1.96956 7.76016 1.93017 7.76016 1.89735C7.76016 1.84811 7.79039 1.83826 7.93149 1.83826C8.02219 1.83826 8.25063 1.80872 8.43539 1.76933C8.75789 1.70368 8.77469 1.70368 8.96281 1.75948C9.2282 1.83826 9.77914 1.83498 10.0949 1.75292C10.3267 1.69055 10.3368 1.69055 10.5484 1.74963C10.8441 1.83498 11.395 1.83826 11.6973 1.76276C11.9123 1.70696 11.9359 1.70696 12.1341 1.75948C12.4263 1.83826 12.947 1.83826 13.2628 1.75948C13.5047 1.69711 13.5181 1.69711 13.7667 1.75948C14.0993 1.83826 14.5562 1.83826 14.8686 1.76276C15.0903 1.70696 15.1205 1.70696 15.3154 1.7562C15.4296 1.78246 15.6413 1.81528 15.7857 1.82841C16.0444 1.84811 16.0477 1.84811 16.088 1.95315C16.1183 2.0385 16.1116 2.12712 16.0612 2.41599C16.0276 2.61294 15.9906 2.79676 15.9839 2.82302C15.9772 2.86241 16.0074 2.87226 16.1216 2.87226C16.2728 2.87226 16.2728 2.87226 16.3098 2.72126C16.3333 2.6392 16.3702 2.4521 16.3938 2.3011C16.4307 2.06804 16.4441 2.03193 16.4979 2.04506C16.5315 2.05491 16.5886 2.0385 16.6289 2.01224C16.6726 1.98269 16.7129 1.97285 16.7263 1.99254C16.7666 2.05163 16.8573 2.06147 16.9245 2.0188C16.985 1.97285 16.9917 1.97941 17.0119 2.12384C17.022 2.20591 17.032 2.40614 17.032 2.5637V2.85585H17.163C17.2941 2.85585 17.2974 2.85585 17.3209 2.70813C17.331 2.62607 17.331 2.4521 17.3176 2.31751C17.3075 2.18621 17.3075 2.02537 17.3176 1.963L17.3411 1.84811L17.6065 1.82841C17.7509 1.81528 17.9626 1.78246 18.0768 1.7562C18.2716 1.70696 18.3019 1.70696 18.5236 1.76276C18.8394 1.84154 19.3534 1.83498 19.6523 1.74963C19.8673 1.68727 19.8774 1.68727 20.1059 1.74963C20.4216 1.8317 20.9692 1.83826 21.2615 1.75948C21.4664 1.70368 21.4866 1.70368 21.715 1.76276C22.0341 1.84154 22.5448 1.83498 22.8471 1.74963C23.0621 1.68727 23.0755 1.68727 23.2838 1.74307C23.6534 1.84483 23.9591 1.85467 24.3488 1.77589C24.6713 1.71024 24.7048 1.70696 24.893 1.7562C25.0038 1.78574 25.2155 1.81528 25.3633 1.82841L25.6287 1.84811L25.6522 1.99582C25.6656 2.0746 25.6589 2.28797 25.6354 2.46523C25.585 2.9215 25.5783 2.89524 25.7261 2.88211L25.8504 2.87226L25.8907 2.60966C25.9109 2.46523 25.9377 2.27484 25.9512 2.18949C25.968 2.05491 25.9814 2.03521 26.0352 2.05163C26.0755 2.06476 26.1225 2.04834 26.1595 2.01224C26.2166 1.95643 26.2233 1.95643 26.2804 2.00895C26.3509 2.08117 26.3845 2.08117 26.4484 2.02208C26.4887 1.97941 26.4988 1.99582 26.5189 2.14354C26.529 2.23873 26.5391 2.43568 26.5391 2.5834V2.85585H26.6936H26.8515L26.828 2.4324C26.7977 1.86124 26.8011 1.85467 27.1538 1.82841C27.305 1.81857 27.5234 1.78574 27.6376 1.7562C27.8324 1.70696 27.8627 1.70696 28.0743 1.76276C28.38 1.83826 28.8671 1.83826 29.1863 1.7562C29.4281 1.69711 29.4416 1.69711 29.6902 1.75948C30.0227 1.83826 30.4796 1.83826 30.792 1.76276C31.0205 1.70368 31.0406 1.70368 31.2456 1.75948C31.5378 1.83826 32.119 1.8317 32.4146 1.74635C32.6263 1.68727 32.633 1.68727 32.8513 1.74963C33.1537 1.83498 33.6643 1.84154 33.9834 1.76276C34.2052 1.70696 34.2354 1.70696 34.4302 1.7562C34.5445 1.78246 34.7561 1.81528 34.9006 1.82841C35.1525 1.84811 35.1659 1.85139 35.1827 1.93346C35.1928 1.97941 35.1491 2.20591 35.0853 2.43897C35.0215 2.66874 34.9711 2.86569 34.9711 2.87226C34.9711 2.88211 35.0383 2.88867 35.1189 2.88867C35.2331 2.88867 35.2734 2.87554 35.2869 2.82959C35.2936 2.80004 35.344 2.60637 35.3977 2.40286C35.4851 2.05491 35.4952 2.03193 35.5657 2.05163C35.6094 2.06147 35.6598 2.04834 35.69 2.0188C35.737 1.97285 35.7505 1.97285 35.821 2.01552C35.8916 2.06147 35.905 2.06147 35.9722 2.01552L36.0461 1.96628V2.40942V2.85585H36.1939H36.3384L36.3216 2.47836C36.3081 2.16323 36.3148 2.07789 36.3619 1.97285L36.4223 1.84811L36.7012 1.82841C36.8523 1.81857 37.0741 1.78574 37.1883 1.7562C37.3865 1.70696 37.4167 1.70696 37.6384 1.76276C37.9576 1.84154 38.4682 1.83498 38.7705 1.74963C38.9889 1.68727 38.9956 1.68727 39.2073 1.74635C39.5029 1.8317 40.0841 1.83826 40.3763 1.75948C40.5813 1.70368 40.6014 1.70368 40.8298 1.76276C41.1423 1.83826 41.5991 1.83826 41.9317 1.75948C42.1736 1.7004 42.2005 1.7004 42.4188 1.74963C42.5431 1.77918 42.7279 1.812 42.8253 1.82513L43 1.84811V1.54612V1.24412L42.8253 1.26382C42.7279 1.27695 42.5398 1.30649 42.4088 1.33603C42.187 1.38527 42.1534 1.38527 41.9216 1.32947C41.5991 1.25069 41.1759 1.25397 40.8466 1.33932C40.5913 1.40168 40.588 1.40168 40.3427 1.33932C40.0135 1.25725 39.5634 1.25069 39.2476 1.32619C39.0124 1.38199 38.9923 1.38199 38.7437 1.32619C38.401 1.25069 37.9509 1.25725 37.6452 1.3426C37.4134 1.40497 37.4066 1.40497 37.1547 1.3426C37.017 1.30977 36.8053 1.27695 36.6844 1.2671L36.4694 1.25397L36.4795 1.07671C36.4828 0.981521 36.4996 0.797699 36.5164 0.672963C36.5668 0.295472 36.5668 0.288907 36.4425 0.302037C36.3216 0.311884 36.3148 0.328297 36.2376 0.853502C36.2006 1.09313 36.1872 1.13252 36.1334 1.12267C36.0998 1.1161 36.0461 1.1358 36.0125 1.16534C35.9621 1.2113 35.952 1.2113 35.9117 1.16534C35.858 1.10297 35.7975 1.10297 35.7337 1.16534C35.69 1.20802 35.6799 1.20802 35.643 1.16534C35.5926 1.10626 35.5052 1.10297 35.4448 1.1555C35.4078 1.1916 35.4045 1.11939 35.4246 0.745178L35.4481 0.292189L35.3171 0.302037L35.1895 0.311884L35.1424 0.778004L35.0954 1.24412L34.9073 1.26382C34.8031 1.27695 34.6049 1.31306 34.4638 1.34588C34.2152 1.40497 34.2052 1.40497 33.9767 1.3426C33.671 1.25725 33.2209 1.25069 32.8782 1.32619C32.6296 1.38199 32.6095 1.38199 32.3743 1.32619C32.0585 1.25069 31.6084 1.25725 31.2791 1.33932C31.0339 1.40168 31.0306 1.40168 30.7752 1.33932C30.4494 1.25397 30.0295 1.25069 29.6935 1.32947C29.4483 1.38527 29.4281 1.38527 29.1896 1.32947C28.8638 1.25069 28.4438 1.25397 28.1079 1.33932C27.8559 1.40497 27.8425 1.40497 27.604 1.34588C27.473 1.31306 27.2613 1.27695 27.137 1.26382L26.9086 1.24084V1.04061C26.9086 0.929 26.8985 0.715636 26.8851 0.564639L26.8649 0.295472H26.7373H26.6063V0.718918C26.6063 1.1161 26.6029 1.14236 26.5424 1.12595C26.5088 1.11939 26.4584 1.13252 26.4349 1.1555C26.398 1.19817 26.3778 1.19817 26.2938 1.15221C26.2031 1.10297 26.193 1.10297 26.1595 1.1555C26.1259 1.20473 26.1158 1.20473 26.0419 1.1555C25.978 1.1161 25.9478 1.11282 25.8974 1.14236C25.8638 1.16534 25.8269 1.18176 25.8202 1.18176C25.8134 1.18176 25.7899 1.08984 25.7698 0.974956C25.7496 0.86335 25.7059 0.666398 25.6723 0.541662C25.6119 0.311884 25.6119 0.311884 25.4876 0.302037C25.3398 0.288907 25.3398 0.288907 25.4271 0.663115C25.4641 0.814112 25.501 1.0045 25.5145 1.08984L25.538 1.24084L25.3767 1.26054C25.286 1.27367 25.0878 1.30649 24.9366 1.3426C24.6679 1.40168 24.6545 1.40168 24.4159 1.33932C24.0901 1.25725 23.6366 1.25069 23.3241 1.32619C23.089 1.38199 23.0688 1.38199 22.8202 1.32619C22.4776 1.25069 22.0577 1.25397 21.7318 1.33932C21.4765 1.40168 21.4698 1.40168 21.2279 1.33932C20.902 1.26054 20.4788 1.25397 20.1495 1.32619C19.9009 1.38199 19.8741 1.38199 19.6288 1.32947C19.2761 1.25069 18.8595 1.25397 18.5438 1.33932C18.2918 1.40825 18.2884 1.40825 18.0566 1.3426C17.929 1.30977 17.7711 1.28023 17.7039 1.28023C17.5057 1.28023 17.4822 1.24412 17.5527 1.0603C17.5863 0.974956 17.6804 0.774721 17.7577 0.61716C17.8383 0.459598 17.9055 0.321732 17.9055 0.311884C17.9055 0.302037 17.8383 0.295472 17.7543 0.295472C17.5729 0.295472 17.5595 0.315167 17.3512 0.794416C17.2168 1.09969 17.1933 1.13252 17.1227 1.12267C17.0791 1.1161 17.022 1.1358 16.9984 1.16534C16.9581 1.2113 16.948 1.2113 16.8943 1.16206C16.8305 1.10626 16.6625 1.11939 16.6625 1.18176C16.6625 1.19817 16.6188 1.18504 16.5617 1.1555C16.4811 1.10954 16.4509 1.10626 16.3938 1.14236C16.3266 1.18176 16.3266 1.17519 16.3266 0.738614V0.292189L16.1687 0.302037L16.0074 0.311884L15.9973 0.778004L15.9873 1.24412L15.7958 1.26382C15.6916 1.27695 15.4934 1.31306 15.3557 1.34588C15.1172 1.40168 15.1004 1.40168 14.8518 1.33932C14.5259 1.25397 14.106 1.25069 13.7701 1.32947C13.5248 1.38527 13.5047 1.38527 13.2662 1.32947C12.9504 1.25397 12.4969 1.25725 12.171 1.33932C11.9325 1.3984 11.9191 1.3984 11.6839 1.33932C11.3547 1.25725 10.9012 1.25397 10.5854 1.32947C10.3435 1.38527 10.3267 1.38527 10.0815 1.32947C9.75563 1.25397 9.30211 1.25725 8.97961 1.33932C8.74445 1.3984 8.7243 1.3984 8.49922 1.3426C8.37156 1.31306 8.16328 1.27695 8.03563 1.26382L7.80383 1.24084L7.77359 0.778004L7.74336 0.311884L7.59555 0.302037L7.44773 0.292189L7.46789 0.718918L7.48805 1.14893L7.41078 1.12923C7.36375 1.11939 7.32008 1.12923 7.2932 1.16206C7.25625 1.20802 7.24281 1.20802 7.16555 1.15878C7.095 1.11282 7.07149 1.11282 7.01438 1.14565C6.95727 1.17847 6.93039 1.17847 6.8632 1.14565C6.79938 1.11282 6.76578 1.11282 6.71875 1.14236C6.64148 1.18832 6.63477 1.17847 6.56758 0.732049C6.49367 0.272494 6.50375 0.295472 6.36266 0.295472H6.23836L6.26188 0.538379Z" fill="white" stroke="white" stroke-width="0.5"/>
<path d="M1.59234 5.27515C1.60242 5.4524 1.62258 5.67561 1.63266 5.76753L1.65281 5.9415L1.44117 5.94478C1.32359 5.94478 1.12875 5.97104 1.00781 6.00059C0.802891 6.05311 0.776016 6.05311 0.5375 6.00059C0.399766 5.96776 0.221719 5.9415 0.144453 5.9415H0V6.2238V6.50938L0.174688 6.4864C0.272109 6.47327 0.446797 6.44044 0.564375 6.4109C0.755859 6.36495 0.789453 6.36495 1.00109 6.41747C1.12539 6.44701 1.33703 6.47983 1.47141 6.48968C1.66625 6.50609 1.71328 6.51923 1.71328 6.5619C1.71328 6.59472 1.72672 6.63083 1.74352 6.65053C1.76367 6.66694 1.74352 6.82778 1.69313 7.05756C1.64945 7.26436 1.60914 7.45803 1.60242 7.48429C1.59906 7.5204 1.63266 7.53353 1.74688 7.53353H1.89805L1.97867 7.11665C2.0593 6.72274 2.06602 6.69976 2.13656 6.71618C2.18023 6.72602 2.23063 6.71289 2.26422 6.68007C2.31797 6.62755 2.32469 6.62755 2.3818 6.67679C2.4557 6.74244 2.49938 6.74244 2.5632 6.68007C2.62031 6.62755 2.61695 6.61114 2.68078 7.28734L2.7043 7.53353H2.85547H3.00664L2.99656 7.41864C2.9932 7.35627 2.97305 7.16917 2.95289 7.00176C2.92266 6.76542 2.92266 6.68007 2.95961 6.60457C2.99992 6.51266 3.01336 6.50609 3.25523 6.48968C3.39633 6.47983 3.61133 6.44701 3.73563 6.41747C3.95063 6.36166 3.97414 6.36495 4.20594 6.42075C4.515 6.49953 5.0693 6.49953 5.3582 6.42403C5.54633 6.37479 5.57656 6.37479 5.76133 6.42403C6.04352 6.50281 6.59781 6.49953 6.91359 6.42075C7.14875 6.36166 7.16219 6.36166 7.4007 6.42075C7.71313 6.49953 8.23383 6.49953 8.52609 6.42403C8.7243 6.36823 8.74445 6.36823 8.94602 6.42403C9.23156 6.49953 9.7825 6.49953 10.0983 6.42075C10.3234 6.36495 10.3502 6.36495 10.5484 6.41418C10.666 6.44373 10.8709 6.47655 11.0053 6.48968C11.2438 6.50938 11.2472 6.50938 11.2673 6.61114C11.2774 6.66694 11.2573 6.85404 11.2203 7.02474C11.1834 7.19543 11.1531 7.38581 11.1531 7.44162C11.1531 7.54338 11.1598 7.54994 11.2673 7.54994C11.3916 7.54994 11.395 7.54009 11.4387 7.32016C11.4521 7.25779 11.4924 7.09039 11.5294 6.95252C11.5932 6.71618 11.6033 6.69976 11.6738 6.71618C11.7209 6.72602 11.7679 6.71289 11.8048 6.68007C11.8552 6.63083 11.862 6.63083 11.9123 6.67679C11.9795 6.74572 12.04 6.74244 12.1139 6.6735C12.1677 6.6177 12.171 6.64068 12.1475 7.08382L12.124 7.55322L12.2852 7.54338L12.4465 7.53353L12.4566 7.1068C12.4599 6.87374 12.4801 6.66694 12.4969 6.65053C12.517 6.63083 12.5305 6.59472 12.5305 6.5619C12.5305 6.51923 12.5775 6.50609 12.7925 6.48968C12.9336 6.47983 13.152 6.44701 13.2796 6.41747C13.498 6.36166 13.5181 6.36166 13.7499 6.42075C14.0657 6.49953 14.6166 6.49953 14.9022 6.42403C15.0937 6.37151 15.1205 6.37151 15.3053 6.42403C15.5909 6.49953 16.1452 6.49953 16.4542 6.42075C16.6894 6.36166 16.7028 6.36166 16.9413 6.42075C17.2504 6.49953 17.8047 6.50281 18.0902 6.42403C18.2784 6.37479 18.3052 6.37479 18.4934 6.42403C18.7789 6.50281 19.3298 6.49953 19.6456 6.42075C19.8774 6.36495 19.9009 6.36495 20.1159 6.41747C20.2402 6.44701 20.4418 6.47983 20.5661 6.48968C20.7744 6.50609 20.7912 6.51594 20.8046 6.59472C20.8147 6.64396 20.7744 6.8442 20.7072 7.06084C20.5594 7.54994 20.5594 7.55651 20.7173 7.54338L20.8382 7.53353L20.9793 7.12321L21.1204 6.71289H21.2279C21.285 6.71289 21.3488 6.6932 21.3623 6.66694C21.3891 6.62755 21.4026 6.62755 21.4496 6.6735C21.5134 6.73915 21.547 6.74244 21.6411 6.6932C21.7116 6.65709 21.7116 6.66037 21.6881 6.94595C21.6747 7.10352 21.6512 7.29719 21.6377 7.37597C21.6209 7.45146 21.6176 7.52368 21.6277 7.53353C21.6377 7.54338 21.7083 7.54994 21.7889 7.54994C21.893 7.54994 21.9367 7.53353 21.9535 7.49085C21.967 7.46131 21.9838 7.25451 21.9938 7.0313C22.0039 6.81137 22.0241 6.63083 22.0409 6.63083C22.0543 6.63083 22.0745 6.60457 22.0879 6.56846C22.1013 6.51923 22.1517 6.50609 22.3667 6.48968C22.5078 6.47983 22.7262 6.44701 22.8505 6.41747C23.0655 6.36166 23.089 6.36495 23.3208 6.42075C23.6298 6.49953 24.1841 6.49953 24.4697 6.42403C24.6545 6.37151 24.6813 6.37151 24.8728 6.42403C25.155 6.49953 25.7093 6.49953 26.0251 6.42075C26.2602 6.36166 26.2737 6.36166 26.5122 6.42075C26.828 6.49953 27.3487 6.49953 27.6409 6.42403C27.8358 6.36823 27.8627 6.36823 28.0609 6.42075C28.3464 6.49953 28.8369 6.49953 29.1762 6.42075C29.4315 6.36495 29.4584 6.36495 29.6633 6.41418C29.7842 6.44373 29.9992 6.47983 30.1437 6.48968C30.3889 6.50938 30.4057 6.51266 30.4527 6.60785C30.493 6.68992 30.5703 7.25123 30.5703 7.49414C30.5703 7.54338 30.5938 7.55322 30.698 7.54338L30.8223 7.53353L30.8122 7.11336L30.8021 6.6932L30.8827 6.71289C30.9331 6.72602 30.9768 6.71618 31.0037 6.68335C31.0406 6.6374 31.0541 6.6374 31.1313 6.68663C31.1952 6.72931 31.2288 6.73259 31.2758 6.70305C31.3531 6.65709 31.3766 6.71618 31.4606 7.15604C31.4908 7.32673 31.5244 7.48757 31.5311 7.50727C31.5445 7.55651 31.7663 7.56635 31.7931 7.5204C31.8133 7.49085 31.7327 6.97221 31.6823 6.80152C31.6621 6.73915 31.6554 6.65053 31.6655 6.59801C31.6856 6.51266 31.6957 6.50609 31.9241 6.48968C32.0585 6.47983 32.2668 6.44701 32.3911 6.41747C32.6061 6.36166 32.6296 6.36495 32.8614 6.42075C33.1738 6.49953 33.7281 6.50281 34.0137 6.42403C34.2018 6.37479 34.232 6.37479 34.4168 6.42403C34.7023 6.49953 35.26 6.49953 35.5691 6.42075C35.8042 6.36166 35.8177 6.36166 36.0562 6.42075C36.3619 6.49953 36.9162 6.49953 37.2051 6.42403C37.3932 6.37479 37.4234 6.37479 37.6082 6.42403C37.8938 6.50281 38.4447 6.49953 38.7605 6.42075C38.9923 6.36495 39.0158 6.36166 39.2308 6.41747C39.3551 6.44701 39.5667 6.47983 39.7011 6.48968C39.8959 6.50609 39.943 6.51923 39.943 6.5619C39.943 6.59472 39.9564 6.63083 39.9732 6.64724C39.99 6.66694 39.9766 6.83435 39.9396 7.05756C39.8523 7.57948 39.8489 7.54994 40.0236 7.54994H40.1714L40.2084 7.30703C40.2285 7.17245 40.2554 6.98206 40.2655 6.8803C40.2856 6.70633 40.2923 6.69976 40.3696 6.71618C40.42 6.72931 40.4704 6.71618 40.5107 6.68335C40.5645 6.63411 40.5745 6.63411 40.6148 6.68007C40.6652 6.73915 40.7526 6.74572 40.8097 6.68992C40.8298 6.67022 40.8534 6.65709 40.8601 6.66694C40.8668 6.6735 40.8937 6.87046 40.9206 7.1068L40.9676 7.53353L41.0986 7.54338C41.1691 7.54994 41.2397 7.54338 41.2531 7.52696C41.2666 7.51383 41.2565 7.33658 41.2296 7.13962C41.2027 6.93939 41.1893 6.71946 41.2027 6.64396L41.2229 6.50938L41.4715 6.48968C41.6059 6.47983 41.8242 6.44701 41.9552 6.41747C42.1736 6.36495 42.2072 6.36495 42.4054 6.4109C42.523 6.44044 42.7044 6.47327 42.8119 6.4864L43 6.50938V6.2238V5.9415L42.8085 5.94478C42.701 5.94806 42.5163 5.97104 42.3953 6.00059C42.1904 6.05311 42.1635 6.05311 41.9418 6.00059C41.8141 5.96776 41.626 5.9415 41.532 5.9415C41.3069 5.9415 41.3069 5.9415 41.5051 5.40316L41.6529 4.98957H41.4916H41.327L41.2263 5.26202C41.1691 5.40973 41.1087 5.59683 41.0885 5.67233C41.0549 5.79379 41.0381 5.80692 40.9709 5.7905C40.9239 5.78066 40.8802 5.79379 40.8534 5.82333C40.813 5.86928 40.803 5.86928 40.7324 5.82333C40.6518 5.77081 40.5141 5.78722 40.5141 5.84631C40.5141 5.86272 40.467 5.85615 40.4133 5.82661C40.3394 5.7905 40.2957 5.78394 40.2487 5.80692C40.1916 5.83646 40.1815 5.82661 40.1613 5.69531C40.1513 5.61325 40.1445 5.41958 40.1479 5.25873L40.1546 4.97315L39.9934 4.9633L39.8321 4.95346L39.8523 5.44584L39.8691 5.9415L39.6641 5.94478C39.5499 5.94478 39.3517 5.97104 39.2207 6.00059C38.999 6.05311 38.9755 6.05311 38.7504 5.9973C38.4716 5.92509 37.8904 5.93493 37.5881 6.017C37.4134 6.06624 37.3831 6.06624 37.1513 6.00715C36.8389 5.92509 36.3518 5.92509 36.0461 6.00059C35.8412 6.05311 35.8143 6.05311 35.5758 6.00059C35.2398 5.9218 34.7863 5.92509 34.4706 6.00715C34.2388 6.06624 34.2085 6.06624 34.0338 6.017C33.7315 5.93493 33.1503 5.92509 32.8715 5.9973C32.6464 6.05311 32.6229 6.05311 32.4012 6.00059C32.2702 5.97104 32.0787 5.94478 31.9745 5.94478C31.867 5.9415 31.7797 5.93822 31.7797 5.93165C31.7797 5.92837 31.8032 5.71829 31.8301 5.46881C31.857 5.21934 31.8738 5.0027 31.8637 4.99285C31.857 4.97972 31.7898 4.97644 31.7159 4.983L31.5815 4.99613L31.5613 5.21278C31.5076 5.78066 31.5042 5.79379 31.4001 5.79379C31.3463 5.79707 31.2926 5.81676 31.2758 5.84302C31.2523 5.87913 31.2388 5.87585 31.1918 5.83318C31.1246 5.76424 31.0608 5.76096 31.007 5.82661C30.9734 5.866 30.9566 5.866 30.8895 5.82333C30.829 5.78394 30.7954 5.78066 30.7416 5.80692C30.7047 5.82661 30.6677 5.84302 30.661 5.84302C30.6543 5.84302 30.6375 5.69203 30.6241 5.50492C30.5871 4.96002 30.5871 4.95674 30.4292 4.95674H30.2948L30.3217 5.3408C30.3352 5.55416 30.3486 5.77081 30.3486 5.82661L30.352 5.92509L30.0664 5.94806C29.9085 5.95791 29.707 5.98746 29.6129 6.01372C29.4651 6.05311 29.4147 6.04982 29.2098 6.00059C28.8906 5.9218 28.4405 5.92509 28.1113 6.00715C27.8526 6.06952 27.8459 6.06952 27.5905 6.00715C27.268 5.92837 26.7809 5.92509 26.4719 6.00059C26.267 6.05311 26.2401 6.05311 26.0184 6.00059C25.7026 5.9218 25.2457 5.92509 24.9198 6.00715C24.6612 6.06952 24.6612 6.06952 24.3823 6.00059C24.1573 5.94478 24.043 5.93822 23.7541 5.95135C23.5559 5.96119 23.3241 5.98746 23.2301 6.01372C23.0823 6.04982 23.0352 6.04982 22.8438 6.00059C22.7228 5.97104 22.5246 5.94478 22.4003 5.94478L22.1752 5.9415L22.1954 5.81676C22.2021 5.75111 22.2491 5.54431 22.2928 5.35721C22.3365 5.1701 22.3734 5.00598 22.3734 4.99613C22.3734 4.983 22.2995 4.97972 22.2055 4.983C22.0173 4.99613 22.0308 4.97644 21.9535 5.38347C21.8662 5.84302 21.8763 5.81348 21.7923 5.7905C21.7419 5.78066 21.6982 5.7905 21.6713 5.82333C21.631 5.86928 21.6209 5.86928 21.5504 5.82333C21.4698 5.77081 21.332 5.78722 21.332 5.84631C21.332 5.86272 21.285 5.85615 21.2313 5.82661C21.154 5.78722 21.1137 5.78394 21.0633 5.8102C21.0129 5.83646 20.9927 5.83646 20.9793 5.80363C20.9625 5.75768 20.7945 5.0027 20.7945 4.97315C20.7945 4.9633 20.7206 4.95674 20.6266 4.95674C20.5359 4.95674 20.4586 4.9633 20.4586 4.97644C20.4586 4.98628 20.5123 5.19965 20.5762 5.44912C20.64 5.69859 20.6938 5.91196 20.6938 5.9218C20.6938 5.93493 20.6131 5.9415 20.5191 5.9415C20.4216 5.9415 20.2369 5.96776 20.1092 6.00059C19.8909 6.05639 19.8673 6.05639 19.6557 6.00059C19.35 5.92509 18.8629 5.92509 18.5471 6.00715C18.2985 6.06952 18.2952 6.06952 18.0264 6.00715C17.6905 5.92837 17.2336 5.92509 16.9313 6.00059C16.7263 6.05311 16.6995 6.05311 16.4609 6.00059C16.125 5.9218 15.6984 5.92509 15.3725 6.00715C15.1172 6.06952 15.1138 6.06952 14.8552 6.00715C14.5259 5.92509 14.0724 5.9218 13.7533 6.00059C13.5248 6.05639 13.5047 6.05639 13.283 6.00059C13.1553 5.96776 12.9571 5.9415 12.8429 5.9415H12.6346L12.6548 5.45568L12.6749 4.97315L12.5439 4.97644L12.4129 4.97972L12.3894 5.28499C12.3591 5.73142 12.3356 5.81676 12.2651 5.79379C12.2348 5.78394 12.1777 5.79707 12.1441 5.82333C12.0904 5.86272 12.0702 5.86272 12.003 5.82005C11.9359 5.77409 11.9157 5.77409 11.8485 5.82005C11.7813 5.86272 11.7645 5.86272 11.6973 5.81676C11.6335 5.77409 11.6134 5.77409 11.5395 5.82333C11.4555 5.87585 11.4555 5.87585 11.4521 5.77081C11.4488 5.71172 11.4387 5.50821 11.4252 5.31782L11.4051 4.97315L11.2573 4.9633L11.1095 4.95346L11.1296 5.44584L11.1464 5.9415L10.9583 5.94478C10.8541 5.94806 10.6694 5.97104 10.5484 6.00059C10.3435 6.05311 10.3166 6.05311 10.0949 6.00059C9.77578 5.9218 9.32227 5.92509 8.99641 6.00715C8.73773 6.06952 8.73438 6.06952 8.47906 6.00715C8.15992 5.92509 7.66945 5.92509 7.35703 6.00059C7.15211 6.05311 7.12524 6.05311 6.90352 6.00059C6.58438 5.9218 6.13086 5.92509 5.805 6.00715C5.54633 6.06952 5.54297 6.06952 5.28766 6.00715C4.95844 5.92509 4.50156 5.9218 4.18578 6.00059C3.96742 6.05639 3.94391 6.05639 3.73227 6.00059C3.61133 5.97104 3.39969 5.94478 3.26867 5.94478L3.02344 5.9415V5.46553V4.98957H2.88906H2.75469V5.27515C2.75469 5.6789 2.72781 5.81676 2.65391 5.79379C2.62367 5.78394 2.57664 5.79707 2.55313 5.82661C2.51617 5.86928 2.50273 5.86928 2.44227 5.82661C2.35156 5.76424 2.33477 5.76424 2.27094 5.82661C2.22391 5.87257 2.21047 5.87257 2.1332 5.82333C2.05258 5.77409 2.0425 5.77409 1.98539 5.82333C1.92828 5.87257 1.92492 5.85944 1.88461 5.49179C1.8275 4.93704 1.83422 4.95674 1.68977 4.95674H1.56883L1.59234 5.27515Z" fill="white" stroke="white" stroke-width="0.5"/>
<path d="M6.19805 9.72316C6.26859 10.0219 6.38281 10.5405 6.38281 10.5668C6.38281 10.5865 6.31563 10.6029 6.23836 10.6029C6.15773 10.6029 5.97297 10.6324 5.82516 10.6685L5.55977 10.7342L5.24734 10.6653C4.89797 10.5865 4.46461 10.5898 4.13875 10.6784C3.9775 10.7211 3.94055 10.7178 3.68523 10.6587C3.36273 10.5865 2.9025 10.593 2.57328 10.6817C2.38516 10.7342 2.35828 10.7342 2.15336 10.6784C1.87117 10.6029 1.20938 10.6029 0.950703 10.6751C0.796172 10.7178 0.749141 10.7178 0.597969 10.6784C0.500547 10.6554 0.325859 10.6259 0.211641 10.6127L0 10.593V10.8819V11.1708L0.194844 11.1478C0.298984 11.1347 0.477031 11.1018 0.584531 11.0756C0.769297 11.0296 0.799531 11.0296 0.987656 11.0821C1.26648 11.1642 1.92492 11.1675 2.18023 11.0854C2.35156 11.0329 2.37172 11.0329 2.54977 11.0854C2.81516 11.1675 3.43664 11.1642 3.72891 11.0854C3.93719 11.0263 3.9607 11.0263 4.14883 11.0788C4.47805 11.1642 4.97523 11.1773 5.2843 11.1018C5.52617 11.0427 5.56648 11.0427 5.72102 11.0821C5.81844 11.1084 6.02672 11.1379 6.18797 11.1511L6.48024 11.1708L6.50039 11.3053C6.51047 11.3808 6.50375 11.5417 6.48695 11.6697C6.4668 11.7944 6.45 11.9684 6.45 12.0538V12.2113H6.58102C6.73219 12.2113 6.72211 12.231 6.76578 11.7255C6.79602 11.4104 6.81617 11.3513 6.89344 11.3776C6.93039 11.3874 6.98414 11.3743 7.01774 11.3447C7.07149 11.2955 7.08156 11.2955 7.12188 11.3415C7.17227 11.4005 7.25961 11.4071 7.31336 11.3546C7.35703 11.3119 7.37047 11.3743 7.40742 11.7321C7.4175 11.8404 7.44102 11.9914 7.46117 12.0702C7.49813 12.2113 7.50148 12.2113 7.64594 12.2113C7.72656 12.2113 7.79375 12.2015 7.79375 12.1851C7.79375 12.1719 7.77695 12.0964 7.7568 12.0144C7.73664 11.9323 7.70977 11.7518 7.69297 11.6073C7.67281 11.394 7.67617 11.3349 7.7232 11.2561C7.77359 11.1675 7.79039 11.1609 7.99531 11.1609C8.11625 11.1609 8.33125 11.1314 8.47234 11.0985C8.72766 11.0395 8.74109 11.0395 8.99305 11.0985C9.33235 11.1773 9.68844 11.1773 10.0412 11.0953L10.3267 11.0263L10.6425 11.0985C10.9919 11.1773 11.4185 11.1708 11.7477 11.0821C11.9056 11.0395 11.9459 11.0427 12.1173 11.0887C12.3894 11.1642 13.0142 11.1609 13.2964 11.0854C13.5047 11.0263 13.5181 11.0263 13.8305 11.0985C14.1833 11.1773 14.6066 11.174 14.9391 11.0854C15.0937 11.0427 15.1373 11.0427 15.3759 11.0985C15.5203 11.1314 15.7286 11.1609 15.8395 11.1609C16.041 11.1609 16.0444 11.1642 16.0847 11.2692C16.1082 11.3316 16.1183 11.4235 16.1116 11.476C16.1015 11.5286 16.0847 11.7157 16.0746 11.8896L16.0578 12.2113H16.2023H16.3501L16.3736 12.0111C16.3837 11.8995 16.3938 11.7386 16.3938 11.6566C16.3938 11.4301 16.4206 11.3611 16.4979 11.3808C16.5348 11.3907 16.592 11.3743 16.6255 11.3447C16.6793 11.2955 16.6894 11.2955 16.7297 11.3415C16.7801 11.4005 16.8674 11.4071 16.9245 11.3513C16.9716 11.3053 16.9749 11.3152 17.0488 11.6861C17.153 12.2212 17.1496 12.2113 17.3142 12.2113H17.4587L17.4318 12.0702C17.4184 11.9947 17.3747 11.7944 17.3411 11.627C17.3041 11.4596 17.2873 11.3152 17.3041 11.3053C17.3209 11.2955 17.3344 11.2627 17.3344 11.2298C17.3344 11.1773 17.3747 11.1675 17.6468 11.1511C17.8148 11.1412 18.0298 11.1084 18.1238 11.0788C18.275 11.0329 18.3052 11.0329 18.4766 11.0854C18.7386 11.1642 19.3601 11.1642 19.6523 11.0854C19.8606 11.0263 19.8841 11.0263 20.0723 11.0788C20.4015 11.1642 20.8987 11.1773 21.2077 11.1018C21.4496 11.0427 21.4899 11.0427 21.6445 11.0854C21.9737 11.174 22.4003 11.1773 22.7497 11.0985L23.0655 11.0263L23.351 11.0953C23.7038 11.1773 24.0598 11.1773 24.3991 11.0985C24.6377 11.0427 24.6813 11.0427 24.8359 11.0821C24.9333 11.1084 25.1416 11.1379 25.2995 11.1511C25.5884 11.1708 25.5884 11.1708 25.6253 11.2758C25.6488 11.3316 25.6656 11.4629 25.6656 11.5679C25.6656 11.6697 25.6824 11.8568 25.7026 11.9848L25.7429 12.2113H25.8739H26.0049L25.978 11.9881C25.9646 11.8667 25.9512 11.6796 25.9512 11.5712C25.9512 11.3776 25.9512 11.3743 26.0419 11.3841C26.099 11.3907 26.1427 11.3743 26.1628 11.3382C26.193 11.2824 26.1998 11.2824 26.2535 11.3349C26.3173 11.3973 26.3509 11.4038 26.4349 11.3611C26.4853 11.3316 26.4988 11.3546 26.5323 11.5483C26.5525 11.6697 26.5995 11.8667 26.6398 11.9881L26.7104 12.2113H26.8414C26.9153 12.2113 26.9758 12.2048 26.9758 12.1949C26.9758 12.1851 26.9455 12.0735 26.912 11.9422C26.8145 11.5942 26.7944 11.4104 26.838 11.2824L26.8784 11.1708L27.1874 11.1511C27.3588 11.1379 27.5771 11.1084 27.6712 11.0821C27.8291 11.0395 27.8694 11.0427 28.0407 11.0887C28.3128 11.1642 28.9377 11.1609 29.2198 11.0854C29.4281 11.0263 29.4416 11.0263 29.754 11.0985C30.1067 11.1773 30.53 11.174 30.8626 11.0854C31.0171 11.0427 31.0574 11.0427 31.2993 11.1018C31.6084 11.1773 32.1055 11.1642 32.4348 11.0788C32.6229 11.0263 32.6464 11.0263 32.8547 11.0854C33.1436 11.1642 33.7684 11.1642 34.0238 11.0854C34.1951 11.0329 34.2152 11.0362 34.4773 11.0953C34.6284 11.1314 34.8468 11.1609 34.961 11.1609H35.1693L35.1895 11.2988C35.2029 11.3776 35.1861 11.5811 35.1592 11.7583C35.082 12.2245 35.0786 12.2113 35.2499 12.2113H35.3944L35.4548 11.7846C35.5153 11.3611 35.5187 11.3579 35.5993 11.3776C35.6497 11.3907 35.7001 11.3776 35.7404 11.3447C35.7941 11.2955 35.8042 11.2955 35.8445 11.3415C35.8949 11.4005 35.9823 11.4071 36.036 11.3546C36.0797 11.3119 36.0931 11.371 36.1502 11.8568L36.1906 12.2113H36.3552C36.5198 12.2113 36.5198 12.2113 36.503 12.1194C36.4223 11.7386 36.3854 11.3677 36.4223 11.266C36.4627 11.1642 36.466 11.1609 36.6676 11.1609C36.7784 11.1609 36.9934 11.1314 37.1446 11.0953C37.4066 11.0362 37.4268 11.0329 37.5981 11.0854C37.8534 11.1642 38.4783 11.1642 38.7672 11.0854C38.9755 11.0263 38.999 11.0263 39.1871 11.0788C39.5163 11.1642 40.0135 11.1773 40.3226 11.1018C40.5645 11.0427 40.6048 11.0427 40.7593 11.0854C41.0919 11.174 41.5152 11.1773 41.8679 11.0985C42.1702 11.0296 42.1971 11.0296 42.3886 11.0788C42.4995 11.1051 42.6842 11.1379 42.7951 11.1478L43 11.1708V10.8819V10.593L42.7749 10.6127C42.6473 10.6226 42.4659 10.6521 42.3684 10.6784C42.2106 10.7211 42.1669 10.7178 41.9317 10.662C41.6227 10.5865 41.0784 10.5963 40.7895 10.6849C40.6182 10.7342 40.598 10.7342 40.2923 10.6653C39.9363 10.5865 39.5063 10.5898 39.177 10.6784C39.0191 10.7211 38.9755 10.7178 38.7403 10.6653C38.401 10.5832 38.0248 10.5865 37.6788 10.6685C37.4167 10.7342 37.3898 10.7342 37.2017 10.6849C37.0942 10.6554 36.8927 10.6226 36.7549 10.6127L36.5097 10.593L36.5265 10.4749C36.5366 10.4092 36.5567 10.1991 36.5702 10.0022L36.5937 9.65095H36.4358H36.2813V9.80851C36.2813 9.89714 36.2712 10.081 36.2611 10.2188C36.2376 10.465 36.2342 10.4716 36.1502 10.4716C36.0998 10.4716 36.0427 10.488 36.0192 10.511C35.989 10.5405 35.9688 10.5405 35.9386 10.511C35.8815 10.4552 35.7471 10.4617 35.7236 10.5208C35.7068 10.5635 35.6967 10.5635 35.653 10.5208C35.5959 10.465 35.4716 10.4552 35.4213 10.5044C35.4011 10.5241 35.3742 10.442 35.3473 10.2648C35.3238 10.1171 35.2802 9.91683 35.2533 9.82164L35.2029 9.65095H35.0484C34.9073 9.65095 34.8972 9.65751 34.9173 9.72316C34.9409 9.80194 35.0517 10.3173 35.082 10.4913L35.1021 10.593L34.8602 10.6127C34.7259 10.6226 34.5277 10.6554 34.4202 10.6849C34.232 10.7342 34.2052 10.7342 33.9431 10.6685C33.5971 10.5865 33.2209 10.5832 32.8816 10.6653C32.6464 10.7178 32.6027 10.7211 32.4448 10.6784C32.1156 10.5898 31.6856 10.5865 31.3295 10.6653C31.0238 10.7342 31.0037 10.7342 30.8323 10.6849C30.5434 10.5963 29.9992 10.5865 29.6902 10.662C29.4516 10.7178 29.4147 10.7211 29.2534 10.6784C28.9343 10.593 28.4741 10.5865 28.1415 10.6653C27.8559 10.7309 27.8324 10.7309 27.6376 10.6817C27.5234 10.6521 27.3084 10.6193 27.1605 10.6062L26.8918 10.5865L26.8515 10.1269C26.8313 9.87416 26.8112 9.66408 26.8112 9.65751C26.8078 9.65423 26.7373 9.65095 26.6533 9.65095H26.4954L26.5189 9.83805C26.529 9.94309 26.5491 10.1269 26.5592 10.2484L26.5827 10.4716H26.4786C26.4215 10.4716 26.3711 10.4913 26.361 10.511C26.3476 10.5438 26.3375 10.5438 26.3005 10.511C26.2502 10.465 26.1158 10.4585 26.0889 10.5011C26.0755 10.5175 26.0251 10.5175 25.968 10.4946C25.8941 10.465 25.8504 10.465 25.8067 10.4946C25.753 10.5274 25.7328 10.488 25.5984 10.1039C25.5212 9.87088 25.4338 9.67064 25.4103 9.6608C25.3902 9.65423 25.3263 9.65095 25.2692 9.65751L25.1718 9.66736L25.3163 10.0941C25.3935 10.3271 25.4607 10.5405 25.4607 10.5602C25.4641 10.5865 25.417 10.6029 25.3398 10.6029C25.2692 10.6029 25.0878 10.6324 24.9366 10.6685C24.6578 10.7342 24.6578 10.7342 24.3823 10.6685C24.033 10.5865 23.6433 10.5865 23.3208 10.6653C23.0823 10.7211 23.0688 10.7211 22.8169 10.6653C22.4776 10.5832 22.1013 10.5865 21.7553 10.6685L21.4798 10.7375L21.1943 10.6685C20.8416 10.5865 20.4855 10.5865 20.1495 10.6653C19.8942 10.7243 19.8841 10.7243 19.612 10.662C19.2895 10.5865 18.8293 10.5963 18.49 10.6849C18.3052 10.7309 18.2716 10.7309 18.0869 10.6849C17.9794 10.6554 17.7845 10.6226 17.6569 10.6127L17.4284 10.593L17.4486 10.4256C17.4654 10.2713 17.5729 9.83149 17.6233 9.70347C17.6401 9.6608 17.6166 9.65095 17.4788 9.65095C17.3142 9.65095 17.3109 9.65423 17.2739 9.7724C17.2538 9.84133 17.2101 10.0252 17.1765 10.1827C17.1194 10.4552 17.1127 10.4716 17.032 10.4716C16.985 10.4716 16.9279 10.488 16.9044 10.511C16.8741 10.5405 16.854 10.5405 16.8238 10.511C16.7734 10.4617 16.6558 10.4585 16.6054 10.5077C16.5785 10.5339 16.5617 10.5339 16.5483 10.5077C16.518 10.4617 16.3501 10.4617 16.3064 10.5044C16.2594 10.5504 16.2157 9.9792 16.2459 9.78225L16.2695 9.65095H16.1082H15.9503L15.9638 10.1236L15.9738 10.5963L15.7387 10.6127C15.611 10.6226 15.4128 10.6554 15.2986 10.6849C15.1138 10.7309 15.0802 10.7309 14.8955 10.6817C14.5663 10.593 14.106 10.5865 13.7835 10.6587C13.5282 10.7178 13.4913 10.7211 13.33 10.6784C13.0109 10.593 12.5506 10.5865 12.218 10.6653L11.9258 10.7342L11.647 10.6685C11.3077 10.5898 10.8877 10.5865 10.5652 10.6653C10.3435 10.7178 10.3166 10.7178 10.0781 10.662C9.74555 10.5865 9.35586 10.5865 9.0132 10.6685C8.73438 10.7342 8.73438 10.7342 8.45891 10.6685C8.30438 10.6324 8.08602 10.6029 7.97516 10.6029H7.76688L7.74336 10.1827C7.73328 9.95294 7.71984 9.74286 7.71649 9.7166C7.70977 9.68049 7.65938 9.66408 7.54516 9.65751L7.38055 9.64767L7.40406 9.95294C7.4175 10.1203 7.4343 10.3075 7.44438 10.3633C7.46453 10.465 7.46117 10.4716 7.36375 10.4716C7.30664 10.4716 7.25625 10.4913 7.24617 10.511C7.23274 10.5438 7.22266 10.5438 7.1857 10.511C7.13195 10.465 7.00094 10.4585 6.9707 10.5044C6.95727 10.5274 6.93039 10.5274 6.88672 10.5044C6.80273 10.4585 6.68516 10.4617 6.68516 10.511C6.68516 10.5963 6.6482 10.5011 6.58438 10.2549C6.41977 9.63125 6.42649 9.65095 6.29883 9.65095C6.19133 9.65095 6.18125 9.65751 6.19805 9.72316Z" fill="white" stroke="white" stroke-width="0.5"/>
<path d="M1.83422 14.45C1.82414 14.5288 1.80063 14.7389 1.77711 14.9227L1.74016 15.2543L1.43445 15.274C1.26313 15.2871 1.04477 15.3166 0.950703 15.3429C0.796172 15.3823 0.749141 15.3823 0.597969 15.3429C0.500547 15.3199 0.325859 15.2871 0.211641 15.2772L0 15.2543V15.5399V15.8221H0.110859C0.167969 15.8221 0.342656 15.7926 0.493828 15.7565C0.772656 15.6908 0.772656 15.6908 1.04813 15.7565C1.20266 15.7926 1.41766 15.8221 1.53188 15.8221H1.7368L1.78047 15.9502C1.82414 16.088 1.79727 16.3408 1.69648 16.6625C1.6293 16.8791 1.6293 16.8791 1.78719 16.866C1.92828 16.8561 1.92828 16.8561 1.98539 16.6658C2.01898 16.5574 2.06266 16.3736 2.08281 16.2489C2.11641 16.0519 2.12984 16.0289 2.18695 16.0421C2.22391 16.0519 2.28102 16.0355 2.31797 16.0027C2.35492 15.9699 2.38516 15.96 2.38516 15.9797C2.38516 16.0388 2.54641 16.0651 2.60688 16.0158C2.65727 15.9764 2.66063 16.0158 2.65055 16.4229L2.63711 16.8726H2.75805C2.91258 16.8726 2.92266 16.843 2.92266 16.3572C2.92266 16.1471 2.93609 15.983 2.95625 15.9699C2.97641 15.96 2.98984 15.9206 2.98984 15.8845C2.98984 15.8287 3.01336 15.8221 3.20148 15.8221C3.3157 15.8221 3.53406 15.7926 3.68859 15.7565C3.96406 15.6908 3.96406 15.6908 4.24289 15.7565C4.58891 15.8386 4.97859 15.8386 5.30109 15.7598C5.53961 15.704 5.55305 15.704 5.805 15.7598C6.14766 15.8418 6.53734 15.8386 6.87328 15.7565L7.14203 15.6908L7.40406 15.7565C7.74 15.8386 8.15992 15.8418 8.49922 15.7631C8.74445 15.7073 8.76125 15.7073 8.98633 15.7631C9.30547 15.8418 9.73211 15.8386 10.0647 15.7565L10.3301 15.6908L10.6055 15.7565C10.7567 15.7926 10.965 15.8221 11.0658 15.8221C11.2237 15.8221 11.2539 15.832 11.2539 15.8812C11.2539 15.9141 11.2707 15.9567 11.2875 15.9731C11.311 15.9961 11.2875 16.1274 11.2102 16.3835C11.1464 16.5903 11.0859 16.7839 11.0691 16.8135C11.049 16.866 11.0658 16.8726 11.2102 16.8726C11.4017 16.8726 11.3984 16.8758 11.5395 16.3408C11.6134 16.0519 11.6201 16.0355 11.7007 16.0454C11.7444 16.0519 11.8048 16.0322 11.8351 16.006C11.8788 15.96 11.8888 15.96 11.9258 16.0027C11.9762 16.0618 12.1139 16.0683 12.1509 16.0093C12.1878 15.9567 12.2214 16.2226 12.2248 16.5837L12.2281 16.8726H12.3793C12.4767 16.8726 12.5405 16.8561 12.5506 16.8299C12.5573 16.8069 12.554 16.6132 12.5338 16.3999C12.5137 16.1373 12.5137 15.9863 12.5405 15.9239C12.5741 15.8353 12.5876 15.8287 12.8463 15.8123C12.9974 15.8025 13.2091 15.7696 13.3166 15.7401C13.5047 15.6908 13.5282 15.6908 13.7869 15.7565C14.1228 15.8386 14.5125 15.8418 14.8552 15.7631C15.1004 15.704 15.1205 15.704 15.3423 15.7598C15.658 15.8418 16.0981 15.8386 16.4273 15.7565C16.6927 15.6908 16.6927 15.6908 16.9716 15.7565C17.3142 15.8353 17.7308 15.8386 18.0566 15.7598C18.2784 15.7073 18.3052 15.7073 18.5438 15.7631C18.8763 15.8386 19.266 15.8386 19.612 15.7565C19.8875 15.6908 19.8875 15.6908 20.1663 15.7565C20.3175 15.7926 20.5291 15.8221 20.6333 15.8221C20.8113 15.8221 20.8248 15.8287 20.8752 15.9239C20.9289 16.0257 20.9155 16.2719 20.8382 16.7478L20.818 16.8726H20.9591C21.0734 16.8726 21.0969 16.8594 21.1103 16.7971C21.1473 16.6395 21.1977 16.2456 21.1977 16.134C21.1977 16.0257 21.2044 16.0191 21.2884 16.0388C21.3488 16.0552 21.3891 16.0454 21.416 16.006C21.453 15.96 21.463 15.9567 21.5 16.0027C21.5504 16.0618 21.6545 16.0683 21.6881 16.0158C21.7318 15.9436 21.762 16.0651 21.7855 16.4097C21.8158 16.8758 21.8124 16.8726 21.9737 16.8726C22.098 16.8726 22.1047 16.8693 22.1047 16.7642C22.1047 16.7084 22.0879 16.5115 22.0711 16.3309C22.0476 16.1176 22.0509 15.9928 22.0711 15.9731C22.0913 15.9534 22.1047 15.9141 22.1047 15.8812C22.1047 15.832 22.1349 15.8221 22.3163 15.8221C22.4305 15.8221 22.6489 15.7926 22.8034 15.7565C23.0823 15.6908 23.0823 15.6908 23.3477 15.7565C23.6769 15.8386 24.0867 15.8418 24.4227 15.7631C24.6679 15.7073 24.6847 15.7073 24.9098 15.7631C25.2255 15.8418 25.6455 15.8386 25.9814 15.7565L26.2502 15.6908L26.5458 15.7598C26.8817 15.8386 27.3487 15.8353 27.6712 15.7466C27.8291 15.7073 27.8694 15.7073 28.0239 15.7499C28.2826 15.8221 28.9477 15.8221 29.2266 15.7466C29.4382 15.6908 29.4516 15.6908 29.7103 15.7565C29.8581 15.7926 30.063 15.8221 30.1672 15.8221C30.3553 15.8221 30.3587 15.8254 30.3923 15.9272C30.4124 15.9994 30.4091 16.1176 30.3822 16.2817C30.3587 16.4163 30.3352 16.6067 30.3251 16.6986L30.3116 16.8726H30.4695H30.6274L30.6677 16.518C30.7215 16.0388 30.7248 16.0257 30.829 16.0454C30.8861 16.0552 30.9298 16.0421 30.9566 16.006C30.9936 15.96 31.0037 15.9567 31.0406 16.0027C31.091 16.0618 31.212 16.0683 31.2657 16.0158C31.3094 15.9731 31.3027 15.9567 31.427 16.4852L31.5177 16.8726H31.7024C31.8637 16.8726 31.8872 16.866 31.8704 16.8135C31.6923 16.2456 31.6487 16.0618 31.6655 15.9469L31.689 15.8221H31.8872C31.998 15.8221 32.2063 15.7926 32.3508 15.7565C32.6162 15.6908 32.6162 15.6908 32.895 15.7565C33.2377 15.8353 33.6542 15.8386 33.9801 15.7598C34.2018 15.7073 34.2287 15.7073 34.4672 15.7631C34.7998 15.8386 35.1895 15.8386 35.5355 15.7565C35.8109 15.6908 35.8109 15.6908 36.0898 15.7565C36.4291 15.8353 36.8456 15.8386 37.1715 15.7598C37.3932 15.7073 37.4201 15.7073 37.6586 15.7631C37.9912 15.8386 38.3809 15.8386 38.7269 15.7565C39.0057 15.6908 39.0057 15.6908 39.2711 15.7565C39.4156 15.7926 39.6306 15.8221 39.7515 15.8221H39.9665L40.027 15.9534C40.0773 16.0651 40.0841 16.134 40.0639 16.4032C40.0505 16.5804 40.0337 16.7577 40.0236 16.7971C40.0034 16.866 40.0135 16.8726 40.1378 16.8726C40.3091 16.8726 40.3159 16.8561 40.336 16.39L40.3562 16.0191L40.4402 16.0421C40.4973 16.0552 40.5376 16.0454 40.5645 16.006C40.6014 15.96 40.6115 15.9567 40.6484 16.0027C40.6988 16.0618 40.7862 16.0683 40.8433 16.0125C40.8735 15.983 40.887 15.9863 40.9004 16.0224C40.9373 16.1274 41.018 16.6034 41.018 16.7314V16.8726H41.1826H41.3472L41.3304 16.7314C41.3203 16.6559 41.2867 16.459 41.2565 16.2981C41.2263 16.134 41.2095 15.9666 41.2195 15.9206C41.2363 15.8451 41.2565 15.8386 41.5051 15.8189C41.6529 15.809 41.8645 15.7729 41.9754 15.7434C42.1602 15.6908 42.1938 15.6908 42.3785 15.7401C42.4894 15.7696 42.6741 15.7992 42.7917 15.8123L43 15.832V15.5431V15.2543L42.7749 15.2772C42.6473 15.2871 42.4659 15.3199 42.3651 15.3462C42.2072 15.3856 42.1602 15.3856 41.9956 15.3429C41.8914 15.3166 41.6999 15.2838 41.5689 15.274L41.3304 15.2543L41.3069 14.972C41.2968 14.8177 41.2699 14.6043 41.2498 14.4993L41.2095 14.3122H41.0784C40.9474 14.3122 40.9441 14.3155 40.9642 14.4008C40.9743 14.4533 40.9945 14.6372 41.0045 14.8111L41.028 15.1328H40.9239C40.8668 15.1328 40.8164 15.1525 40.8063 15.1722C40.7929 15.205 40.7828 15.205 40.7459 15.1722C40.6888 15.1197 40.5577 15.1197 40.5376 15.1722C40.5241 15.205 40.5141 15.205 40.4771 15.1722C40.4234 15.123 40.3058 15.1197 40.2554 15.1689C40.2319 15.1919 40.2151 15.1295 40.2016 14.9621C40.1916 14.8308 40.1647 14.6306 40.1412 14.5157L40.1042 14.3122H39.9866C39.8657 14.3122 39.8657 14.3122 39.8892 14.4336C39.9027 14.5026 39.9195 14.7159 39.9329 14.9063L39.953 15.2543L39.6541 15.274C39.4895 15.2871 39.2745 15.3166 39.1804 15.3429C39.0225 15.3856 38.9822 15.3823 38.8109 15.3363C38.5388 15.2608 37.9139 15.2641 37.6284 15.3429C37.4201 15.3987 37.4033 15.3987 37.1748 15.3396C36.8557 15.2608 36.2712 15.2608 36.0058 15.3396C35.821 15.3954 35.8009 15.3954 35.6195 15.3396C35.3541 15.2608 34.7326 15.2608 34.437 15.3429C34.2287 15.3987 34.2119 15.3987 33.9834 15.3396C33.6777 15.2641 33.0865 15.2608 32.8144 15.3363C32.6431 15.3823 32.5994 15.3823 32.4348 15.3429C32.334 15.3166 32.1459 15.2838 32.0182 15.2707L31.7831 15.2477L31.8939 14.9195C31.9577 14.7389 32.0316 14.5354 32.0619 14.4697C32.0921 14.4008 32.1156 14.3384 32.1156 14.3286C32.1156 14.3187 32.0384 14.3122 31.9409 14.3187L31.7663 14.3286L31.6957 14.5091C31.6554 14.6076 31.5949 14.7882 31.5613 14.9129C31.5009 15.1295 31.4975 15.1328 31.39 15.1328C31.3195 15.1328 31.2657 15.1525 31.2456 15.1886C31.2254 15.2214 31.2086 15.2313 31.2086 15.2116C31.2086 15.1919 31.1716 15.1591 31.128 15.1394C31.0675 15.1131 31.0306 15.1164 30.9734 15.1558C30.9197 15.1919 30.8895 15.1952 30.8626 15.1689C30.8122 15.1197 30.6375 15.123 30.6375 15.1722C30.6375 15.1985 30.6274 15.2017 30.6039 15.1788C30.5838 15.1591 30.5602 14.9588 30.5468 14.7291L30.5266 14.3122H30.3822C30.2545 14.3122 30.2344 14.322 30.2142 14.3942C30.2041 14.4402 30.2109 14.6372 30.231 14.8308C30.2512 15.0245 30.268 15.1985 30.268 15.2182C30.268 15.2379 30.1705 15.2641 30.0395 15.274C29.9152 15.2838 29.7305 15.3166 29.6297 15.3429C29.4651 15.3856 29.4248 15.3856 29.2434 15.3396C28.9612 15.2641 28.4035 15.2641 28.0844 15.3396C27.8459 15.3954 27.8223 15.3954 27.6309 15.3462C27.2949 15.2543 26.8683 15.2477 26.5391 15.3232L26.2535 15.3889L25.9848 15.3265C25.6723 15.251 25.2121 15.2576 24.8795 15.3462C24.6948 15.3954 24.6645 15.3954 24.4428 15.3396C24.1371 15.2641 23.5459 15.2608 23.2704 15.3363C23.0957 15.3856 23.0554 15.3856 22.9009 15.3429C22.8034 15.3166 22.6019 15.2871 22.4507 15.2772C22.2962 15.2641 22.1719 15.251 22.1719 15.2477C22.1719 15.2017 22.2458 14.5288 22.2592 14.4336L22.2794 14.3122H22.108H21.9367V14.45C21.9367 14.5288 21.9266 14.7127 21.9132 14.8604C21.893 15.1328 21.893 15.1328 21.799 15.1328C21.7486 15.1328 21.6915 15.1558 21.6747 15.1853C21.6478 15.2346 21.6411 15.2346 21.6243 15.1853C21.5974 15.123 21.4127 15.1131 21.3891 15.1722C21.3757 15.205 21.3656 15.205 21.3287 15.1722C21.2749 15.123 21.1573 15.1197 21.107 15.1689C21.0834 15.1919 21.0666 15.1394 21.0532 14.9917C21.0431 14.8768 21.0095 14.6765 20.9793 14.5485L20.9222 14.3122H20.7777H20.6299L20.6635 14.4172C20.7005 14.5485 20.7945 15.0869 20.7945 15.1853C20.7945 15.2477 20.771 15.2576 20.5191 15.274C20.3645 15.2871 20.1596 15.3166 20.0655 15.3429C19.9077 15.3856 19.8673 15.3823 19.696 15.3363C19.4239 15.2608 18.7991 15.2641 18.5135 15.3429C18.3052 15.3987 18.2884 15.3987 18.06 15.3396C17.7543 15.2641 17.163 15.2608 16.8909 15.3363C16.7129 15.3856 16.6793 15.3856 16.5046 15.3363C16.2325 15.2608 15.6043 15.2641 15.3221 15.3429C15.1138 15.3987 15.097 15.3987 14.8686 15.3396C14.5562 15.2608 14.0019 15.2608 13.7197 15.3363C13.5349 15.3856 13.4946 15.3856 13.3334 15.3429C13.2326 15.3166 13.0411 15.2871 12.9101 15.274C12.7757 15.2641 12.6648 15.2444 12.6648 15.2346C12.6648 15.2247 12.7186 15.0212 12.7824 14.7882C12.8463 14.5518 12.9 14.3483 12.9 14.3352C12.9 14.322 12.8295 14.3122 12.7421 14.3187L12.5842 14.3286L12.4834 14.7291C12.386 15.1197 12.3793 15.1328 12.292 15.1328C12.2416 15.1328 12.1845 15.1558 12.1576 15.1853C12.1206 15.2313 12.1139 15.2313 12.087 15.1853C12.0501 15.123 11.8888 15.1164 11.8317 15.1722C11.8015 15.2017 11.7813 15.2017 11.7511 15.1722C11.7007 15.123 11.5227 15.1197 11.5227 15.1722C11.5227 15.1919 11.5126 15.2017 11.5025 15.1886C11.4891 15.1788 11.4488 14.9785 11.4084 14.7488L11.3379 14.3286L11.18 14.3187C11.0893 14.3122 11.0188 14.322 11.0188 14.3352C11.0188 14.3647 11.143 15.0672 11.1699 15.1853C11.1834 15.251 11.1666 15.2576 10.9415 15.274C10.8105 15.2871 10.619 15.3166 10.5182 15.3429C10.3502 15.3889 10.3133 15.3856 10.0479 15.3232C9.71195 15.2444 9.28195 15.2543 8.95609 15.3462C8.76797 15.3987 8.74781 15.3987 8.51938 15.3429C8.20695 15.2608 7.62578 15.2608 7.33688 15.3396C7.14875 15.3889 7.11516 15.3889 6.96734 15.3462C6.87664 15.3166 6.65828 15.2871 6.48359 15.2772C6.22492 15.2608 6.10734 15.2707 5.85875 15.3265C5.55641 15.3987 5.54633 15.3987 5.33805 15.3396C5.05586 15.2641 4.42766 15.2608 4.16227 15.3363C3.98758 15.3823 3.95398 15.3823 3.69195 15.3265C3.53742 15.2937 3.33586 15.2641 3.24516 15.2641H3.08391L3.10742 15.0409C3.12086 14.9195 3.14102 14.7061 3.15445 14.5649L3.17797 14.3122H3.05703H2.93609L2.89242 14.6798C2.84203 15.1164 2.83531 15.1328 2.74125 15.1328C2.70094 15.1328 2.65055 15.1492 2.63039 15.1689C2.60352 15.1952 2.57328 15.1919 2.52289 15.1591C2.46578 15.1263 2.43891 15.1263 2.38516 15.1591C2.33141 15.1919 2.30453 15.1919 2.25078 15.1591C2.19703 15.1263 2.17016 15.1263 2.11305 15.1591C2.04586 15.2017 2.04586 15.1985 2.06938 14.7553L2.09289 14.3122H1.97195C1.85438 14.3122 1.85102 14.3155 1.83422 14.45Z" fill="white" stroke="white" stroke-width="0.5"/>
<path d="M6.31898 19.1998C6.35258 19.3245 6.38953 19.5346 6.40633 19.6725L6.43656 19.9154L6.22156 19.9351C6.10398 19.9482 5.90914 19.9811 5.7882 20.0106C5.57656 20.0631 5.54969 20.0631 5.29438 20.004C4.95172 19.9253 4.46461 19.9253 4.1757 20.004C3.9775 20.0533 3.95063 20.0533 3.75578 20.004C3.38961 19.9121 3.10742 19.9088 2.7043 19.9876C2.3482 20.0598 2.34148 20.0598 2.10297 20.0007C1.79391 19.9253 1.2732 19.9253 0.984297 20.0007C0.792813 20.0533 0.755859 20.0533 0.581172 20.0106C0.473672 19.9811 0.298984 19.9515 0.194844 19.9384L0 19.9154V20.201V20.4833H0.127656C0.201563 20.4833 0.372891 20.4537 0.513984 20.4176C0.769297 20.3553 0.776016 20.3553 1.03133 20.4176C1.34711 20.4997 1.83758 20.4997 2.15 20.4242C2.35492 20.3717 2.3818 20.3717 2.60352 20.4242C2.92266 20.503 3.38289 20.4997 3.70539 20.4176C3.9607 20.3553 3.96742 20.3553 4.22273 20.4176C4.53852 20.4997 4.97523 20.503 5.30781 20.4308C5.51609 20.3848 5.57656 20.3815 5.74117 20.4209C5.84531 20.4439 6.05695 20.4702 6.21148 20.48L6.49703 20.4997L6.52391 20.608C6.54406 20.6802 6.53063 20.8247 6.48359 21.0676C6.39289 21.5468 6.38953 21.5403 6.5407 21.5271L6.66164 21.5173L6.74227 21.1726C6.78594 20.9822 6.82625 20.7951 6.83633 20.759C6.84977 20.7032 6.86992 20.6934 6.94047 20.7065C7.00094 20.7163 7.04461 20.7032 7.07149 20.6671C7.10844 20.6211 7.11852 20.6179 7.15547 20.6638C7.20586 20.7229 7.3268 20.7295 7.38727 20.6704C7.42422 20.6376 7.42758 20.7098 7.41414 21.0807L7.4007 21.5337H7.56195H7.72656L7.72992 21.0971C7.73328 20.4767 7.71984 20.503 8.0625 20.4833C8.22039 20.4734 8.43875 20.4439 8.55297 20.4176C8.73102 20.3782 8.78141 20.3815 8.97961 20.4275C9.28195 20.503 9.75899 20.4997 10.0748 20.4176C10.32 20.3585 10.3267 20.3585 10.5787 20.4176C10.9012 20.4997 11.3883 20.4997 11.6906 20.4242C11.8955 20.3717 11.9224 20.3717 12.1609 20.4242C12.4902 20.4997 12.9168 20.4997 13.2527 20.4209C13.5148 20.3585 13.5248 20.3585 13.7734 20.4209C14.0892 20.4997 14.5797 20.4997 14.882 20.4242C15.087 20.3717 15.1138 20.3717 15.3355 20.4242C15.4666 20.457 15.6782 20.4833 15.8126 20.4833C16.0477 20.4833 16.0545 20.4866 16.1048 20.5883C16.1452 20.6638 16.1586 20.7951 16.1586 21.1135V21.5337H16.2896H16.4173L16.4374 21.2612C16.4509 21.1135 16.4609 20.9231 16.4609 20.8378C16.4609 20.7032 16.4677 20.6868 16.5281 20.7032C16.5651 20.7131 16.6188 20.7032 16.6457 20.6802C16.686 20.6474 16.7095 20.6474 16.7364 20.6737C16.7868 20.7229 16.9077 20.7229 16.9548 20.677C16.9884 20.6441 17.0354 20.8608 17.116 21.3925C17.1395 21.5304 17.1429 21.5337 17.2705 21.5337C17.4251 21.5337 17.4251 21.5337 17.3478 21.0741C17.3209 20.9034 17.3075 20.6999 17.3176 20.6211L17.3377 20.4833L17.5964 20.48C17.7375 20.4767 17.9525 20.4537 18.0734 20.4242C18.2784 20.3717 18.3052 20.3717 18.527 20.4242C18.8461 20.503 19.3063 20.4997 19.6221 20.4209C19.8707 20.3585 19.8774 20.3585 20.1428 20.4209C20.472 20.4964 20.9054 20.4997 21.2313 20.4308C21.4563 20.3815 21.4933 20.3815 21.7217 20.4308C22.0577 20.503 22.4977 20.4964 22.8135 20.4176C23.0655 20.3585 23.0722 20.3585 23.3174 20.4176C23.6366 20.4997 24.1203 20.503 24.4361 20.4242C24.6545 20.3684 24.678 20.3684 24.8896 20.4242C25.0105 20.4537 25.2188 20.48 25.3498 20.48L25.5884 20.4833L25.6085 20.5982C25.6287 20.7131 25.5682 20.9199 25.4002 21.3302C25.3633 21.4254 25.3297 21.5107 25.3297 21.5173C25.3297 21.5271 25.3935 21.5337 25.4741 21.5337H25.6152L25.7227 21.2612C25.7832 21.1135 25.8571 20.9231 25.884 20.8411C25.931 20.7032 25.9445 20.6901 26.0251 20.7065C26.0822 20.7163 26.1259 20.7032 26.1527 20.6671C26.1897 20.6211 26.1998 20.6179 26.2367 20.6638C26.2871 20.7229 26.408 20.7295 26.4685 20.6704C26.5021 20.6376 26.5055 20.6671 26.4887 20.8279C26.4618 21.0577 26.408 21.3925 26.3845 21.4746C26.3677 21.5238 26.3879 21.5337 26.5189 21.5337C26.6331 21.5337 26.6734 21.5206 26.6869 21.4746C26.7238 21.3532 26.7742 21.0249 26.7742 20.9133C26.7742 20.8476 26.8011 20.7262 26.8313 20.6376L26.8884 20.4833H27.1169C27.2412 20.4833 27.4562 20.4603 27.5973 20.4275C27.8324 20.3782 27.866 20.3782 28.1012 20.4275C28.4371 20.4997 28.8436 20.4964 29.1762 20.4209C29.4382 20.3585 29.4483 20.3585 29.6969 20.4209C30.0194 20.4997 30.5031 20.4997 30.8088 20.4242C31.0205 20.3684 31.044 20.3684 31.2623 20.4242C31.5781 20.503 32.035 20.4997 32.3642 20.4176C32.6195 20.3553 32.6229 20.3553 32.8816 20.4176C33.2041 20.4964 33.6374 20.503 33.9767 20.4308C34.2052 20.3815 34.2421 20.3815 34.4672 20.4308C34.6016 20.4603 34.8098 20.4833 34.9341 20.4833C35.1592 20.4833 35.1592 20.4833 35.1995 20.5916C35.223 20.654 35.2398 20.8772 35.2398 21.1168V21.5337H35.391H35.5422V21.1102V20.6901L35.6329 20.7065C35.69 20.7163 35.7337 20.7032 35.7606 20.6671C35.7975 20.6211 35.8076 20.6179 35.8445 20.6638C35.8916 20.7196 36.0461 20.7328 36.0461 20.6802C36.0461 20.6605 36.0629 20.6474 36.0797 20.6474C36.0998 20.6474 36.1133 20.6737 36.1133 20.7032C36.1133 20.7557 36.1906 21.0676 36.2846 21.409C36.3148 21.5271 36.3249 21.5337 36.4627 21.5337H36.6071L36.4929 21.1004C36.419 20.8148 36.3955 20.654 36.4156 20.6343C36.4358 20.6146 36.4492 20.5752 36.4492 20.5424C36.4492 20.4898 36.4795 20.4833 36.681 20.4833C36.8087 20.4833 37.0203 20.4603 37.1547 20.4308C37.3798 20.3815 37.4167 20.3815 37.6452 20.4308C37.9845 20.503 38.4178 20.4964 38.7403 20.4176C38.999 20.3553 39.0023 20.3553 39.2577 20.4176C39.5869 20.4997 40.0438 20.503 40.3595 20.4242C40.5779 20.3684 40.6014 20.3684 40.813 20.4242C41.1188 20.4997 41.6025 20.4997 41.925 20.4209C42.1736 20.3585 42.1837 20.3585 42.4457 20.4209C42.5935 20.4537 42.7783 20.4833 42.8589 20.4833H43V20.201V19.9154L42.7783 19.9384C42.6573 19.9515 42.4726 19.9811 42.3684 20.0073C42.2038 20.05 42.1602 20.05 41.9788 20.0007C41.6932 19.9253 41.1389 19.9253 40.8265 20.004C40.5913 20.0631 40.5779 20.0631 40.3394 20.004C40.0236 19.9253 39.5029 19.9253 39.214 20.0007C39.0158 20.0533 38.9889 20.0533 38.7941 20.004C38.4279 19.9121 38.1491 19.9088 37.7392 19.9909C37.3831 20.0598 37.363 20.0598 37.1581 20.0073C37.0371 19.9778 36.8389 19.9449 36.7113 19.9351L36.4828 19.9154V19.6659C36.4828 19.5281 36.4727 19.318 36.4593 19.1932L36.4391 18.9733H36.2913H36.1402L36.1603 19.0948C36.1704 19.1637 36.1872 19.3475 36.2006 19.5051L36.2208 19.7939H36.12C36.0595 19.7939 36.0125 19.8136 35.9991 19.8465C35.9823 19.8924 35.9756 19.8924 35.9252 19.8465C35.8647 19.7841 35.774 19.7775 35.7169 19.8333C35.6866 19.8629 35.6665 19.8629 35.6363 19.8333C35.5859 19.7841 35.4683 19.7808 35.4213 19.8268C35.3977 19.8498 35.3742 19.7907 35.3473 19.6528C35.3238 19.5412 35.2802 19.341 35.2533 19.2097L35.1995 18.9733H35.0685C34.9476 18.9733 34.9375 18.9799 34.9509 19.0455C34.961 19.0882 34.9913 19.2687 35.0215 19.4493C35.0517 19.6298 35.0853 19.8071 35.092 19.8465C35.1088 19.9088 35.092 19.9154 34.8905 19.9351C34.7729 19.9449 34.578 19.9778 34.4605 20.0073C34.2589 20.0598 34.2354 20.0598 33.8827 19.9909C33.4728 19.9088 33.194 19.9121 32.8312 20.004C32.633 20.0533 32.6061 20.0533 32.4113 20.0007C32.119 19.9253 31.5983 19.9253 31.2825 20.004C31.044 20.0631 31.0306 20.0631 30.7954 20.004C30.483 19.9253 29.9287 19.9253 29.6431 20.0007C29.455 20.0533 29.4248 20.0533 29.24 20.0007C28.9578 19.9253 28.4035 19.9253 28.0911 20.004C27.8627 20.0598 27.8324 20.0598 27.6376 20.0139C27.5234 19.9843 27.3285 19.9515 27.2042 19.9384C27.0732 19.9253 26.9758 19.9023 26.9758 19.8793C26.9758 19.8596 27.0262 19.6495 27.09 19.4165L27.2009 18.9897L27.0665 18.9799C26.9926 18.9733 26.922 18.9832 26.912 19.0029C26.8985 19.0226 26.8448 19.2064 26.791 19.4165C26.697 19.7743 26.6869 19.7939 26.6063 19.7939C26.5592 19.7939 26.5021 19.8104 26.4786 19.8333C26.4484 19.8629 26.4282 19.8629 26.398 19.8333C26.3476 19.7841 26.2266 19.7841 26.1763 19.8333C26.146 19.8629 26.1259 19.8629 26.0956 19.8333C26.0452 19.7841 25.9277 19.7808 25.8773 19.8301C25.8202 19.8859 25.7933 19.6036 25.8202 19.2655L25.8437 18.9733H25.6891H25.538L25.5145 19.2556C25.501 19.4099 25.4977 19.62 25.5111 19.725L25.5346 19.9154L25.3062 19.9384C25.1819 19.9515 24.9837 19.9843 24.8695 20.0139C24.6746 20.0598 24.641 20.0598 24.4327 20.0073C24.0598 19.9154 23.7441 19.9088 23.3779 19.9843C23.0688 20.05 23.0453 20.05 22.8572 19.9975C22.575 19.922 22.0207 19.9253 21.715 20.004C21.4832 20.0664 21.4731 20.0664 21.2279 20.004C20.9088 19.9253 20.3914 19.922 20.0991 20.0007C19.9009 20.0566 19.8741 20.0566 19.6792 20.004C19.387 19.9253 18.8998 19.9253 18.5538 20.004C18.2918 20.0631 18.2716 20.0631 18.0533 20.0106C17.929 19.9811 17.7341 19.9449 17.6199 19.9351L17.4116 19.9154L17.3881 19.6692C17.378 19.5346 17.368 19.3442 17.368 19.249C17.368 19.0094 17.3478 18.9733 17.2134 18.9733H17.0992V19.3968C17.0992 19.8136 17.0992 19.8202 17.0287 19.8038C16.9816 19.7907 16.9413 19.8038 16.9145 19.8399C16.8775 19.8859 16.8674 19.8891 16.8305 19.8432C16.7801 19.7841 16.639 19.7775 16.6188 19.8333C16.6054 19.8662 16.5953 19.8662 16.5584 19.8333C16.5046 19.7841 16.387 19.7808 16.34 19.8268C16.3165 19.8498 16.293 19.7939 16.2661 19.6495C16.2426 19.5313 16.2023 19.3344 16.172 19.2064L16.1183 18.9733H15.9705C15.8898 18.9733 15.8227 18.9799 15.8227 18.9897C15.8227 18.9963 15.8529 19.1276 15.8898 19.2819C15.9268 19.4362 15.9671 19.6397 15.9839 19.7381L16.0141 19.9154L15.7924 19.9351C15.6715 19.9449 15.4699 19.9778 15.3423 20.0106C15.1273 20.0631 15.1038 20.0631 14.872 20.004C14.5595 19.9253 14.0086 19.9253 13.7197 20.0007C13.5282 20.0533 13.5013 20.0533 13.3166 20.0007C13.0411 19.9253 12.4498 19.9285 12.1643 20.004C11.956 20.0598 11.9392 20.0598 11.5798 19.9876C11.1766 19.9121 10.8676 19.9154 10.5216 20.004C10.3637 20.0467 10.3133 20.0434 10.0177 19.9843C9.65149 19.9088 9.33235 19.9187 8.95609 20.0106C8.74781 20.0598 8.72094 20.0598 8.5093 20.0106C8.38836 19.9778 8.19352 19.9449 8.0793 19.9351L7.87438 19.9154L7.91469 19.6659C7.9382 19.5281 7.95836 19.318 7.95836 19.1932L7.96172 18.9733H7.8307C7.68289 18.9733 7.69633 18.9372 7.64258 19.4329C7.60227 19.7972 7.59555 19.8169 7.50148 19.8005C7.44438 19.7907 7.4007 19.8038 7.37383 19.8399C7.33688 19.8859 7.3268 19.8891 7.28984 19.8432C7.23609 19.7775 7.09836 19.7808 7.06141 19.8465C7.03453 19.8924 7.02781 19.8924 6.99086 19.8465C6.94047 19.7874 6.81617 19.7775 6.76242 19.8301C6.73891 19.853 6.72211 19.7972 6.70531 19.6397C6.69188 19.5182 6.65828 19.318 6.63141 19.1932L6.57766 18.9733H6.41977H6.26188L6.31898 19.1998Z" fill="white" stroke="white" stroke-width="0.5"/>
<path d="M1.66625 23.7558C1.65617 23.8248 1.64609 24.0381 1.64609 24.2285V24.5765L1.42102 24.5995C1.29336 24.6126 1.10188 24.6454 0.991016 24.6717C0.812969 24.7176 0.769297 24.7176 0.571094 24.6717C0.450156 24.6454 0.272109 24.6126 0.178047 24.6027L0 24.5798V24.8752V25.1706L0.157891 25.1509C0.248594 25.1444 0.423281 25.1115 0.547578 25.0787C0.762578 25.0262 0.789453 25.0262 1.00781 25.082C1.13547 25.1115 1.34375 25.1476 1.47141 25.1608C1.78047 25.1903 1.79391 25.2264 1.68977 25.7352C1.64945 25.942 1.61586 26.1324 1.6125 26.1521C1.6125 26.1816 1.66289 26.1948 1.75695 26.1948H1.90477L1.93836 26.0372C1.95852 25.9519 1.99547 25.768 2.01898 25.6269L2.06266 25.3741H2.17016C2.23063 25.3741 2.29109 25.3577 2.30453 25.338C2.31797 25.3118 2.33477 25.3118 2.36164 25.338C2.41203 25.3873 2.58672 25.384 2.58672 25.3347C2.58672 25.3118 2.5968 25.3085 2.61359 25.3282C2.63039 25.3446 2.66063 25.512 2.68414 25.7024C2.74797 26.221 2.73117 26.1948 2.93945 26.1948H3.1175L3.08391 26.07C3.02008 25.8435 2.92938 25.3085 2.95961 25.3085C2.97305 25.3085 2.98984 25.2789 2.99656 25.2395C3.00664 25.1805 3.03688 25.1706 3.2418 25.1575C3.37281 25.1509 3.58781 25.1148 3.72219 25.082C3.95734 25.0262 3.97078 25.0262 4.2093 25.0853C4.5318 25.1673 4.98867 25.1739 5.29773 25.0984C5.52617 25.0426 5.54969 25.0426 5.80164 25.0984C6.14766 25.1739 6.56422 25.1706 6.89344 25.0853C7.14875 25.0196 7.15211 25.0196 7.38055 25.0853C7.68625 25.1706 8.16664 25.1739 8.48914 25.0984C8.71758 25.0426 8.74109 25.0426 8.97625 25.0951C9.30547 25.1706 9.75899 25.1673 10.0781 25.0885C10.32 25.0262 10.3402 25.0262 10.5552 25.082C10.6795 25.1115 10.8945 25.1476 11.0322 25.1608C11.264 25.1805 11.2808 25.187 11.2976 25.2658C11.3043 25.3118 11.2774 25.5218 11.2338 25.7319C11.1901 25.942 11.1531 26.1324 11.1531 26.1521C11.1531 26.1783 11.2002 26.1948 11.2841 26.1948H11.4152L11.4521 26.0208C11.5831 25.4135 11.5966 25.3741 11.6906 25.3741C11.7377 25.3741 11.7948 25.3577 11.8183 25.3347C11.8485 25.3052 11.8687 25.3052 11.8989 25.3347C11.9493 25.384 12.0669 25.3873 12.1173 25.338C12.1441 25.3118 12.1509 25.4168 12.1374 25.7483L12.1173 26.1948H12.2584C12.3659 26.1948 12.3961 26.1816 12.3995 26.1357C12.4095 25.7844 12.4666 25.3413 12.507 25.2658C12.554 25.1772 12.5741 25.1706 12.8093 25.1575C12.947 25.1476 13.162 25.1148 13.2863 25.082C13.5047 25.0229 13.5148 25.0229 13.7667 25.0853C14.0959 25.1706 14.5125 25.1739 14.8585 25.0984C15.1105 25.0426 15.134 25.0426 15.3624 25.0984C15.6748 25.1739 16.1284 25.1706 16.4542 25.0853C16.6927 25.0262 16.7028 25.0262 16.9413 25.0853C17.2538 25.1673 17.7409 25.1706 18.0533 25.0984C18.2716 25.0459 18.3019 25.0459 18.5404 25.0984C18.8696 25.1739 19.3231 25.1673 19.6423 25.0853C19.8741 25.0262 19.8942 25.0262 20.1126 25.082C20.2369 25.1115 20.4485 25.1476 20.5829 25.1608L20.8248 25.1837L20.8416 25.3019C20.855 25.3708 20.8483 25.512 20.8281 25.6203C20.8113 25.7286 20.7945 25.9026 20.7945 26.0044V26.1948H20.9222H21.0532L21.1002 25.791L21.1473 25.3905L21.248 25.3807C21.3052 25.3741 21.3656 25.3544 21.3891 25.338C21.4127 25.315 21.4362 25.3183 21.4496 25.3413C21.4798 25.3873 21.6445 25.384 21.6948 25.3347C21.7251 25.3052 21.7352 25.338 21.7352 25.4923C21.7352 25.5973 21.752 25.8009 21.7755 25.942L21.8124 26.1948H21.9804C22.1215 26.1948 22.1416 26.1882 22.1248 26.139C22.1114 26.1094 22.0845 25.9322 22.0644 25.7451C22.0341 25.4825 22.0341 25.3807 22.0677 25.2855L22.1114 25.1608L22.3432 25.1542C22.4675 25.1509 22.6859 25.1181 22.8202 25.0853C23.0655 25.0229 23.0722 25.0229 23.3174 25.0853C23.6433 25.1706 24.0934 25.1739 24.4126 25.0984C24.641 25.0426 24.6645 25.0426 24.8997 25.0951C25.2222 25.1706 25.7093 25.1673 26.0184 25.0853C26.2502 25.0262 26.2602 25.0262 26.5055 25.0885C26.8313 25.1706 27.2848 25.1739 27.6073 25.0984C27.8391 25.0426 27.8593 25.0426 28.0945 25.0984C28.417 25.1739 28.8973 25.1706 29.203 25.0853C29.4281 25.0229 29.4348 25.0229 29.6834 25.082C29.8212 25.1181 30.0395 25.1509 30.1638 25.1542L30.3956 25.1608L30.4393 25.2822C30.4662 25.3643 30.4729 25.5317 30.4628 25.7976L30.446 26.1948H30.5871H30.7282L30.7551 25.7746L30.7786 25.3512L30.8626 25.3676C30.9197 25.3774 30.9634 25.3643 30.9902 25.3282C31.0272 25.2822 31.0373 25.2789 31.0742 25.3249C31.1213 25.3807 31.2456 25.3905 31.2993 25.338C31.3329 25.3052 31.3833 25.5448 31.4303 25.988L31.4538 26.1948H31.6016H31.7528L31.7293 25.9715C31.7192 25.8501 31.6923 25.6696 31.6756 25.5711C31.6588 25.4726 31.6554 25.3446 31.6655 25.2888C31.6856 25.1837 31.689 25.1837 31.9241 25.1608C32.0585 25.1476 32.2702 25.1115 32.3945 25.082C32.6128 25.0262 32.633 25.0262 32.8648 25.0853C33.1839 25.1673 33.6374 25.1739 33.9734 25.0984C34.222 25.0426 34.2421 25.0426 34.4773 25.0984C34.7863 25.1739 35.2398 25.1673 35.5691 25.0853C35.8076 25.0262 35.8143 25.0262 36.0562 25.0853C36.382 25.1673 36.8355 25.1739 37.1446 25.0984C37.3798 25.0426 37.3999 25.0426 37.6485 25.0984C37.9845 25.1739 38.438 25.1673 38.7571 25.0853C38.9923 25.0262 39.0057 25.0262 39.2409 25.0853C39.3752 25.1181 39.5869 25.1476 39.7112 25.1509L39.9363 25.1608L39.9766 25.2822C40.0102 25.3741 40.0102 25.4825 39.9799 25.7582C39.9598 25.9519 39.943 26.1324 39.943 26.1521C39.943 26.1783 39.99 26.1948 40.074 26.1948C40.2218 26.1948 40.2218 26.1882 40.2621 25.8009C40.3024 25.384 40.3058 25.3741 40.4066 25.3741C40.4603 25.3741 40.5174 25.3577 40.5376 25.338C40.5645 25.3118 40.5813 25.3118 40.5947 25.338C40.6249 25.384 40.7593 25.384 40.8063 25.338C40.8466 25.2986 40.8534 25.3282 40.9206 25.8731L40.9609 26.1948H41.1087C41.2766 26.1948 41.2699 26.2309 41.1994 25.7188C41.1591 25.4398 41.1557 25.3249 41.1826 25.2986C41.2027 25.2789 41.2195 25.2395 41.2195 25.21C41.2195 25.1706 41.2699 25.1608 41.4547 25.1542C41.5823 25.1509 41.8007 25.1181 41.9384 25.082C42.1803 25.0229 42.1971 25.0229 42.402 25.0787C42.5196 25.1082 42.701 25.1444 42.8085 25.1542L43 25.1739V24.8752V24.5765L42.7917 24.5995C42.6741 24.6126 42.4894 24.6454 42.3752 24.6717C42.1938 24.7176 42.1501 24.7176 41.972 24.6717C41.8612 24.6421 41.6596 24.6093 41.5252 24.5995L41.2766 24.5765L41.3002 24.1793C41.3136 23.9626 41.3304 23.7493 41.3438 23.7099C41.3606 23.641 41.3506 23.6344 41.2263 23.6344C41.1053 23.6344 41.0885 23.6442 41.0717 23.7263C41.0549 23.7985 40.9877 24.3795 40.9844 24.4616C40.9844 24.4714 40.9541 24.4747 40.9172 24.4649C40.8802 24.455 40.8298 24.4649 40.8063 24.4846C40.7727 24.5108 40.7324 24.5075 40.6552 24.4813C40.5645 24.4452 40.5443 24.4485 40.504 24.501C40.4637 24.5535 40.457 24.5535 40.4166 24.5075C40.3629 24.4452 40.2588 24.4386 40.2218 24.4944C40.1815 24.5633 40.1513 24.3762 40.1479 23.9856L40.1445 23.6344H40.0102H39.8758V24.1104V24.5863H39.7548C39.691 24.5863 39.4861 24.6159 39.3047 24.652C38.9855 24.7176 38.9654 24.7176 38.7605 24.6651C38.4716 24.5863 37.9509 24.5896 37.6418 24.6717C37.4134 24.7308 37.3999 24.7308 37.1715 24.6749C36.8456 24.5929 36.3619 24.5863 36.0562 24.6651C35.8177 24.7242 35.8042 24.7242 35.5691 24.6651C35.26 24.5863 34.7763 24.5929 34.4504 24.6749C34.222 24.7308 34.2085 24.7308 33.9801 24.6717C33.671 24.5896 33.1503 24.5863 32.8614 24.6651C32.6565 24.7176 32.6363 24.7176 32.3172 24.652C32.1358 24.6159 31.9477 24.5863 31.9006 24.5863C31.8536 24.5863 31.8133 24.583 31.8133 24.5765C31.8133 24.5732 31.8738 24.3697 31.9477 24.1268C32.0216 23.8839 32.082 23.6738 32.082 23.6574C32.082 23.6442 32.0182 23.6344 31.9376 23.6344H31.7931L31.6655 24.0545C31.5479 24.4485 31.5345 24.478 31.4639 24.4649C31.4202 24.455 31.3631 24.4714 31.3363 24.501C31.2892 24.5469 31.2758 24.5469 31.2422 24.5043C31.1918 24.4452 31.0709 24.4386 31.0138 24.4944C30.9835 24.524 30.9634 24.524 30.9331 24.4944C30.8827 24.4452 30.7618 24.4452 30.7114 24.4944C30.6812 24.524 30.6711 24.4353 30.6711 24.0841V23.6344H30.4964H30.3251L30.3486 24.1071L30.3721 24.5765L30.1134 24.5962C29.9757 24.6093 29.7674 24.6421 29.6566 24.6717C29.4651 24.7176 29.4348 24.7176 29.2131 24.6618C28.894 24.583 28.3834 24.5896 28.0777 24.6782C27.8492 24.7406 27.8492 24.7406 27.6241 24.6782C27.3218 24.5896 26.7742 24.583 26.4752 24.6651C26.2703 24.7209 26.2502 24.7209 26.0217 24.6618C25.7059 24.583 25.192 24.5896 24.893 24.6749C24.678 24.734 24.6645 24.7373 24.4395 24.6782C24.0363 24.5798 23.7743 24.5732 23.3913 24.652C23.0722 24.7176 23.0386 24.7176 22.8538 24.6717C22.7463 24.6421 22.5448 24.6093 22.4138 24.5995L22.1685 24.5765L22.1887 24.4747C22.2256 24.3073 22.3667 23.7526 22.3902 23.6902C22.4104 23.641 22.3902 23.6344 22.229 23.6344H22.0476L21.9938 23.8543C21.9636 23.9791 21.9233 24.1662 21.8998 24.2778C21.8662 24.4583 21.8561 24.4747 21.7889 24.4649C21.7452 24.455 21.6881 24.4714 21.6613 24.501C21.6142 24.5469 21.6008 24.5469 21.5672 24.5043C21.5134 24.4386 21.3757 24.4419 21.3388 24.5075C21.3119 24.5535 21.3052 24.5535 21.2682 24.5075C21.2178 24.4485 21.1103 24.4386 21.0801 24.4878C21.0297 24.5699 21.0028 24.4944 20.9659 24.1497C20.9054 23.6081 20.9155 23.6344 20.7609 23.6344C20.603 23.6344 20.6064 23.6147 20.677 24.1432C20.7038 24.3401 20.7273 24.5207 20.7273 24.5404C20.7273 24.5633 20.6366 24.5863 20.5191 24.5995C20.4015 24.6126 20.21 24.6454 20.0924 24.6717C19.8942 24.7176 19.8539 24.7176 19.6389 24.6618C19.3332 24.5863 18.8495 24.5929 18.527 24.6749C18.2985 24.734 18.2851 24.734 18.0566 24.6749C17.7442 24.5929 17.2235 24.5896 16.9346 24.6651C16.7297 24.7209 16.7062 24.7176 16.4643 24.6651C16.1351 24.5896 15.6513 24.5929 15.3355 24.6749C15.1071 24.7373 15.097 24.7373 14.882 24.6749C14.5931 24.5896 14.0388 24.5863 13.7499 24.6618C13.5484 24.7176 13.5282 24.7176 13.2057 24.652C13.0243 24.6159 12.816 24.5863 12.7488 24.5863C12.6279 24.5863 12.6279 24.583 12.648 24.478C12.6615 24.4222 12.7152 24.2187 12.769 24.0316C12.8227 23.8445 12.8664 23.6771 12.8664 23.6639C12.8664 23.6475 12.8026 23.6344 12.722 23.6344H12.5741L12.4868 23.9528C12.4364 24.13 12.3894 24.3139 12.3759 24.3631C12.3591 24.4386 12.3356 24.455 12.2584 24.455C12.208 24.455 12.1509 24.478 12.1341 24.5075C12.1072 24.5535 12.1005 24.5535 12.0635 24.5075C12.0064 24.4419 11.9123 24.4419 11.8586 24.5043C11.8216 24.5469 11.8116 24.5469 11.7679 24.5043C11.7074 24.4452 11.6201 24.4419 11.5596 24.4944C11.5126 24.5404 11.5126 24.5272 11.5764 23.8543L11.5999 23.6344H11.4655H11.3312L11.2909 23.9692C11.2707 24.1563 11.2438 24.3664 11.2338 24.4419L11.217 24.5765L10.9784 24.5995C10.8441 24.6126 10.6459 24.6421 10.535 24.6717C10.3502 24.7176 10.3166 24.7176 10.0983 24.6618C9.7825 24.583 9.26852 24.5896 8.96953 24.6749C8.75453 24.7373 8.74445 24.7373 8.51602 24.6749C8.20024 24.5929 7.65266 24.5863 7.36039 24.6651C7.15547 24.7209 7.13531 24.7209 6.90688 24.6618C6.59109 24.583 6.07711 24.5896 5.77813 24.6749C5.56313 24.7373 5.55305 24.7373 5.32461 24.6749C5.00883 24.5929 4.52508 24.5896 4.19586 24.6651C3.9607 24.7176 3.92375 24.7176 3.74234 24.6717C3.63148 24.6421 3.43664 24.6126 3.30563 24.5995L3.07047 24.5765L3.11078 24.2778C3.1343 24.1136 3.16117 23.9003 3.17461 23.8051L3.20148 23.6344H3.06375C2.92938 23.6344 2.92938 23.6344 2.89578 23.7887C2.87563 23.8773 2.84203 24.0677 2.81852 24.2121C2.78156 24.4485 2.77148 24.478 2.71438 24.4616C2.68078 24.455 2.62367 24.4714 2.59008 24.501C2.53633 24.5502 2.52625 24.5502 2.48594 24.5043C2.43219 24.4419 2.33813 24.4419 2.28438 24.5043C2.24742 24.5469 2.23734 24.5469 2.19367 24.5043C2.13656 24.4452 2.0425 24.4419 1.99211 24.4911C1.93164 24.5502 1.90477 24.2975 1.93164 23.9462L1.95516 23.6344H1.82078C1.69313 23.6344 1.68641 23.6377 1.66625 23.7558Z" fill="white" stroke="white" stroke-width="0.5"/>
</g>
<defs>
<clipPath id="clip0_187_11912">
<rect width="43" height="28" fill="white"/>
</clipPath>
</defs>
</svg>
