<svg width="193" height="142" viewBox="0 0 193 142" fill="none" xmlns="http://www.w3.org/2000/svg">
<g clip-path="url(#clip0_463_1513)">
<path d="M174.379 26.511H29.8072C28.6852 26.511 27.7757 27.4205 27.7757 28.5424V104.045C27.7757 105.167 28.6852 106.076 29.8072 106.076H174.379C175.501 106.076 176.411 105.167 176.411 104.045V28.5424C176.411 27.4205 175.501 26.511 174.379 26.511Z" fill="#FDECE5"/>
<path d="M12.5398 11.9521H19.3113" stroke="#333333" stroke-miterlimit="10" stroke-linecap="round"/>
<path d="M15.9255 8.56641V15.3379" stroke="#333333" stroke-miterlimit="10" stroke-linecap="round"/>
<path d="M183.711 37.5892C185.954 37.5892 187.773 35.7702 187.773 33.5263C187.773 31.2824 185.954 29.4634 183.711 29.4634C181.467 29.4634 179.648 31.2824 179.648 33.5263C179.648 35.7702 181.467 37.5892 183.711 37.5892Z" stroke="#99DAB3" stroke-width="2" stroke-miterlimit="10" stroke-linecap="round"/>
<path d="M145.966 129.533C147.462 129.533 148.675 128.321 148.675 126.825C148.675 125.329 147.462 124.116 145.966 124.116C144.47 124.116 143.257 125.329 143.257 126.825C143.257 128.321 144.47 129.533 145.966 129.533Z" fill="#FAE6EA"/>
<path d="M4.56292 35.639C6.80681 35.639 8.62584 33.82 8.62584 31.5761C8.62584 29.3322 6.80681 27.5132 4.56292 27.5132C2.31903 27.5132 0.5 29.3322 0.5 31.5761C0.5 33.82 2.31903 35.639 4.56292 35.639Z" fill="#FAE6EA"/>
<path d="M65.1817 131.402C67.4256 131.402 69.2446 129.583 69.2446 127.339C69.2446 125.095 67.4256 123.276 65.1817 123.276C62.9378 123.276 61.1187 125.095 61.1187 127.339C61.1187 129.583 62.9378 131.402 65.1817 131.402Z" fill="#FAE6EA"/>
<path d="M111.81 3.77224C112.745 3.77224 113.503 3.01431 113.503 2.07936C113.503 1.1444 112.745 0.386475 111.81 0.386475C110.875 0.386475 110.118 1.1444 110.118 2.07936C110.118 3.01431 110.875 3.77224 111.81 3.77224Z" fill="#FAE6EA"/>
<path d="M95.491 141.614C122.455 141.614 144.314 139.989 144.314 137.984C144.314 135.979 122.455 134.354 95.491 134.354C68.527 134.354 46.6683 135.979 46.6683 137.984C46.6683 139.989 68.527 141.614 95.491 141.614Z" fill="#F3F4F6"/>
<path d="M10.0478 79.5729C11.4765 79.5729 12.6346 78.4147 12.6346 76.9861C12.6346 75.5575 11.4765 74.3994 10.0478 74.3994C8.61924 74.3994 7.46112 75.5575 7.46112 76.9861C7.46112 78.4147 8.61924 79.5729 10.0478 79.5729Z" fill="#FAE6EA"/>
<path d="M23.7399 100.971H168.136" stroke="#333333" stroke-miterlimit="10"/>
<path d="M114.329 115.949V134.815C114.329 136.047 113.341 137.036 112.108 137.036H79.9978C78.7653 137.036 77.7767 136.047 77.7767 134.815V115.949" stroke="#333333" stroke-linejoin="round"/>
<path d="M82.1647 81.4823H77.8309V89.0529H67.3215V81.4823H51.6115V73.7221L67.9851 49.8999H77.8444V73.5867H82.1782V81.4823H82.1647ZM67.3215 73.5596V69.0227C67.3215 68.1695 67.3486 67.0183 67.4163 65.5692C67.484 64.1201 67.5111 63.3617 67.5517 63.2669H67.2538C66.6579 64.6483 65.9672 65.9349 65.1681 67.1131L60.8073 73.5596H67.3215Z" fill="white"/>
<path d="M112.068 69.5102C112.068 76.4578 110.917 81.5229 108.56 84.7462C106.217 87.9694 102.642 89.581 97.8475 89.581C93.0533 89.581 89.6133 87.9017 87.2027 84.5159C84.8191 81.1572 83.6273 76.1192 83.6273 69.5102C83.6273 62.5355 84.7785 57.4298 87.135 54.1795C89.4779 50.9156 93.0533 49.304 97.8475 49.304C102.642 49.304 106.082 50.9833 108.465 54.3691C110.849 57.7548 112.068 62.8199 112.068 69.5102ZM94.2045 69.5102C94.2045 73.9523 94.4753 76.986 95.0306 78.6518C95.5994 80.2905 96.5203 81.1572 97.8475 81.1572C99.1747 81.1572 100.123 80.304 100.664 78.5841C101.233 76.8776 101.491 73.844 101.491 69.5373C101.491 65.2306 101.22 62.1699 100.664 60.4228C100.096 58.6758 99.1747 57.8225 97.8475 57.8225C96.5203 57.8225 95.5994 58.6758 95.0306 60.3551C94.4618 61.9667 94.2045 65.0545 94.2045 69.4967V69.5102Z" fill="white"/>
<path d="M146.115 81.4823H141.781V89.0529H131.272V81.4823H115.562V73.7221L131.935 49.8999H141.754V73.5867H146.088V81.4823H146.115ZM131.272 73.5596V69.0227C131.272 68.1695 131.299 67.0183 131.367 65.5692C131.434 64.1201 131.461 63.3617 131.502 63.2669H131.204C130.608 64.6483 129.918 65.9349 129.118 67.1131L124.785 73.5596H131.272Z" fill="white"/>
<path d="M80.6749 79.6947H76.3953V87.1704H65.9942V79.6947H50.501V72.0157L66.6849 48.4644H76.3953V71.8803H80.6749V79.6811V79.6947ZM66.0349 71.8939V67.4111C66.0349 66.5714 66.062 65.4203 66.1297 63.9982C66.1974 62.5627 66.2245 61.8178 66.2651 61.723H65.9672C65.3848 63.0909 64.6941 64.3639 63.9086 65.5286L59.5884 71.9074H66.0349V71.8939Z" stroke="#F58F66" stroke-linejoin="round"/>
<path d="M110.89 67.8988C110.89 74.7651 109.752 79.776 107.422 82.9586C105.107 86.1413 101.572 87.7393 96.8318 87.7393C92.0917 87.7393 88.6924 86.0735 86.3088 82.7284C83.9524 79.4104 82.7741 74.44 82.7741 67.8988C82.7741 61.0053 83.9117 55.9538 86.2411 52.7441C88.557 49.5208 92.0917 47.9363 96.8318 47.9363C101.572 47.9363 104.971 49.5885 107.328 52.9472C109.711 56.2923 110.89 61.2762 110.89 67.9123V67.8988ZM93.2294 67.8988C93.2294 72.2867 93.4867 75.2797 94.0419 76.9455C94.5972 78.5707 95.5181 79.4239 96.8183 79.4239C98.1184 79.4239 99.08 78.5842 99.5946 76.8913C100.15 75.1985 100.407 72.2054 100.407 67.9394C100.407 63.6733 100.15 60.6532 99.5946 58.9332C99.0393 57.2133 98.1184 56.3601 96.8183 56.3601C95.5181 56.3601 94.5972 57.1997 94.0419 58.8655C93.5138 60.4636 93.2294 63.4837 93.2294 67.9123V67.8988Z" stroke="#F58F66" stroke-miterlimit="10"/>
<path d="M143.935 79.6947H139.655V87.1704H129.254V79.6947H113.72V72.0157L129.904 48.4644H139.614V71.8803H143.894V79.6811H143.921L143.935 79.6947ZM129.254 71.8939V67.4111C129.254 66.5714 129.281 65.4203 129.349 63.9982C129.416 62.5762 129.443 61.8178 129.484 61.723H129.186C128.604 63.0909 127.913 64.3639 127.128 65.5286L122.848 71.9074H129.254V71.8939Z" stroke="#F58F66" stroke-linejoin="round"/>
<path d="M96.0463 108.907C97.5422 108.907 98.7549 107.694 98.7549 106.198C98.7549 104.702 97.5422 103.49 96.0463 103.49C94.5504 103.49 93.3377 104.702 93.3377 106.198C93.3377 107.694 94.5504 108.907 96.0463 108.907Z" fill="#333333"/>
<path d="M46.3162 127.055H50.7583" stroke="#333333" stroke-miterlimit="10" stroke-linecap="round"/>
<path d="M48.5372 124.834V129.276" stroke="#333333" stroke-miterlimit="10" stroke-linecap="round"/>
<path d="M178.93 97.084H183.372" stroke="#333333" stroke-miterlimit="10" stroke-linecap="round"/>
<path d="M181.151 94.8628V99.3049" stroke="#333333" stroke-miterlimit="10" stroke-linecap="round"/>
<path d="M175.815 14.8369H186.731" stroke="#333333" stroke-miterlimit="10" stroke-linecap="round"/>
<path d="M181.273 9.37915V20.2813" stroke="#333333" stroke-miterlimit="10" stroke-linecap="round"/>
<path d="M174.894 26.7007H29.5092C28.6289 26.7007 27.9247 27.4185 27.9247 28.3123V41.5981H176.492V28.3123C176.492 27.432 175.774 26.7007 174.908 26.7007H174.894ZM34.9535 35.4495C34.1545 35.4495 33.5044 34.7994 33.5044 33.9868C33.5044 33.1743 34.1545 32.5242 34.9535 32.5242C35.7526 32.5242 36.4027 33.1743 36.4027 33.9868C36.4027 34.7994 35.7526 35.4495 34.9535 35.4495ZM40.0187 35.4495C39.2196 35.4495 38.5695 34.7994 38.5695 33.9868C38.5695 33.1743 39.2196 32.5242 40.0187 32.5242C40.8177 32.5242 41.4678 33.1743 41.4678 33.9868C41.4678 34.7994 40.8177 35.4495 40.0187 35.4495ZM45.0838 35.4495C44.2847 35.4495 43.6347 34.7994 43.6347 33.9868C43.6347 33.1743 44.2847 32.5242 45.0838 32.5242C45.8828 32.5242 46.5329 33.1743 46.5329 33.9868C46.5329 34.7994 45.8828 35.4495 45.0838 35.4495Z" fill="#F58F66"/>
<path d="M165.414 18.9946H26.6923C22.945 18.9946 19.9072 22.0324 19.9072 25.7797V108.975C19.9072 112.722 22.945 115.76 26.6923 115.76H165.414C169.161 115.76 172.199 112.722 172.199 108.975V25.7797C172.199 22.0324 169.161 18.9946 165.414 18.9946Z" stroke="#333333" stroke-miterlimit="10"/>
<path d="M168.136 108.975V25.7798C168.136 24.2764 166.917 23.0576 165.414 23.0576L26.6923 23.0576C25.1889 23.0576 23.9701 24.2764 23.9701 25.7798V108.975C23.9701 110.478 25.1889 111.697 26.6923 111.697L165.414 111.697C166.917 111.697 168.136 110.478 168.136 108.975Z" stroke="#333333" stroke-miterlimit="10"/>
<path d="M168.529 135.248C181.386 135.248 191.809 124.825 191.809 111.968C191.809 99.1103 181.386 88.6873 168.529 88.6873C155.671 88.6873 145.248 99.1103 145.248 111.968C145.248 124.825 155.671 135.248 168.529 135.248Z" fill="white" stroke="#333333" stroke-miterlimit="10"/>
<path d="M170.371 130.17C181.089 130.17 189.778 121.481 189.778 110.762C189.778 100.044 181.089 91.3552 170.371 91.3552C159.652 91.3552 150.963 100.044 150.963 110.762C150.963 121.481 159.652 130.17 170.371 130.17Z" fill="#ECF2FB"/>
<path d="M168.529 131.375C179.247 131.375 187.936 122.686 187.936 111.968C187.936 101.249 179.247 92.5605 168.529 92.5605C157.81 92.5605 149.122 101.249 149.122 111.968C149.122 122.686 157.81 131.375 168.529 131.375Z" stroke="#333333" stroke-miterlimit="10"/>
<path d="M168.583 117.453C167.351 117.453 166.335 116.45 166.335 115.205V102.149C166.335 100.917 167.337 99.9009 168.583 99.9009C169.829 99.9009 170.831 100.903 170.831 102.149V115.205C170.831 116.437 169.829 117.453 168.583 117.453Z" fill="#333333"/>
<path d="M168.583 123.615C169.825 123.615 170.831 122.608 170.831 121.367C170.831 120.125 169.825 119.118 168.583 119.118C167.341 119.118 166.335 120.125 166.335 121.367C166.335 122.608 167.341 123.615 168.583 123.615Z" fill="#333333"/>
</g>
<defs>
<clipPath id="clip0_463_1513">
<rect width="192" height="141.227" fill="white" transform="translate(0.5 0.386475)"/>
</clipPath>
</defs>
</svg>
