<svg width="192" height="142" viewBox="0 0 192 142" fill="none" xmlns="http://www.w3.org/2000/svg">
<g clip-path="url(#clip0_463_538)">
<path d="M173.879 26.511H29.3072C28.1853 26.511 27.2758 27.4205 27.2758 28.5424V104.045C27.2758 105.167 28.1853 106.076 29.3072 106.076H173.879C175.001 106.076 175.911 105.167 175.911 104.045V28.5424C175.911 27.4205 175.001 26.511 173.879 26.511Z" fill="#FDECE5"/>
<path d="M12.0398 11.9521H18.8113" stroke="#333333" stroke-miterlimit="10" stroke-linecap="round"/>
<path d="M15.4255 8.56641V15.3379" stroke="#333333" stroke-miterlimit="10" stroke-linecap="round"/>
<path d="M183.211 37.5892C185.454 37.5892 187.273 35.7702 187.273 33.5263C187.273 31.2824 185.454 29.4634 183.211 29.4634C180.967 29.4634 179.148 31.2824 179.148 33.5263C179.148 35.7702 180.967 37.5892 183.211 37.5892Z" stroke="#66C88D" stroke-width="2" stroke-miterlimit="10" stroke-linecap="round"/>
<path d="M145.466 129.533C146.962 129.533 148.175 128.321 148.175 126.825C148.175 125.329 146.962 124.116 145.466 124.116C143.97 124.116 142.757 125.329 142.757 126.825C142.757 128.321 143.97 129.533 145.466 129.533Z" fill="#FAE6EA"/>
<path d="M4.06292 35.639C6.30681 35.639 8.12584 33.82 8.12584 31.5761C8.12584 29.3322 6.30681 27.5132 4.06292 27.5132C1.81903 27.5132 0 29.3322 0 31.5761C0 33.82 1.81903 35.639 4.06292 35.639Z" fill="#FAE6EA"/>
<path d="M64.6817 131.402C66.9256 131.402 68.7446 129.583 68.7446 127.339C68.7446 125.095 66.9256 123.276 64.6817 123.276C62.4378 123.276 60.6188 125.095 60.6188 127.339C60.6188 129.583 62.4378 131.402 64.6817 131.402Z" fill="#FAE6EA"/>
<path d="M111.31 3.77224C112.245 3.77224 113.003 3.01431 113.003 2.07936C113.003 1.1444 112.245 0.386475 111.31 0.386475C110.375 0.386475 109.618 1.1444 109.618 2.07936C109.618 3.01431 110.375 3.77224 111.31 3.77224Z" fill="#FAE6EA"/>
<path d="M94.9911 141.614C121.955 141.614 143.814 139.989 143.814 137.984C143.814 135.979 121.955 134.354 94.9911 134.354C68.027 134.354 46.1683 135.979 46.1683 137.984C46.1683 139.989 68.027 141.614 94.9911 141.614Z" fill="#F3F4F6"/>
<path d="M9.54791 79.5729C10.9765 79.5729 12.1346 78.4147 12.1346 76.9861C12.1346 75.5575 10.9765 74.3994 9.54791 74.3994C8.1193 74.3994 6.96118 75.5575 6.96118 76.9861C6.96118 78.4147 8.1193 79.5729 9.54791 79.5729Z" fill="#FAE6EA"/>
<path d="M23.2399 100.971H167.636" stroke="#333333" stroke-miterlimit="10"/>
<path d="M113.829 115.949V134.815C113.829 136.047 112.841 137.036 111.608 137.036H79.4978C78.2654 137.036 77.2767 136.047 77.2767 134.815V115.949" stroke="#333333" stroke-linejoin="round"/>
<path d="M95.5463 108.907C97.0422 108.907 98.2549 107.694 98.2549 106.198C98.2549 104.702 97.0422 103.49 95.5463 103.49C94.0503 103.49 92.8376 104.702 92.8376 106.198C92.8376 107.694 94.0503 108.907 95.5463 108.907Z" fill="#333333"/>
<path d="M45.8162 127.055H50.2583" stroke="#333333" stroke-miterlimit="10" stroke-linecap="round"/>
<path d="M48.0372 124.834V129.276" stroke="#333333" stroke-miterlimit="10" stroke-linecap="round"/>
<path d="M178.43 97.084H182.872" stroke="#333333" stroke-miterlimit="10" stroke-linecap="round"/>
<path d="M180.651 94.8628V99.3049" stroke="#333333" stroke-miterlimit="10" stroke-linecap="round"/>
<path d="M175.315 14.8369H186.231" stroke="#333333" stroke-miterlimit="10" stroke-linecap="round"/>
<path d="M180.773 9.37915V20.2813" stroke="#333333" stroke-miterlimit="10" stroke-linecap="round"/>
<path d="M174.394 26.7007H29.0092C28.1289 26.7007 27.4247 27.4185 27.4247 28.3123V41.5981H175.992V28.3123C175.992 27.432 175.274 26.7007 174.408 26.7007H174.394ZM34.4535 35.4495C33.6545 35.4495 33.0044 34.7994 33.0044 33.9868C33.0044 33.1743 33.6545 32.5242 34.4535 32.5242C35.2526 32.5242 35.9026 33.1743 35.9026 33.9868C35.9026 34.7994 35.2526 35.4495 34.4535 35.4495ZM39.5186 35.4495C38.7196 35.4495 38.0695 34.7994 38.0695 33.9868C38.0695 33.1743 38.7196 32.5242 39.5186 32.5242C40.3177 32.5242 40.9677 33.1743 40.9677 33.9868C40.9677 34.7994 40.3177 35.4495 39.5186 35.4495ZM44.5837 35.4495C43.7847 35.4495 43.1346 34.7994 43.1346 33.9868C43.1346 33.1743 43.7847 32.5242 44.5837 32.5242C45.3828 32.5242 46.0329 33.1743 46.0329 33.9868C46.0329 34.7994 45.3828 35.4495 44.5837 35.4495Z" fill="#F58F66"/>
<path d="M164.914 18.9946H26.1923C22.445 18.9946 19.4072 22.0324 19.4072 25.7797V108.975C19.4072 112.722 22.445 115.76 26.1923 115.76H164.914C168.661 115.76 171.699 112.722 171.699 108.975V25.7797C171.699 22.0324 168.661 18.9946 164.914 18.9946Z" stroke="#333333" stroke-miterlimit="10"/>
<path d="M167.636 108.975V25.7798C167.636 24.2764 166.417 23.0576 164.914 23.0576L26.1922 23.0576C24.6888 23.0576 23.4701 24.2764 23.4701 25.7798V108.975C23.4701 110.478 24.6888 111.697 26.1922 111.697L164.914 111.697C166.417 111.697 167.636 110.478 167.636 108.975Z" stroke="#333333" stroke-miterlimit="10"/>
<path d="M168.029 135.248C180.886 135.248 191.309 124.825 191.309 111.968C191.309 99.1103 180.886 88.6873 168.029 88.6873C155.171 88.6873 144.748 99.1103 144.748 111.968C144.748 124.825 155.171 135.248 168.029 135.248Z" fill="white" stroke="#333333" stroke-miterlimit="10"/>
<path d="M169.871 130.17C180.589 130.17 189.278 121.481 189.278 110.762C189.278 100.044 180.589 91.3552 169.871 91.3552C159.152 91.3552 150.463 100.044 150.463 110.762C150.463 121.481 159.152 130.17 169.871 130.17Z" fill="#D8E5F8"/>
<path d="M168.029 131.375C178.747 131.375 187.436 122.686 187.436 111.968C187.436 101.249 178.747 92.5605 168.029 92.5605C157.31 92.5605 148.622 101.249 148.622 111.968C148.622 122.686 157.31 131.375 168.029 131.375Z" stroke="#333333" stroke-miterlimit="10"/>
<path d="M168.083 117.453C166.851 117.453 165.835 116.45 165.835 115.205V102.149C165.835 100.917 166.837 99.9009 168.083 99.9009C169.329 99.9009 170.331 100.903 170.331 102.149V115.205C170.331 116.437 169.329 117.453 168.083 117.453Z" fill="#333333"/>
<path d="M168.083 123.615C169.325 123.615 170.331 122.608 170.331 121.367C170.331 120.125 169.325 119.118 168.083 119.118C166.841 119.118 165.835 120.125 165.835 121.367C165.835 122.608 166.841 123.615 168.083 123.615Z" fill="#333333"/>
<path d="M85.4703 55.7775H68.4602V63.2939C69.1915 62.4949 70.2072 61.8448 71.5074 61.3302C72.8075 60.8156 74.2431 60.5718 75.7599 60.5718C78.482 60.5718 80.7437 61.1948 82.545 62.4272C84.3462 63.6596 85.6599 65.2577 86.4995 67.2214C87.3392 69.1852 87.759 71.3114 87.759 73.6002C87.759 77.8527 86.5672 81.225 84.1566 83.7169C81.7459 86.2088 78.3737 87.4548 74.0128 87.4548C71.1011 87.4548 68.5821 86.9537 66.4287 85.9515C64.2889 84.9493 62.6231 83.5679 61.4719 81.7802C60.3072 80.0061 59.6707 77.9475 59.5624 75.6181H68.6633C68.88 76.7422 69.4082 77.6767 70.2479 78.4215C71.0875 79.1664 72.2251 79.5456 73.6878 79.5456C75.3942 79.5456 76.6673 79.0039 77.5069 77.9069C78.3466 76.8099 78.7664 75.3608 78.7664 73.546C78.7664 71.7313 78.3331 70.404 77.4528 69.456C76.5725 68.508 75.2994 68.034 73.6336 68.034C72.4012 68.034 71.3855 68.332 70.5864 68.9414C69.7874 69.5508 69.2592 70.3363 69.0019 71.3114H59.9958V47.584H85.4703V55.764V55.7775Z" fill="white"/>
<path d="M93.5419 52.2294C95.9661 48.6269 99.853 46.8257 105.243 46.8257C110.633 46.8257 114.52 48.6269 116.944 52.2294C119.355 55.8318 120.574 60.7479 120.574 67.0048C120.574 73.2617 119.369 78.2998 116.944 81.8887C114.52 85.4911 110.62 87.2788 105.243 87.2788C99.8665 87.2788 95.9661 85.4776 93.5419 81.8887C91.1177 78.2998 89.9124 73.3295 89.9124 67.0048C89.9124 60.6802 91.1177 55.8318 93.5419 52.2294ZM110.2 58.5269C109.401 56.5496 107.749 55.561 105.243 55.561C102.738 55.561 101.085 56.5496 100.286 58.5269C99.4873 60.5042 99.081 63.3347 99.081 67.0048C99.081 69.4832 99.23 71.5282 99.5144 73.1399C99.7988 74.765 100.395 76.0652 101.289 77.0673C102.182 78.0695 103.496 78.5706 105.243 78.5706C106.99 78.5706 108.304 78.0695 109.198 77.0673C110.092 76.0652 110.674 74.765 110.972 73.1399C111.27 71.5282 111.405 69.4832 111.405 67.0048C111.405 63.3347 111.012 60.5042 110.213 58.5269H110.2Z" fill="white"/>
<path d="M121.779 56.3194V47.6519H136.88V87.4549H127.169V56.3194H121.779Z" fill="white"/>
<path d="M84.292 56.9421H67.2819V64.4585C68.0133 63.6594 69.029 63.0094 70.3291 62.4947C71.6293 61.9801 73.0648 61.7363 74.5817 61.7363C77.3038 61.7363 79.5655 62.3593 81.3667 63.5917C83.168 64.8241 84.4816 66.4222 85.3213 68.386C86.161 70.3497 86.5808 72.476 86.5808 74.7648C86.5808 79.0173 85.389 82.3895 82.9784 84.8814C80.5677 87.3733 77.1955 88.6193 72.8346 88.6193C69.9228 88.6193 67.4038 88.1182 65.2505 87.116C63.1107 86.1138 61.4449 84.7325 60.2937 82.9448C59.129 81.1706 58.4925 79.1121 58.3842 76.7827H67.4851C67.7018 77.9067 68.23 78.8412 69.0696 79.5861C69.9093 80.331 71.0469 80.7102 72.5096 80.7102C74.216 80.7102 75.489 80.1684 76.3287 79.0715C77.1684 77.9745 77.5882 76.5254 77.5882 74.7106C77.5882 72.8958 77.1548 71.5686 76.2745 70.6206C75.3942 69.6726 74.1212 69.1986 72.4554 69.1986C71.223 69.1986 70.2072 69.4965 69.4082 70.1059C68.6092 70.7154 68.081 71.5009 67.8237 72.476H58.8175V48.7485H84.292V56.9285V56.9421Z" stroke="#F58F66" stroke-miterlimit="10"/>
<path d="M92.3501 53.3939C94.7743 49.7915 98.6612 47.9902 104.051 47.9902C109.441 47.9902 113.328 49.7915 115.753 53.3939C118.163 56.9964 119.382 61.9125 119.382 68.1694C119.382 74.4263 118.177 79.4643 115.753 83.0532C113.328 86.6557 109.428 88.4434 104.051 88.4434C98.6747 88.4434 94.7743 86.6421 92.3501 83.0532C89.9259 79.4643 88.7206 74.494 88.7206 68.1694C88.7206 61.8448 89.9259 56.9964 92.3501 53.3939ZM109.008 59.6914C108.209 57.7142 106.557 56.7255 104.051 56.7255C101.546 56.7255 99.8936 57.7142 99.0946 59.6914C98.2955 61.6687 97.8892 64.4992 97.8892 68.1694C97.8892 70.6478 98.0382 72.6928 98.3226 74.3044C98.607 75.9296 99.2029 77.2297 100.097 78.2319C100.991 79.2341 102.304 79.7352 104.051 79.7352C105.798 79.7352 107.112 79.2341 108.006 78.2319C108.9 77.2297 109.482 75.9296 109.78 74.3044C110.078 72.6928 110.213 70.6478 110.213 68.1694C110.213 64.4992 109.821 61.6687 109.022 59.6914H109.008Z" stroke="#F58F66" stroke-miterlimit="10"/>
<path d="M120.587 57.484V48.8164H135.688V88.6195H125.978V57.484H120.587Z" stroke="#F58F66" stroke-miterlimit="10"/>
</g>
<defs>
<clipPath id="clip0_463_538">
<rect width="192" height="141.227" fill="white" transform="translate(0 0.386475)"/>
</clipPath>
</defs>
</svg>
