<svg width="200" height="200" viewBox="0 0 200 200" fill="none" xmlns="http://www.w3.org/2000/svg">
<g clip-path="url(#clip0_463_706)">
<path d="M177.879 55.511H33.3071C32.1852 55.511 31.2756 56.4205 31.2756 57.5424V133.045C31.2756 134.167 32.1852 135.076 33.3071 135.076H177.879C179.001 135.076 179.911 134.167 179.911 133.045V57.5424C179.911 56.4205 179.001 55.511 177.879 55.511Z" fill="#FFF8E5"/>
<path d="M16.0398 40.9521H22.8113" stroke="#333333" stroke-miterlimit="10" stroke-linecap="round"/>
<path d="M19.4255 37.5664V44.3379" stroke="#333333" stroke-miterlimit="10" stroke-linecap="round"/>
<path d="M187.211 66.5892C189.455 66.5892 191.274 64.7702 191.274 62.5263C191.274 60.2824 189.455 58.4634 187.211 58.4634C184.967 58.4634 183.148 60.2824 183.148 62.5263C183.148 64.7702 184.967 66.5892 187.211 66.5892Z" stroke="#99DAB3" stroke-width="2" stroke-miterlimit="10" stroke-linecap="round"/>
<path d="M149.466 158.533C150.962 158.533 152.175 157.321 152.175 155.825C152.175 154.329 150.962 153.116 149.466 153.116C147.97 153.116 146.757 154.329 146.757 155.825C146.757 157.321 147.97 158.533 149.466 158.533Z" fill="#FAE6EA"/>
<path d="M8.06292 64.639C10.3068 64.639 12.1258 62.82 12.1258 60.5761C12.1258 58.3322 10.3068 56.5132 8.06292 56.5132C5.81903 56.5132 4 58.3322 4 60.5761C4 62.82 5.81903 64.639 8.06292 64.639Z" fill="#FAE6EA"/>
<path d="M68.6816 160.402C70.9255 160.402 72.7445 158.583 72.7445 156.339C72.7445 154.095 70.9255 152.276 68.6816 152.276C66.4377 152.276 64.6187 154.095 64.6187 156.339C64.6187 158.583 66.4377 160.402 68.6816 160.402Z" fill="#FAE6EA"/>
<path d="M115.311 32.7722C116.246 32.7722 117.003 32.0143 117.003 31.0794C117.003 30.1444 116.246 29.3865 115.311 29.3865C114.376 29.3865 113.618 30.1444 113.618 31.0794C113.618 32.0143 114.376 32.7722 115.311 32.7722Z" fill="#FAE6EA"/>
<path d="M98.991 170.614C125.955 170.614 147.814 168.989 147.814 166.984C147.814 164.979 125.955 163.354 98.991 163.354C72.0269 163.354 50.1682 164.979 50.1682 166.984C50.1682 168.989 72.0269 170.614 98.991 170.614Z" fill="#F3F4F6"/>
<path d="M13.5479 108.573C14.9765 108.573 16.1346 107.415 16.1346 105.986C16.1346 104.558 14.9765 103.399 13.5479 103.399C12.1193 103.399 10.9612 104.558 10.9612 105.986C10.9612 107.415 12.1193 108.573 13.5479 108.573Z" fill="#FAE6EA"/>
<path d="M27.24 129.971H171.636" stroke="#333333" stroke-miterlimit="10"/>
<path d="M117.829 144.949V163.815C117.829 165.047 116.841 166.036 115.608 166.036H83.4977C82.2653 166.036 81.2766 165.047 81.2766 163.815V144.949" stroke="#333333" stroke-linejoin="round"/>
<path d="M99.5463 137.907C101.042 137.907 102.255 136.694 102.255 135.198C102.255 133.702 101.042 132.49 99.5463 132.49C98.0503 132.49 96.8376 133.702 96.8376 135.198C96.8376 136.694 98.0503 137.907 99.5463 137.907Z" fill="#333333"/>
<path d="M49.8162 156.055H54.2583" stroke="#333333" stroke-miterlimit="10" stroke-linecap="round"/>
<path d="M52.0374 153.834V158.276" stroke="#333333" stroke-miterlimit="10" stroke-linecap="round"/>
<path d="M182.43 126.084H186.872" stroke="#333333" stroke-miterlimit="10" stroke-linecap="round"/>
<path d="M184.651 123.863V128.305" stroke="#333333" stroke-miterlimit="10" stroke-linecap="round"/>
<path d="M179.315 43.8369H190.231" stroke="#333333" stroke-miterlimit="10" stroke-linecap="round"/>
<path d="M184.773 38.3792V49.2813" stroke="#333333" stroke-miterlimit="10" stroke-linecap="round"/>
<path d="M178.394 55.7007H33.0093C32.129 55.7007 31.4248 56.4185 31.4248 57.3123V70.5981H179.992V57.3123C179.992 56.432 179.274 55.7007 178.408 55.7007H178.394ZM38.4537 64.4495C37.6546 64.4495 37.0045 63.7994 37.0045 62.9868C37.0045 62.1743 37.6546 61.5242 38.4537 61.5242C39.2527 61.5242 39.9028 62.1743 39.9028 62.9868C39.9028 63.7994 39.2527 64.4495 38.4537 64.4495ZM43.5188 64.4495C42.7197 64.4495 42.0697 63.7994 42.0697 62.9868C42.0697 62.1743 42.7197 61.5242 43.5188 61.5242C44.3178 61.5242 44.9679 62.1743 44.9679 62.9868C44.9679 63.7994 44.3178 64.4495 43.5188 64.4495ZM48.5839 64.4495C47.7848 64.4495 47.1348 63.7994 47.1348 62.9868C47.1348 62.1743 47.7848 61.5242 48.5839 61.5242C49.3829 61.5242 50.033 62.1743 50.033 62.9868C50.033 63.7994 49.3829 64.4495 48.5839 64.4495Z" fill="#FCDACC"/>
<path d="M168.914 47.9946H30.1923C26.445 47.9946 23.4072 51.0324 23.4072 54.7797V137.975C23.4072 141.722 26.445 144.76 30.1923 144.76H168.914C172.661 144.76 175.699 141.722 175.699 137.975V54.7797C175.699 51.0324 172.661 47.9946 168.914 47.9946Z" stroke="#333333" stroke-miterlimit="10"/>
<path d="M171.636 137.975V54.7798C171.636 53.2764 170.417 52.0576 168.914 52.0576L30.1922 52.0576C28.6888 52.0576 27.4701 53.2764 27.4701 54.7798V137.975C27.4701 139.478 28.6888 140.697 30.1922 140.697H168.914C170.417 140.697 171.636 139.478 171.636 137.975Z" stroke="#333333" stroke-miterlimit="10"/>
<path d="M172.029 164.248C184.886 164.248 195.309 153.825 195.309 140.968C195.309 128.11 184.886 117.687 172.029 117.687C159.171 117.687 148.748 128.11 148.748 140.968C148.748 153.825 159.171 164.248 172.029 164.248Z" fill="white" stroke="#333333" stroke-miterlimit="10"/>
<path d="M173.871 159.17C184.589 159.17 193.278 150.481 193.278 139.762C193.278 129.044 184.589 120.355 173.871 120.355C163.152 120.355 154.463 129.044 154.463 139.762C154.463 150.481 163.152 159.17 173.871 159.17Z" fill="#ECF2FB"/>
<path d="M172.029 160.375C182.747 160.375 191.436 151.686 191.436 140.968C191.436 130.249 182.747 121.561 172.029 121.561C161.31 121.561 152.622 130.249 152.622 140.968C152.622 151.686 161.31 160.375 172.029 160.375Z" stroke="#333333" stroke-miterlimit="10"/>
<path d="M127.608 87.7166H75.3585C73.8626 87.7166 72.6499 88.9292 72.6499 90.4252V104.144C72.6499 105.64 73.8626 106.853 75.3585 106.853H127.608C129.104 106.853 130.316 105.64 130.316 104.144V90.4252C130.316 88.9292 129.104 87.7166 127.608 87.7166Z" fill="white" stroke="#3D7EDB" stroke-miterlimit="10"/>
<path d="M120.55 94.0151V95.3139H118.786V100.67H117.165V95.3139H115.402V94.0151H120.55Z" fill="#3D7EDB"/>
<path d="M110.67 94.0151V97.9968C110.67 98.395 110.768 98.7015 110.964 98.9164C111.16 99.1313 111.448 99.2387 111.827 99.2387C112.206 99.2387 112.497 99.1313 112.699 98.9164C112.901 98.7015 113.003 98.395 113.003 97.9968V94.0151H114.624V97.9873C114.624 98.5814 114.497 99.0839 114.244 99.4947C113.992 99.9055 113.65 100.215 113.221 100.424C112.797 100.632 112.323 100.737 111.799 100.737C111.274 100.737 110.803 100.635 110.386 100.433C109.975 100.225 109.65 99.9149 109.41 99.5041C109.169 99.087 109.049 98.5814 109.049 97.9873V94.0151H110.67Z" fill="#3D7EDB"/>
<path d="M104.772 100.737C104.147 100.737 103.572 100.591 103.047 100.301C102.529 100.01 102.115 99.6053 101.805 99.0871C101.502 98.5625 101.35 97.9748 101.35 97.3238C101.35 96.6728 101.502 96.0882 101.805 95.57C102.115 95.0517 102.529 94.6472 103.047 94.3565C103.572 94.0658 104.147 93.9204 104.772 93.9204C105.398 93.9204 105.97 94.0658 106.488 94.3565C107.013 94.6472 107.424 95.0517 107.721 95.57C108.024 96.0882 108.176 96.6728 108.176 97.3238C108.176 97.9748 108.024 98.5625 107.721 99.0871C107.417 99.6053 107.007 100.01 106.488 100.301C105.97 100.591 105.398 100.737 104.772 100.737ZM104.772 99.2577C105.303 99.2577 105.727 99.0808 106.043 98.7268C106.365 98.3729 106.526 97.9052 106.526 97.3238C106.526 96.736 106.365 96.2683 106.043 95.9207C105.727 95.5668 105.303 95.3898 104.772 95.3898C104.235 95.3898 103.805 95.5636 103.483 95.9112C103.167 96.2588 103.009 96.7297 103.009 97.3238C103.009 97.9116 103.167 98.3824 103.483 98.7363C103.805 99.0839 104.235 99.2577 104.772 99.2577Z" fill="#3D7EDB"/>
<path d="M98.8216 96.1199C98.7015 95.8987 98.5277 95.7312 98.3002 95.6174C98.079 95.4974 97.8167 95.4373 97.5133 95.4373C96.9888 95.4373 96.5685 95.6111 96.2525 95.9587C95.9365 96.3 95.7785 96.7582 95.7785 97.3333C95.7785 97.9464 95.9428 98.4267 96.2714 98.7743C96.6064 99.1156 97.0646 99.2863 97.646 99.2863C98.0442 99.2863 98.3792 99.1851 98.6509 98.9829C98.929 98.7806 99.1313 98.4899 99.2577 98.1107H97.2005V96.9162H100.727V98.4236C100.607 98.828 100.402 99.2041 100.111 99.5517C99.8265 99.8993 99.4631 100.181 99.0207 100.395C98.5783 100.61 98.079 100.718 97.5228 100.718C96.8655 100.718 96.2777 100.576 95.7595 100.291C95.2476 100 94.8462 99.5991 94.5555 99.0872C94.2711 98.5752 94.1289 97.9906 94.1289 97.3333C94.1289 96.6761 94.2711 96.0914 94.5555 95.5795C94.8462 95.0613 95.2476 94.6599 95.7595 94.3755C96.2714 94.0848 96.856 93.9395 97.5133 93.9395C98.3097 93.9395 98.9796 94.1322 99.5231 94.5177C100.073 94.9033 100.436 95.4373 100.613 96.1199H98.8216Z" fill="#3D7EDB"/>
<path d="M90.0986 100.737C89.4729 100.737 88.8978 100.591 88.3732 100.301C87.855 100.01 87.441 99.6053 87.1313 99.0871C86.828 98.5625 86.6763 97.9748 86.6763 97.3238C86.6763 96.6728 86.828 96.0882 87.1313 95.57C87.441 95.0517 87.855 94.6472 88.3732 94.3565C88.8978 94.0658 89.4729 93.9204 90.0986 93.9204C90.7243 93.9204 91.2963 94.0658 91.8145 94.3565C92.3391 94.6472 92.7499 95.0517 93.0469 95.57C93.3503 96.0882 93.502 96.6728 93.502 97.3238C93.502 97.9748 93.3503 98.5625 93.0469 99.0871C92.7436 99.6053 92.3328 100.01 91.8145 100.301C91.2963 100.591 90.7243 100.737 90.0986 100.737ZM90.0986 99.2577C90.6295 99.2577 91.0529 99.0808 91.3689 98.7268C91.6913 98.3729 91.8524 97.9052 91.8524 97.3238C91.8524 96.736 91.6913 96.2683 91.3689 95.9207C91.0529 95.5668 90.6295 95.3898 90.0986 95.3898C89.5614 95.3898 89.1316 95.5636 88.8093 95.9112C88.4933 96.2588 88.3353 96.7297 88.3353 97.3238C88.3353 97.9116 88.4933 98.3824 88.8093 98.7363C89.1316 99.0839 89.5614 99.2577 90.0986 99.2577Z" fill="#3D7EDB"/>
<path d="M84.0545 99.4188H86.178V100.67H82.4333V94.0151H84.0545V99.4188Z" fill="#3D7EDB"/>
<path d="M122.028 104.347L123.274 116.319C123.382 117.403 124.669 117.958 125.156 117.132L127.648 112.893C127.784 112.649 128.027 112.514 128.298 112.5L133.187 112.324C134.135 112.283 134.257 110.889 133.363 110.279L123.423 103.508C122.705 103.02 121.933 103.48 122.014 104.347H122.028Z" fill="white" stroke="#3D7EDB" stroke-miterlimit="10"/>
<path d="M177.893 135.903C181.062 139.072 181.062 144.218 177.893 147.401C174.724 150.583 169.577 150.57 166.395 147.401C163.212 144.232 163.226 139.085 166.395 135.903" stroke="#333333" stroke-width="2" stroke-linecap="round" stroke-linejoin="round"/>
<path d="M172.151 139.464V131.691" stroke="#333333" stroke-width="2" stroke-linecap="round" stroke-linejoin="round"/>
</g>
<defs>
<clipPath id="clip0_463_706">
<rect width="192" height="141.227" fill="white" transform="translate(4 29.3865)"/>
</clipPath>
</defs>
</svg>
